RobotoFlex-wght100.ufo
<glyph name="exclam" format="2">
  <advance width="520"/>
  <unicode hex="0021"/>
  <outline>
    <contour>
      <point x="186.0" y="69.05882352941177" type="qcurve" smooth="yes"/>
      <point x="186.0" y="106.74509803921569"/>
      <point x="224.37254901960785" y="160.11764705882354"/>
      <point x="260.4313725490196" y="160.11764705882354" type="qcurve" smooth="yes"/>
      <point x="296.4901960784314" y="160.11764705882354"/>
      <point x="333.8627450980392" y="106.74509803921569"/>
      <point x="333.8627450980392" y="69.05882352941177" type="qcurve" smooth="yes"/>
      <point x="333.8627450980392" y="31.372549019607842"/>
      <point x="296.4901960784314" y="-22.0"/>
      <point x="260.4313725490196" y="-22.0" type="qcurve" smooth="yes"/>
      <point x="225.05882352941177" y="-22.0"/>
      <point x="186.0" y="31.372549019607842"/>
    </contour>
    <contour>
      <point x="219.68627450980392" y="392.7450980392157" type="line"/>
      <point x="212.0" y="1456.0" type="line"/>
      <point x="308.8627450980392" y="1456.0" type="line"/>
      <point x="300.8627450980392" y="392.7450980392157" type="line"/>
    </contour>
  </outline>
</glyph>
<glyph name="quotedbl" format="2">
  <advance width="609"/>
  <unicode hex="0022"/>
  <outline>
    <contour>
      <point x="109.02627450980393" y="1091.7309803921569" type="line"/>
      <point x="100.0" y="1354.6611764705883" type="line"/>
      <point x="100.0" y="1456.0" type="line"/>
      <point x="204.19764705882352" y="1456.0" type="line"/>
      <point x="204.19764705882352" y="1354.6611764705883" type="line"/>
      <point x="195.85764705882355" y="1091.7309803921569" type="line"/>
    </contour>
    <contour>
      <point x="413.2239215686275" y="1091.7309803921569" type="line"/>
      <point x="404.1976470588235" y="1354.6611764705883" type="line"/>
      <point x="404.1976470588235" y="1456.0" type="line"/>
      <point x="509.08156862745096" y="1456.0" type="line"/>
      <point x="509.08156862745096" y="1354.6611764705883" type="line"/>
      <point x="500.741568627451" y="1091.7309803921569" type="line"/>
    </contour>
  </outline>
</glyph>
<glyph name="numbersign" format="2">
  <advance width="1502"/>
  <unicode hex="0023"/>
  <outline>
    <contour>
      <point x="187.6643137254902" y="-20.0" type="line"/>
      <point x="724.3388235294117" y="1458.8431372549019" type="line"/>
      <point x="806.5427450980392" y="1458.8431372549019" type="line"/>
      <point x="269.18196078431373" y="-20.0" type="line"/>
    </contour>
    <contour>
      <point x="712.0039215686274" y="-20.0" type="line"/>
      <point x="1249.524705882353" y="1458.8431372549019" type="line"/>
      <point x="1332.4149019607844" y="1458.8431372549019" type="line"/>
      <point x="794.8941176470588" y="-20.0" type="line"/>
    </contour>
    <contour>
      <point x="15.85882352941178" y="438.66117647058826" type="line"/>
      <point x="15.85882352941178" y="522.9725490196079" type="line"/>
      <point x="1401.4745098039216" y="522.9725490196079" type="line"/>
      <point x="1401.4745098039216" y="438.66117647058826" type="line"/>
    </contour>
    <contour>
      <point x="118.91843137254902" y="915.8705882352941" type="line"/>
      <point x="118.91843137254902" y="1000.1819607843137" type="line"/>
      <point x="1502.8478431372548" y="1000.1819607843137" type="line"/>
      <point x="1502.8478431372548" y="915.8705882352941" type="line"/>
    </contour>
  </outline>
</glyph>
<glyph name="ampersand" format="2">
  <advance width="1230"/>
  <unicode hex="0026"/>
  <outline>
    <contour>
      <point x="80.0" y="380.0" type="qcurve" smooth="yes"/>
      <point x="80.0" y="525.3137254901961"/>
      <point x="249.62" y="728.2172549019608"/>
      <point x="434.6113725490196" y="832.7388235294117" type="qcurve" smooth="yes"/>
      <point x="587.7270588235294" y="921.2125490196079" type="line" smooth="yes"/>
      <point x="673.7811764705882" y="971.3725490196078"/>
      <point x="762.9827450980392" y="1093.0149019607843"/>
      <point x="762.9827450980392" y="1175.4274509803922" type="qcurve" smooth="yes"/>
      <point x="762.9827450980392" y="1268.16"/>
      <point x="649.998431372549" y="1399.9286274509802"/>
      <point x="548.7380392156863" y="1399.9286274509802" type="qcurve" smooth="yes"/>
      <point x="443.7725490196078" y="1399.9286274509802"/>
      <point x="318.443137254902" y="1258.16"/>
      <point x="318.443137254902" y="1158.6274509803923" type="qcurve" smooth="yes"/>
      <point x="318.443137254902" y="1082.1811764705883"/>
      <point x="397.7423529411765" y="935.9223529411764"/>
      <point x="504.07019607843137" y="811.8549019607843" type="qcurve" smooth="yes"/>
      <point x="1206.6941176470589" y="0.0" type="line"/>
      <point x="1082.3623529411766" y="0.0" type="line"/>
      <point x="427.2337254901961" y="766.1474509803921" type="line" smooth="yes"/>
      <point x="310.10705882352937" y="902.9811764705883"/>
      <point x="224.62039215686272" y="1065.4274509803922"/>
      <point x="224.62039215686272" y="1158.6274509803923" type="qcurve" smooth="yes"/>
      <point x="224.62039215686272" y="1302.4925490196076"/>
      <point x="409.35372549019604" y="1486.0"/>
      <point x="548.7380392156863" y="1486.0" type="qcurve" smooth="yes"/>
      <point x="684.7372549019608" y="1486.0"/>
      <point x="858.7105882352942" y="1314.6650980392158"/>
      <point x="858.7105882352942" y="1178.7874509803924" type="qcurve" smooth="yes"/>
      <point x="858.7105882352942" y="1071.5411764705882"/>
      <point x="742.0976470588236" y="912.8674509803922"/>
      <point x="651.8" y="857.7388235294117" type="qcurve" smooth="yes"/>
      <point x="490.1078431372549" y="763.2274509803922" type="line" smooth="yes"/>
      <point x="319.1517647058824" y="662.478431372549"/>
      <point x="174.86274509803923" y="494.6862745098039"/>
      <point x="174.66274509803924" y="380.6862745098039" type="qcurve" smooth="yes"/>
      <point x="174.86274509803923" y="238.37254901960785"/>
      <point x="362.17725490196074" y="66.07137254901961"/>
      <point x="517.8141176470588" y="66.07137254901961" type="qcurve" smooth="yes"/>
      <point x="730.5411764705882" y="66.07137254901961"/>
      <point x="1037.1960784313726" y="394.17254901960786"/>
      <point x="1037.1960784313726" y="674.0" type="qcurve"/>
      <point x="1128.7388235294118" y="674.0" type="line"/>
      <point x="1128.7388235294118" y="380.0"/>
      <point x="777.2925490196078" y="-20.0"/>
      <point x="517.8141176470588" y="-20.0" type="qcurve" smooth="yes"/>
      <point x="312.13960784313724" y="-20.0"/>
      <point x="80.0" y="203.5686274509804"/>
    </contour>
  </outline>
</glyph>
<glyph name="parenright" format="2">
	<unicode hex="0029"/>
	<advance width="601"/>
	<outline>
		<contour>
			<point x="-32.6666666667" y="-436" type="qcurve"/>
			<point x="-32.6666666667" y="-356.6078431373" type="line"/>
			<point x="133.6666666667" y="-288.7843137255"/>
			<point x="381" y="112.8980392157"/>
			<point x="381" y="508" type="qcurve" smooth="yes"/>
			<point x="381" y="532" type="line" smooth="yes"/>
			<point x="381" y="917.4941176471"/>
			<point x="133.6666666667" y="1327.7843137255"/>
			<point x="-32.6666666667" y="1395.6078431373" type="qcurve"/>
			<point x="-32.6666666667" y="1476" type="line"/>
			<point x="177.7254901961" y="1404.5490196078"/>
			<point x="477.8901960784" y="921.3725490196"/>
			<point x="477.8901960784" y="525" type="qcurve" smooth="yes"/>
			<point x="477.8901960784" y="515" type="line" smooth="yes"/>
			<point x="477.8901960784" y="106.9607843137"/>
			<point x="177.7254901961" y="-364.5490196078"/>
		</contour>
	</outline>
</glyph>
<glyph name="asterisk" format="2">
  <advance width="1099"/>
  <unicode hex="002A"/>
  <outline>
    <contour>
      <point x="58.0" y="1081.821960784314" type="line"/>
      <point x="86.49882352941177" y="1177.0258823529412" type="line"/>
      <point x="516.6043137254902" y="1022.0219607843136" type="line"/>
      <point x="503.02431372549023" y="1476.0" type="line"/>
      <point x="596.2870588235294" y="1476.0" type="line"/>
      <point x="582.7070588235293" y="1022.0219607843136" type="line"/>
      <point x="1012.8125490196078" y="1177.0258823529412" type="line"/>
      <point x="1041.3113725490196" y="1081.821960784314" type="line"/>
      <point x="602.8996078431372" y="956.5043137254902" type="line"/>
      <point x="882.3611764705881" y="598.7513725490196" type="line"/>
      <point x="807.9172549019607" y="539.7662745098039" type="line"/>
      <point x="549.6556862745098" y="916.9992156862745" type="line"/>
      <point x="291.39411764705886" y="539.7662745098039" type="line"/>
      <point x="216.9501960784314" y="598.7513725490196" type="line"/>
      <point x="496.4117647058824" y="956.5043137254902" type="line"/>
    </contour>
  </outline>
</glyph>
<glyph name="plus" format="2">
	<unicode hex="002B"/>
	<advance width="1270"/>
	<outline>
		<contour>
			<point x="93.9717647059" y="630.0737254902" type="line"/>
			<point x="93.9717647059" y="719.2988235294" type="line"/>
			<point x="1176.2243137255" y="719.2988235294" type="line"/>
			<point x="1176.2243137255" y="630.0737254902" type="line"/>
		</contour>
		<contour>
			<point x="588.2866666667" y="143.2360784314" type="line"/>
			<point x="588.2866666667" y="1204.7639215686" type="line"/>
			<point x="681.9094117647" y="1204.7639215686" type="line"/>
			<point x="681.9094117647" y="143.2360784314" type="line"/>
		</contour>
	</outline>
</glyph>
<glyph name="hyphen" format="2">
	<unicode hex="002D"/>
	<advance width="618"/>
	<outline>
		<contour>
			<point x="26.2745098039" y="591.5874509804" type="line"/>
			<point x="26.2745098039" y="683.3725490196" type="line"/>
			<point x="590.991372549" y="683.3725490196" type="line"/>
			<point x="590.991372549" y="591.5874509804" type="line"/>
		</contour>
	</outline>
</glyph>
<glyph name="period" format="2">
  <advance width="473"/>
  <unicode hex="002E"/>
  <outline>
    <contour>
      <point x="160.0" y="71.05882352941177" type="qcurve" smooth="yes"/>
      <point x="160.0" y="110.15137254901961"/>
      <point x="199.45882352941177" y="164.80392156862746"/>
      <point x="236.39764705882354" y="164.80392156862746" type="qcurve" smooth="yes"/>
      <point x="272.65019607843135" y="164.80392156862746"/>
      <point x="312.10901960784315" y="110.15137254901961"/>
      <point x="312.10901960784315" y="71.74509803921569" type="qcurve" smooth="yes"/>
      <point x="312.10901960784315" y="32.65254901960784"/>
      <point x="272.65019607843135" y="-22.0"/>
      <point x="235.71137254901961" y="-22.0" type="qcurve" smooth="yes"/>
      <point x="199.45882352941177" y="-22.0"/>
      <point x="160.0" y="32.65254901960784"/>
    </contour>
  </outline>
</glyph>
<glyph name="zero" format="2">
	<unicode hex="0030"/>
	<advance width="1236"/>
	<outline>
		<contour>
			<point x="157.137254902" y="499.1764705882" type="qcurve" smooth="yes"/>
			<point x="157.137254902" y="954.8235294118" type="line" smooth="yes"/>
			<point x="157.137254902" y="1206.7254901961"/>
			<point x="399.8431372549" y="1486"/>
			<point x="617.8039215686" y="1486" type="qcurve" smooth="yes"/>
			<point x="835.7647058824" y="1486"/>
			<point x="1079.1568627451" y="1206.7254901961"/>
			<point x="1079.1568627451" y="954.8235294118" type="qcurve" smooth="yes"/>
			<point x="1079.1568627451" y="499.1764705882" type="line" smooth="yes"/>
			<point x="1079.1568627451" y="245.9019607843"/>
			<point x="835.7647058824" y="-30"/>
			<point x="617.8039215686" y="-30" type="qcurve" smooth="yes"/>
			<point x="399.8431372549" y="-30"/>
			<point x="157.137254902" y="245.9019607843"/>
		</contour>
		<contour>
			<point x="255" y="493.1764705882" type="line" smooth="yes"/>
			<point x="255" y="293.9607843137"/>
			<point x="440.2156862745" y="59.1176470588"/>
			<point x="617.8039215686" y="59.1176470588" type="qcurve" smooth="yes"/>
			<point x="795.3921568627" y="59.1176470588"/>
			<point x="981.9803921569" y="293.9607843137"/>
			<point x="981.9803921569" y="493.1764705882" type="qcurve" smooth="yes"/>
			<point x="981.9803921569" y="957.8235294118" type="line" smooth="yes"/>
			<point x="981.9803921569" y="1154.6666666667"/>
			<point x="796.3921568627" y="1396.8823529412"/>
			<point x="617.8039215686" y="1396.8823529412" type="qcurve" smooth="yes"/>
			<point x="439.2156862745" y="1396.8823529412"/>
			<point x="255" y="1154.6666666667"/>
			<point x="255" y="957.8235294118" type="qcurve" smooth="yes"/>
		</contour>
	</outline>
</glyph>
<glyph name="one" format="2">
	<unicode hex="0031"/>
	<advance width="1236"/>
	<outline>
		<contour>
			<point x="629.431372549" y="0" type="line"/>
			<point x="629.431372549" y="1371.0588235294" type="line"/>
			<point x="191.3921568627" y="1215.2549019608" type="line"/>
			<point x="191.3921568627" y="1309" type="line"/>
			<point x="685.6862745098" y="1476" type="line"/>
			<point x="726.2941176471" y="1476" type="line"/>
			<point x="726.2941176471" y="0" type="line"/>
		</contour>
	</outline>
</glyph>
<glyph name="two" format="2">
	<unicode hex="0032"/>
	<advance width="1236"/>
	<outline>
		<contour>
			<point x="157.8235294118" y="0" type="line"/>
			<point x="157.8235294118" y="83.1176470588" type="line"/>
			<point x="757.0196078431" y="661.862745098" type="line" smooth="yes"/>
			<point x="859.0196078431" y="763.9411764706"/>
			<point x="987.9215686275" y="974.3725490196"/>
			<point x="987.9215686275" y="1099.6274509804" type="qcurve" smooth="yes"/>
			<point x="987.9215686275" y="1211.2549019608"/>
			<point x="810.3333333333" y="1397.8823529412"/>
			<point x="644.4901960784" y="1396.8823529412" type="qcurve" smooth="yes"/>
			<point x="470.8431372549" y="1395.8823529412"/>
			<point x="256" y="1211.4509803922"/>
			<point x="256" y="1044.6274509804" type="qcurve" smooth="yes"/>
			<point x="256" y="1028.6274509804" type="line"/>
			<point x="160.137254902" y="1028.6274509804" type="line"/>
			<point x="160.137254902" y="1043.6274509804" type="line" smooth="yes"/>
			<point x="160.137254902" y="1237.5098039216"/>
			<point x="427.4117647059" y="1486"/>
			<point x="644.4901960784" y="1486" type="qcurve" smooth="yes"/>
			<point x="852.0784313725" y="1486"/>
			<point x="1084.7843137255" y="1248.6274509804"/>
			<point x="1084.7843137255" y="1101.6274509804" type="qcurve" smooth="yes"/>
			<point x="1084.7843137255" y="949.9411764706"/>
			<point x="946.1176470588" y="717"/>
			<point x="818.0784313725" y="594.3137254902" type="qcurve" smooth="yes"/>
			<point x="292.4117647059" y="81.2549019608" type="line"/>
			<point x="1137.5294117647" y="81.2549019608" type="line"/>
			<point x="1137.5294117647" y="0" type="line"/>
		</contour>
	</outline>
</glyph>
<glyph name="four" format="2">
  <advance width="1236"/>
  <unicode hex="0034"/>
  <outline>
    <contour>
      <point x="850.3725490196078" y="0.0" type="line"/>
      <point x="850.3725490196078" y="393.0" type="line"/>
      <point x="850.3725490196078" y="416.0" type="line"/>
      <point x="850.3725490196078" y="1311.4117647058824" type="line"/>
      <point x="842.3725490196078" y="1311.4117647058824" type="line"/>
      <point x="183.921568627451" y="448.7450980392157" type="line"/>
      <point x="862.3921568627451" y="448.7450980392157" type="line"/>
      <point x="903.2549019607843" y="448.7450980392157" type="line"/>
      <point x="1172.078431372549" y="448.7450980392157" type="line"/>
      <point x="1172.078431372549" y="360.3137254901961" type="line"/>
      <point x="67.50980392156863" y="360.3137254901961" type="line"/>
      <point x="67.50980392156863" y="450.11764705882354" type="line"/>
      <point x="850.6274509803922" y="1456.0" type="line"/>
      <point x="944.9215686274509" y="1456.0" type="line"/>
      <point x="944.9215686274509" y="0.0" type="line"/>
    </contour>
  </outline>
</glyph>
<glyph name="five" format="2">
	<unicode hex="0035"/>
	<advance width="1236"/>
	<outline>
		<contour>
			<point x="129.137254902" y="363.3725490196" type="qcurve" smooth="yes"/>
			<point x="129.137254902" y="376.3725490196" type="line"/>
			<point x="223" y="376.3725490196" type="line"/>
			<point x="223" y="366.3725490196" type="line" smooth="yes"/>
			<point x="223" y="223.0588235294"/>
			<point x="441.9607843137" y="58.431372549"/>
			<point x="619.4901960784" y="58.431372549" type="qcurve" smooth="yes"/>
			<point x="795.3333333333" y="58.431372549"/>
			<point x="1006.3529411765" y="272.0588235294"/>
			<point x="1006.3529411765" y="465" type="qcurve" smooth="yes"/>
			<point x="1006.3529411765" y="643.6274509804"/>
			<point x="795.3333333333" y="830.568627451"/>
			<point x="618.8039215686" y="830.568627451" type="qcurve" smooth="yes"/>
			<point x="527.568627451" y="831.568627451"/>
			<point x="328.9019607843" y="733.8823529412"/>
			<point x="272.3529411765" y="669.137254902" type="qcurve"/>
			<point x="182.2549019608" y="711.6274509804" type="line"/>
			<point x="258.2549019608" y="1456" type="line"/>
			<point x="1028.3529411765" y="1456" type="line"/>
			<point x="1028.3529411765" y="1363.8823529412" type="line"/>
			<point x="339.431372549" y="1363.8823529412" type="line"/>
			<point x="273.431372549" y="754.0196078431" type="line"/>
			<point x="319.2352941176" y="814.7647058824"/>
			<point x="532.568627451" y="919"/>
			<point x="640.2941176471" y="919" type="qcurve" smooth="yes"/>
			<point x="840.137254902" y="919"/>
			<point x="1103.2156862745" y="680"/>
			<point x="1103.2156862745" y="465" type="qcurve" smooth="yes"/>
			<point x="1103.2156862745" y="235"/>
			<point x="835.0784313725" y="-30"/>
			<point x="619.4901960784" y="-30" type="qcurve" smooth="yes"/>
			<point x="411.8235294118" y="-30"/>
			<point x="129.137254902" y="178.6862745098"/>
		</contour>
	</outline>
</glyph>
<glyph name="six" format="2">
	<unicode hex="0036"/>
	<advance width="1236"/>
	<outline>
		<contour>
			<point x="125.6470588235" y="614" type="qcurve" smooth="yes"/>
			<point x="125.6470588235" y="644" type="line" smooth="yes"/>
			<point x="125.6470588235" y="1028"/>
			<point x="561.5098039216" y="1486"/>
			<point x="906.6274509804" y="1486" type="qcurve" smooth="yes"/>
			<point x="929" y="1486" type="line"/>
			<point x="929" y="1396.8823529412" type="line"/>
			<point x="906.6274509804" y="1396.8823529412" type="line" smooth="yes"/>
			<point x="615.3137254902" y="1396.8823529412"/>
			<point x="220.5098039216" y="1012.9411764706"/>
			<point x="220.5098039216" y="654" type="qcurve" smooth="yes"/>
			<point x="220.5098039216" y="604" type="line" smooth="yes"/>
			<point x="220.5098039216" y="306.0588235294"/>
			<point x="471.9019607843" y="58.431372549"/>
			<point x="659.431372549" y="58.431372549" type="qcurve" smooth="yes"/>
			<point x="848.3333333333" y="58.431372549"/>
			<point x="1044.2941176471" y="271.0588235294"/>
			<point x="1044.2941176471" y="464" type="qcurve" smooth="yes"/>
			<point x="1044.2941176471" y="644.6274509804"/>
			<point x="848.3333333333" y="841.2549019608"/>
			<point x="664.431372549" y="841.2549019608" type="qcurve" smooth="yes"/>
			<point x="484.2745098039" y="841.2549019608"/>
			<point x="214.5098039216" y="626.6274509804"/>
			<point x="214.5098039216" y="464" type="qcurve"/>
			<point x="171.7647058824" y="464" type="line"/>
			<point x="171.7647058824" y="668.6862745098"/>
			<point x="463.2156862745" y="929.6862745098"/>
			<point x="682.5490196078" y="929.6862745098" type="qcurve" smooth="yes"/>
			<point x="898.137254902" y="929.6862745098"/>
			<point x="1141.1568627451" y="672.6862745098"/>
			<point x="1141.1568627451" y="464" type="qcurve" smooth="yes"/>
			<point x="1141.1568627451" y="244"/>
			<point x="878.7058823529" y="-30"/>
			<point x="660.1176470588" y="-30" type="qcurve" smooth="yes"/>
			<point x="427.8431372549" y="-30"/>
			<point x="125.6470588235" y="296"/>
		</contour>
	</outline>
</glyph>
<glyph name="seven" format="2">
	<unicode hex="0037"/>
	<advance width="1236"/>
	<outline>
		<contour>
			<point x="366.568627451" y="0" type="line"/>
			<point x="1008.2352941176" y="1366.9411764706" type="line"/>
			<point x="87.8823529412" y="1366.9411764706" type="line"/>
			<point x="87.8823529412" y="1456" type="line"/>
			<point x="1111.8431372549" y="1456" type="line"/>
			<point x="1111.8431372549" y="1381.1960784314" type="line"/>
			<point x="471.8039215686" y="0" type="line"/>
		</contour>
	</outline>
</glyph>
<glyph name="eight" format="2">
  <advance width="1236"/>
  <unicode hex="0038"/>
  <outline>
    <contour>
      <point x="126.137254902" y="379" type="qcurve" smooth="yes"/>
      <point x="126.137254902" y="521"/>
      <point x="305.5490196078" y="706.3137254902"/>
      <point x="438.7843137255" y="745.9411764706" type="qcurve"/>
      <point x="438.7843137255" y="749.9411764706" type="line"/>
      <point x="323.6078431373" y="783.568627451"/>
      <point x="176.2549019608" y="971"/>
      <point x="176.2549019608" y="1094" type="qcurve" smooth="yes"/>
      <point x="176.2549019608" y="1271"/>
      <point x="432.0196078431" y="1486"/>
      <point x="617.8039215686" y="1486" type="qcurve" smooth="yes"/>
      <point x="803.5882352941" y="1486"/>
      <point x="1060.7254901961" y="1269.6274509804"/>
      <point x="1060.7254901961" y="1094" type="qcurve" smooth="yes"/>
      <point x="1060.7254901961" y="971"/>
      <point x="915.3725490196" y="784.568627451"/>
      <point x="797.5098039216" y="749.9411764706" type="qcurve"/>
      <point x="797.5098039216" y="745.9411764706" type="line"/>
      <point x="935.7450980392" y="712.3137254902"/>
      <point x="1111.5294117647" y="522"/>
      <point x="1111.5294117647" y="379" type="qcurve" smooth="yes"/>
      <point x="1111.5294117647" y="184"/>
      <point x="824.9607843137" y="-30"/>
      <point x="617.8039215686" y="-30" type="qcurve" smooth="yes"/>
      <point x="410.6470588235" y="-30"/>
      <point x="126.137254902" y="184"/>
    </contour>
    <contour>
      <point x="223" y="382.6862745098" type="qcurve" smooth="yes"/>
      <point x="223" y="238.0588235294"/>
      <point x="440.7058823529" y="56.7450980392"/>
      <point x="617.8039215686" y="57.7450980392" type="qcurve" smooth="yes"/>
      <point x="795.5882352941" y="57.7450980392"/>
      <point x="1014.6666666667" y="227.3725490196"/>
      <point x="1014.6666666667" y="382.6862745098" type="qcurve" smooth="yes"/>
      <point x="1014.6666666667" y="523.3137254902"/>
      <point x="795.5882352941" y="701.6274509804"/>
      <point x="617.8039215686" y="701.6274509804" type="qcurve" smooth="yes"/>
      <point x="440.7058823529" y="700.6274509804"/>
      <point x="223" y="524"/>
    </contour>
    <contour>
      <point x="271.1176470588" y="1090.3137254902" type="qcurve" smooth="yes"/>
      <point x="271.1176470588" y="959.6862745098"/>
      <point x="463.7647058824" y="789.3725490196"/>
      <point x="617.8039215686" y="788.3725490196" type="qcurve" smooth="yes"/>
      <point x="772.5294117647" y="788.3725490196"/>
      <point x="965.862745098" y="959.6862745098"/>
      <point x="965.862745098" y="1090.3137254902" type="qcurve" smooth="yes"/>
      <point x="965.862745098" y="1224.9411764706"/>
      <point x="772.5294117647" y="1398.2549019608"/>
      <point x="617.8039215686" y="1398.2549019608" type="qcurve" smooth="yes"/>
      <point x="463.7647058824" y="1399.2549019608"/>
      <point x="271.1176470588" y="1224.9411764706"/>
    </contour>
  </outline>
</glyph>
<glyph name="colon" format="2">
  <advance width="500"/>
  <unicode hex="003A"/>
  <outline>
    <contour>
      <point x="176.0" y="69.05882352941177" type="qcurve" smooth="yes"/>
      <point x="176.0" y="112.74509803921569"/>
      <point x="217.37254901960785" y="160.11764705882354"/>
      <point x="250.4313725490196" y="160.11764705882354" type="qcurve" smooth="yes"/>
      <point x="283.4901960784314" y="160.11764705882354"/>
      <point x="323.8627450980392" y="112.74509803921569"/>
      <point x="323.8627450980392" y="69.05882352941177" type="qcurve" smooth="yes"/>
      <point x="323.8627450980392" y="25.372549019607842"/>
      <point x="283.4901960784314" y="-22.0"/>
      <point x="250.4313725490196" y="-22.0" type="qcurve" smooth="yes"/>
      <point x="218.05882352941177" y="-22.0"/>
      <point x="176.0" y="25.372549019607842"/>
    </contour>
    <contour>
      <point x="176.0" y="976.9411764705883" type="qcurve" smooth="yes"/>
      <point x="176.0" y="1021.3137254901961"/>
      <point x="217.37254901960785" y="1068.0"/>
      <point x="250.4313725490196" y="1068.0" type="qcurve" smooth="yes"/>
      <point x="283.4901960784314" y="1068.0"/>
      <point x="323.8627450980392" y="1021.3137254901961"/>
      <point x="323.8627450980392" y="976.9411764705883" type="qcurve" smooth="yes"/>
      <point x="323.8627450980392" y="933.2549019607843"/>
      <point x="283.4901960784314" y="885.8823529411765"/>
      <point x="250.4313725490196" y="885.8823529411765" type="qcurve" smooth="yes"/>
      <point x="218.05882352941177" y="885.8823529411765"/>
      <point x="176.0" y="933.2549019607843"/>
    </contour>
  </outline>
</glyph>
<glyph name="semicolon" format="2">
	<unicode hex="003B"/>
	<advance width="500"/>
	<outline>
		<contour>
			<point x="154.04" y="-160.8925490196" type="line"/>
			<point x="184.1725490196" y="-113.8862745098"/>
			<point x="213.9725490196" y="-13.8737254902"/>
			<point x="213.9725490196" y="52.3325490196" type="qcurve" smooth="yes"/>
			<point x="213.9725490196" y="163.591372549" type="line"/>
			<point x="318.1701960784" y="163.591372549" type="line"/>
			<point x="318.1701960784" y="52.3325490196" type="line" smooth="yes"/>
			<point x="318.1701960784" y="-29.12"/>
			<point x="267.3639215686" y="-155.3388235294"/>
			<point x="221.771372549" y="-204.6650980392" type="qcurve"/>
		</contour>
		<contour>
			<point x="176" y="976.9411764706" type="qcurve" smooth="yes"/>
			<point x="176" y="1021.3137254902"/>
			<point x="217.3725490196" y="1068"/>
			<point x="250.431372549" y="1068" type="qcurve" smooth="yes"/>
			<point x="283.4901960784" y="1068"/>
			<point x="323.862745098" y="1021.3137254902"/>
			<point x="323.862745098" y="976.9411764706" type="qcurve" smooth="yes"/>
			<point x="323.862745098" y="933.2549019608"/>
			<point x="283.4901960784" y="885.8823529412"/>
			<point x="250.431372549" y="885.8823529412" type="qcurve" smooth="yes"/>
			<point x="218.0588235294" y="885.8823529412"/>
			<point x="176" y="933.2549019608"/>
		</contour>
	</outline>
</glyph>
<glyph name="less" format="2">
	<unicode hex="003C"/>
	<advance width="1373"/>
	<outline>
		<contour>
			<point x="1143.4243137255" y="246.7811764706" type="line"/>
			<point x="220.0392156863" y="629.8737254902" type="line"/>
			<point x="220.0392156863" y="720.871372549" type="line"/>
			<point x="1143.4243137255" y="1103.9639215686" type="line"/>
			<point x="1143.4243137255" y="1000.9450980392" type="line"/>
			<point x="336.5521568627" y="671.9411764706" type="line"/>
			<point x="1143.4243137255" y="342.937254902" type="line"/>
		</contour>
	</outline>
</glyph>
<glyph name="equal" format="2">
	<unicode hex="003D"/>
	<advance width="1379"/>
	<outline>
		<contour>
			<point x="262.5960784314" y="437.6376470588" type="line"/>
			<point x="262.5960784314" y="524.1176470588" type="line"/>
			<point x="1116.2776470588" y="524.1176470588" type="line"/>
			<point x="1116.2776470588" y="437.6376470588" type="line"/>
		</contour>
		<contour>
			<point x="262.5960784314" y="838.9803921569" type="line"/>
			<point x="262.5960784314" y="925.4603921569" type="line"/>
			<point x="1116.2776470588" y="925.4603921569" type="line"/>
			<point x="1116.2776470588" y="838.9803921569" type="line"/>
		</contour>
	</outline>
</glyph>
<glyph name="greater" format="2">
	<unicode hex="003E"/>
	<advance width="1373"/>
	<outline>
		<contour>
			<point x="229.4117647059" y="246.7811764706" type="line"/>
			<point x="229.4117647059" y="349.8" type="line"/>
			<point x="1036.2839215686" y="678.8039215686" type="line"/>
			<point x="229.4117647059" y="1007.8078431373" type="line"/>
			<point x="229.4117647059" y="1103.9639215686" type="line"/>
			<point x="1152.7968627451" y="720.871372549" type="line"/>
			<point x="1152.7968627451" y="629.8737254902" type="line"/>
		</contour>
	</outline>
</glyph>
<glyph name="question" format="2">
  <advance width="790"/>
  <unicode hex="003F"/>
  <outline>
    <contour>
      <point x="270.9450980392157" y="69.13882352941177" type="qcurve" smooth="yes"/>
      <point x="270.9450980392157" y="106.5850980392157"/>
      <point x="309.62392156862745" y="160.27764705882353"/>
      <point x="345.78274509803924" y="160.27764705882353" type="qcurve" smooth="yes"/>
      <point x="381.25529411764705" y="160.27764705882353"/>
      <point x="419.9341176470588" y="106.5850980392157"/>
      <point x="419.9341176470588" y="69.13882352941177" type="qcurve" smooth="yes"/>
      <point x="419.9341176470588" y="31.692549019607842"/>
      <point x="381.25529411764705" y="-22.0"/>
      <point x="345.78274509803924" y="-22.0" type="qcurve" smooth="yes"/>
      <point x="309.62392156862745" y="-22.0"/>
      <point x="270.9450980392157" y="31.692549019607842"/>
    </contour>
    <contour>
      <point x="11.698823529411776" y="1092.9411764705883" type="line"/>
      <point x="11.698823529411776" y="1112.9411764705883" type="line" smooth="yes"/>
      <point x="11.698823529411776" y="1272.2698039215686"/>
      <point x="211.3458823529412" y="1476.0"/>
      <point x="384.3678431372549" y="1476.0" type="qcurve" smooth="yes"/>
      <point x="555.3835294117647" y="1476.0"/>
      <point x="749.5043137254902" y="1275.8698039215685"/>
      <point x="749.5043137254902" y="1132.6274509803923" type="qcurve" smooth="yes"/>
      <point x="749.5043137254902" y="997.5662745098039"/>
      <point x="643.7090196078431" y="822.8925490196078"/>
      <point x="554.6737254901961" y="734.4125490196078" type="qcurve" smooth="yes"/>
      <point x="455.74078431372544" y="635.4149019607843"/>
      <point x="390.24039215686275" y="500.1850980392157"/>
      <point x="390.24039215686275" y="421.37254901960785" type="qcurve" smooth="yes"/>
      <point x="390.24039215686275" y="411.37254901960785" type="line"/>
      <point x="293.6313725490196" y="411.37254901960785" type="line"/>
      <point x="293.6313725490196" y="421.37254901960785" type="line" smooth="yes"/>
      <point x="293.6313725490196" y="537.1788235294117"/>
      <point x="385.4105882352941" y="696.2839215686274"/>
      <point x="472.28078431372546" y="781.3537254901961" type="qcurve" smooth="yes"/>
      <point x="560.9086274509805" y="871.32"/>
      <point x="653.5815686274509" y="1019.8737254901961"/>
      <point x="653.5815686274509" y="1132.6274509803923" type="qcurve" smooth="yes"/>
      <point x="653.5815686274509" y="1240.6698039215687"/>
      <point x="519.6847058823529" y="1387.4149019607844"/>
      <point x="384.3678431372549" y="1387.4149019607844" type="qcurve" smooth="yes"/>
      <point x="249.21098039215684" y="1387.4149019607844"/>
      <point x="108.0478431372549" y="1239.1098039215685"/>
      <point x="108.0478431372549" y="1112.9411764705883" type="qcurve" smooth="yes"/>
      <point x="108.0478431372549" y="1092.9411764705883" type="line"/>
    </contour>
  </outline>
</glyph>
<glyph name="A" format="2">
	<unicode hex="0041"/>
	<advance width="1272"/>
	<outline>
		<contour>
			<point x="0" y="0" type="line"/>
			<point x="575.0392156863" y="1466" type="line"/>
			<point x="697.3725490196" y="1466" type="line"/>
			<point x="1272.0392156863" y="0" type="line"/>
			<point x="1164.7450980392" y="0" type="line"/>
			<point x="700.4901960784" y="1223.8823529412" type="line" smooth="yes"/>
			<point x="681" y="1268.8039215686"/>
			<point x="650.7647058824" y="1351.5294117647"/>
			<point x="638.3333333333" y="1393.0196078431" type="qcurve"/>
			<point x="626.9607843137" y="1393.0196078431" type="line"/>
			<point x="614.5294117647" y="1351.5294117647"/>
			<point x="583.2941176471" y="1268.8039215686"/>
			<point x="565.4901960784" y="1223.8823529412" type="qcurve" smooth="yes"/>
			<point x="99.2352941176" y="0" type="line"/>
		</contour>
		<contour>
			<point x="211.0980392157" y="418.2549019608" type="line"/>
			<point x="247.2745098039" y="500.6862745098" type="line"/>
			<point x="1021.3921568627" y="500.6862745098" type="line"/>
			<point x="1057.2549019608" y="418.2549019608" type="line"/>
		</contour>
	</outline>
</glyph>
<glyph name="C" format="2">
	<unicode hex="0043"/>
	<advance width="1257"/>
	<outline>
		<contour>
			<point x="115" y="697.0941176471" type="qcurve" smooth="yes"/>
			<point x="115" y="758.9058823529" type="line" smooth="yes"/>
			<point x="115" y="1112.2439215686"/>
			<point x="448.2411764706" y="1486"/>
			<point x="700.3196078431" y="1486" type="qcurve" smooth="yes"/>
			<point x="948.0654901961" y="1486"/>
			<point x="1193.6109803922" y="1209.0815686275"/>
			<point x="1228.7090196078" y="998.6274509804" type="qcurve" smooth="yes"/>
			<point x="1230.3952941176" y="988.6274509804" type="line"/>
			<point x="1132.9125490196" y="988.6274509804" type="line"/>
			<point x="1131.2262745098" y="998.6274509804" type="line" smooth="yes"/>
			<point x="1107.3447058824" y="1143.0698039216"/>
			<point x="912.6086871835" y="1396.088627451"/>
			<point x="700.3196078431" y="1396.088627451" type="qcurve" smooth="yes"/>
			<point x="485.6614035088" y="1396.088627451"/>
			<point x="213.002745098" y="1052.4933333333"/>
			<point x="213.002745098" y="758.9058823529" type="qcurve" smooth="yes"/>
			<point x="213.002745098" y="697.0941176471" type="line" smooth="yes"/>
			<point x="213.002745098" y="381.5435465865"/>
			<point x="486.3476780186" y="59.911372549"/>
			<point x="700.3196078431" y="59.911372549" type="qcurve" smooth="yes"/>
			<point x="920.1577067913" y="59.911372549"/>
			<point x="1117.6388235294" y="310.871372549"/>
			<point x="1131.9125490196" y="457.3725490196" type="qcurve" smooth="yes"/>
			<point x="1132.9125490196" y="467.3725490196" type="line"/>
			<point x="1230.3952941176" y="467.3725490196" type="line"/>
			<point x="1229.3952941176" y="457.3725490196" type="line" smooth="yes"/>
			<point x="1208.022745098" y="246.2321568627"/>
			<point x="948.0654901961" y="-30"/>
			<point x="700.3196078431" y="-30" type="qcurve" smooth="yes"/>
			<point x="448.2411764706" y="-30"/>
			<point x="115" y="336.868164794"/>
		</contour>
	</outline>
</glyph>
<glyph name="D" format="2">
  <advance width="1314"/>
  <unicode hex="0044"/>
  <outline>
    <contour>
      <point x="170.0" y="0.0" type="line"/>
      <point x="170.0" y="1456.0" type="line"/>
      <point x="561.0815686274509" y="1456.0" type="line" smooth="yes"/>
      <point x="842.0462745098039" y="1456.0"/>
      <point x="1199.752549019608" y="1090.9639215686275"/>
      <point x="1199.752549019608" y="758.9058823529413" type="qcurve" smooth="yes"/>
      <point x="1199.752549019608" y="697.0941176470587" type="line" smooth="yes"/>
      <point x="1199.752549019608" y="365.1044544997486"/>
      <point x="842.0462745098039" y="0.0"/>
      <point x="561.0815686274509" y="0.0" type="qcurve" smooth="yes"/>
    </contour>
    <contour>
      <point x="266.7427450980392" y="87.9913725490196" type="line"/>
      <point x="561.0815686274509" y="87.9913725490196" type="line" smooth="yes"/>
      <point x="808.4726105076177" y="87.9913725490196"/>
      <point x="1101.7498039215686" y="401.1786274509804"/>
      <point x="1101.7498039215686" y="697.0941176470587" type="qcurve" smooth="yes"/>
      <point x="1101.7498039215686" y="758.9058823529413" type="line" smooth="yes"/>
      <point x="1101.7498039215686" y="1054.8713725490197"/>
      <point x="808.4726105076177" y="1368.0086274509804"/>
      <point x="561.0815686274509" y="1368.0086274509804" type="qcurve" smooth="yes"/>
      <point x="266.7427450980392" y="1368.0086274509804" type="line"/>
    </contour>
  </outline>
</glyph>
<glyph name="G" format="2">
  <advance width="1280"/>
  <unicode hex="0047"/>
  <outline>
    <contour>
      <point x="115.0" y="697.0941176470587" type="qcurve" smooth="yes"/>
      <point x="115.0" y="758.9058823529413" type="line" smooth="yes"/>
      <point x="115.0" y="1112.2439215686275"/>
      <point x="448.24117647058824" y="1486.0"/>
      <point x="691.3980392156863" y="1486.0" type="qcurve" smooth="yes"/>
      <point x="948.0654901960784" y="1486.0"/>
      <point x="1210.4901960784314" y="1231.6274509803923"/>
      <point x="1232.555294117647" y="1037.9411764705883" type="qcurve" smooth="yes"/>
      <point x="1234.241568627451" y="1028.6274509803923" type="line"/>
      <point x="1136.7588235294118" y="1028.6274509803923" type="line"/>
      <point x="1134.386274509804" y="1038.6274509803923" type="line" smooth="yes"/>
      <point x="1113.137254901961" y="1178.6274509803923"/>
      <point x="914.6341227957266" y="1396.0886274509803"/>
      <point x="692.7705882352941" y="1396.0886274509803" type="qcurve" smooth="yes"/>
      <point x="486.34767801857583" y="1396.0886274509803"/>
      <point x="213.0027450980392" y="1067.5913725490198"/>
      <point x="213.0027450980392" y="758.9058823529413" type="qcurve" smooth="yes"/>
      <point x="213.0027450980392" y="697.0941176470587" type="line" smooth="yes"/>
      <point x="213.0027450980392" y="388.406291684557"/>
      <point x="486.04413294900536" y="59.911372549019596"/>
      <point x="734.3447058823529" y="59.911372549019596" type="qcurve" smooth="yes"/>
      <point x="864.8029361252698" y="59.911372549019596"/>
      <point x="1056.9958968065807" y="120.18029125420065"/>
      <point x="1142.0188235294117" y="185.83137254901962" type="qcurve"/>
      <point x="1142.0188235294117" y="602.6274509803922" type="line"/>
      <point x="711.4858823529412" y="602.6274509803922" type="line"/>
      <point x="711.4858823529412" y="690.6188235294117" type="line"/>
      <point x="1234.241568627451" y="690.6188235294117" type="line"/>
      <point x="1234.241568627451" y="147.77254901960785" type="line"/>
      <point x="1161.0988235294117" y="77.77254901960785"/>
      <point x="913.2264037433155" y="-30.0"/>
      <point x="734.3447058823529" y="-30.0" type="qcurve" smooth="yes"/>
      <point x="451.14745098039214" y="-30.0"/>
      <point x="115.0" y="343.7309098920467"/>
    </contour>
  </outline>
</glyph>
<glyph name="H" format="2">
  <advance width="1408"/>
  <unicode hex="0048"/>
  <outline>
    <contour>
      <point x="170.0" y="0.0" type="line"/>
      <point x="170.0" y="1456.0" type="line"/>
      <point x="266.7427450980392" y="1456.0" type="line"/>
      <point x="266.7427450980392" y="794.6525490196078" type="line"/>
      <point x="1141.6211764705884" y="794.6525490196078" type="line"/>
      <point x="1141.6211764705884" y="1456.0" type="line"/>
      <point x="1237.6776470588234" y="1456.0" type="line"/>
      <point x="1237.6776470588234" y="0.0" type="line"/>
      <point x="1141.6211764705884" y="0.0" type="line"/>
      <point x="1141.6211764705884" y="707.3474509803922" type="line"/>
      <point x="266.7427450980392" y="707.3474509803922" type="line"/>
      <point x="266.7427450980392" y="0.0" type="line"/>
    </contour>
  </outline>
</glyph>
<glyph name="L" format="2">
  <advance width="1001"/>
  <unicode hex="004C"/>
  <outline>
    <contour>
      <point x="170" y="0" type="line"/>
      <point x="170" y="1456" type="line"/>
      <point x="266.742745098" y="1456" type="line"/>
      <point x="266.742745098" y="87.991372549" type="line"/>
      <point x="997.7105882353" y="87.991372549" type="line"/>
      <point x="997.7105882353" y="0" type="line"/>
    </contour>
  </outline>
</glyph>
<glyph name="N" format="2">
  <advance width="1412"/>
  <unicode hex="004E"/>
  <outline>
    <contour>
      <point x="170.0" y="0.0" type="line"/>
      <point x="170.0" y="1456.0" type="line"/>
      <point x="284.2352941176471" y="1456.0" type="line"/>
      <point x="1075.137254901961" y="232.49019607843138" type="line" smooth="yes"/>
      <point x="1094.5098039215686" y="201.49019607843138"/>
      <point x="1130.5686274509803" y="140.49019607843138"/>
      <point x="1144.9411764705883" y="116.17647058823529" type="qcurve"/>
      <point x="1152.9411764705883" y="116.17647058823529" type="line"/>
      <point x="1150.5686274509803" y="146.1764705882353"/>
      <point x="1148.1960784313726" y="200.49019607843138"/>
      <point x="1148.1960784313726" y="230.49019607843138" type="qcurve" smooth="yes"/>
      <point x="1148.1960784313726" y="1456.0" type="line"/>
      <point x="1242.166274509804" y="1456.0" type="line"/>
      <point x="1242.166274509804" y="0.0" type="line"/>
      <point x="1127.078431372549" y="0.0" type="line"/>
      <point x="334.54901960784315" y="1227.137254901961" type="line" smooth="yes"/>
      <point x="315.1764705882353" y="1258.137254901961"/>
      <point x="270.05882352941177" y="1327.137254901961"/>
      <point x="263.05882352941177" y="1348.450980392157" type="qcurve"/>
      <point x="254.37254901960785" y="1348.450980392157" type="line"/>
      <point x="258.7450980392157" y="1316.450980392157"/>
      <point x="263.11764705882354" y="1237.137254901961"/>
      <point x="263.11764705882354" y="1207.137254901961" type="qcurve" smooth="yes"/>
      <point x="263.11764705882354" y="0.0" type="line"/>
    </contour>
  </outline>
</glyph>
<glyph name="O" format="2">
  <advance width="1423"/>
  <unicode hex="004F"/>
  <outline>
    <contour>
      <point x="115.0" y="697.0941176470587" type="qcurve" smooth="yes"/>
      <point x="115.0" y="758.9058823529413" type="line" smooth="yes"/>
      <point x="115.0" y="1112.2439215686275"/>
      <point x="448.24117647058824" y="1486.0"/>
      <point x="711.4858823529412" y="1486.0" type="qcurve" smooth="yes"/>
      <point x="973.8843137254902" y="1486.0"/>
      <point x="1307.9717647058824" y="1112.2439215686275"/>
      <point x="1307.9717647058824" y="758.9058823529413" type="qcurve" smooth="yes"/>
      <point x="1307.9717647058824" y="697.0941176470587" type="line" smooth="yes"/>
      <point x="1307.9717647058824" y="343.7309098920467"/>
      <point x="973.8843137254902" y="-30.0"/>
      <point x="711.4858823529412" y="-30.0" type="qcurve" smooth="yes"/>
      <point x="448.92745098039217" y="-30.0"/>
      <point x="115.0" y="343.7309098920467"/>
    </contour>
    <contour>
      <point x="213.0027450980392" y="697.0941176470587" type="line" smooth="yes"/>
      <point x="213.0027450980392" y="384.326291684557"/>
      <point x="487.71889808394843" y="59.911372549019596"/>
      <point x="711.4858823529412" y="59.911372549019596" type="qcurve" smooth="yes"/>
      <point x="935.0779616789682" y="59.911372549019596"/>
      <point x="1209.9690196078432" y="384.326291684557"/>
      <point x="1209.9690196078432" y="697.0941176470587" type="qcurve" smooth="yes"/>
      <point x="1209.9690196078432" y="758.9058823529413" type="line" smooth="yes"/>
      <point x="1209.9690196078432" y="1071.6713725490197"/>
      <point x="935.0779616789682" y="1396.0886274509803"/>
      <point x="711.4858823529412" y="1396.0886274509803" type="qcurve" smooth="yes"/>
      <point x="487.71889808394843" y="1396.0886274509803"/>
      <point x="213.0027450980392" y="1071.6713725490197"/>
      <point x="213.0027450980392" y="758.9058823529413" type="qcurve" smooth="yes"/>
    </contour>
  </outline>
</glyph>
<glyph name="P" format="2">
  <advance width="1133"/>
  <unicode hex="0050"/>
  <outline>
    <contour>
      <point x="170.0" y="0.0" type="line"/>
      <point x="170.0" y="1456.0" type="line"/>
      <point x="617.2792156862745" y="1456.0" type="line" smooth="yes"/>
      <point x="850.2525490196078" y="1456.0"/>
      <point x="1083.150980392157" y="1224.5764705882355"/>
      <point x="1083.150980392157" y="1028.5811764705884" type="qcurve" smooth="yes"/>
      <point x="1083.150980392157" y="833.9584313725491"/>
      <point x="850.2525490196078" y="601.2549019607843"/>
      <point x="617.2792156862745" y="601.2549019607843" type="qcurve" smooth="yes"/>
      <point x="266.7427450980392" y="601.2549019607843" type="line"/>
      <point x="266.7427450980392" y="0.0" type="line"/>
    </contour>
    <contour>
      <point x="266.7427450980392" y="688.56" type="line"/>
      <point x="617.2792156862745" y="688.56" type="line" smooth="yes"/>
      <point x="821.5947479724874" y="688.56"/>
      <point x="985.6682352941176" y="877.2509803921569"/>
      <point x="985.6682352941176" y="1028.5811764705884" type="qcurve" smooth="yes"/>
      <point x="985.6682352941176" y="1180.5976470588234"/>
      <point x="821.5947479724874" y="1368.0086274509804"/>
      <point x="617.2792156862745" y="1368.0086274509804" type="qcurve" smooth="yes"/>
      <point x="266.7427450980392" y="1368.0086274509804" type="line"/>
    </contour>
  </outline>
</glyph>
<glyph name="R" format="2">
  <advance width="1178"/>
  <unicode hex="0052"/>
  <outline>
    <contour>
      <point x="170.0" y="0.0" type="line"/>
      <point x="170.0" y="1456.0" type="line"/>
      <point x="608.2729411764706" y="1456.0" type="line" smooth="yes"/>
      <point x="834.24" y="1456.0"/>
      <point x="1063.138431372549" y="1234.9701960784314"/>
      <point x="1063.138431372549" y="1042.9411764705883" type="qcurve" smooth="yes"/>
      <point x="1063.138431372549" y="850.9121568627451"/>
      <point x="834.24" y="628.6486274509805"/>
      <point x="608.2729411764706" y="628.6486274509805" type="qcurve" smooth="yes"/>
      <point x="266.7427450980392" y="628.6486274509805" type="line"/>
      <point x="266.7427450980392" y="0.0" type="line"/>
    </contour>
    <contour>
      <point x="266.7427450980392" y="716.0" type="line"/>
      <point x="608.2729411764706" y="716.0" type="line" smooth="yes"/>
      <point x="808.4629231584527" y="716.0"/>
      <point x="965.6556862745098" y="896.964705882353"/>
      <point x="965.6556862745098" y="1042.9411764705883" type="qcurve" smooth="yes"/>
      <point x="965.6556862745098" y="1188.9176470588234"/>
      <point x="808.4629231584527" y="1368.6486274509803"/>
      <point x="608.2729411764706" y="1368.6486274509803" type="qcurve" smooth="yes"/>
      <point x="266.7427450980392" y="1368.6486274509803" type="line"/>
    </contour>
    <contour>
      <point x="1017.4705882352941" y="0.0" type="line"/>
      <point x="617.2745098039215" y="672.0" type="line"/>
      <point x="729.8674509803922" y="672.0" type="line"/>
      <point x="1137.1960784313726" y="0.0" type="line"/>
    </contour>
  </outline>
</glyph>
<glyph name="T" format="2">
  <advance width="1152"/>
  <unicode hex="0054"/>
  <outline>
    <contour>
      <point x="24.0" y="1368.0086274509804" type="line"/>
      <point x="24.0" y="1456.0" type="line"/>
      <point x="1128.0588235294117" y="1456.0" type="line"/>
      <point x="1128.0588235294117" y="1368.0086274509804" type="line"/>
      <point x="624.4007843137255" y="1368.0086274509804" type="line"/>
      <point x="624.4007843137255" y="0.0" type="line"/>
      <point x="528.3443137254902" y="0.0" type="line"/>
      <point x="528.3443137254902" y="1368.0086274509804" type="line"/>
    </contour>
  </outline>
</glyph>
<glyph name="U" format="2">
  <advance width="1306"/>
  <unicode hex="0055"/>
  <outline>
    <contour>
      <point x="155.0" y="498.5882352941176" type="qcurve" smooth="yes"/>
      <point x="155.0" y="1456.0" type="line"/>
      <point x="251.0564705882353" y="1456.0" type="line"/>
      <point x="251.0564705882353" y="498.5882352941176" type="line" smooth="yes"/>
      <point x="251.0564705882353" y="276.17904761904765"/>
      <point x="477.48270859656515" y="59.911372549019596"/>
      <point x="653.156862745098" y="59.911372549019596" type="qcurve" smooth="yes"/>
      <point x="827.2801385184144" y="59.911372549019596"/>
      <point x="1053.884705882353" y="276.17904761904765"/>
      <point x="1053.884705882353" y="498.5882352941176" type="qcurve" smooth="yes"/>
      <point x="1053.884705882353" y="1456.0" type="line"/>
      <point x="1150.627450980392" y="1456.0" type="line"/>
      <point x="1150.627450980392" y="498.5882352941176" type="line" smooth="yes"/>
      <point x="1150.627450980392" y="234.2941176470588"/>
      <point x="863.2713725490196" y="-30.0"/>
      <point x="652.4705882352941" y="-30.0" type="qcurve" smooth="yes"/>
      <point x="442.3560784313725" y="-30.0"/>
      <point x="155.0" y="234.2941176470588"/>
    </contour>
  </outline>
</glyph>
<glyph name="W" format="2">
	<unicode hex="0057"/>
	<advance width="1882"/>
	<outline>
		<contour>
			<point x="459.1764705882" y="-10" type="line"/>
			<point x="50" y="1456" type="line"/>
			<point x="153.9803921569" y="1456" type="line"/>
			<point x="477.8039215686" y="231.7058823529" type="line" smooth="yes"/>
			<point x="486.4901960784" y="197.7058823529"/>
			<point x="500.9803921569" y="142.9803921569"/>
			<point x="508.6666666667" y="109.9803921569" type="qcurve"/>
			<point x="515.2941176471" y="109.9803921569" type="line"/>
			<point x="521.2941176471" y="142.9803921569"/>
			<point x="534.0980392157" y="197.7058823529"/>
			<point x="543.0980392157" y="231.7058823529" type="qcurve" smooth="yes"/>
			<point x="885.0588235294" y="1456" type="line"/>
			<point x="1003.7058823529" y="1456" type="line"/>
			<point x="1347.2941176471" y="231.7058823529" type="line" smooth="yes"/>
			<point x="1356.9803921569" y="197.7058823529"/>
			<point x="1370.4117647059" y="142.9803921569"/>
			<point x="1378.0980392157" y="109.9803921569" type="qcurve"/>
			<point x="1385.4117647059" y="109.9803921569" type="line"/>
			<point x="1391.4117647059" y="142.9803921569"/>
			<point x="1402.8431372549" y="197.7058823529"/>
			<point x="1411.5294117647" y="231.7058823529" type="qcurve" smooth="yes"/>
			<point x="1734.0980392157" y="1456" type="line"/>
			<point x="1832.3333333333" y="1456" type="line"/>
			<point x="1423.1568627451" y="-10" type="line"/>
			<point x="1323.3725490196" y="-10" type="line"/>
			<point x="969.3529411765" y="1227.1568627451" type="line" smooth="yes"/>
			<point x="959.6666666667" y="1261.1568627451"/>
			<point x="943.862745098" y="1332.7450980392"/>
			<point x="940.5490196078" y="1355.7450980392" type="qcurve"/>
			<point x="932.5490196078" y="1355.7450980392" type="line"/>
			<point x="929.2352941176" y="1332.7450980392"/>
			<point x="913.431372549" y="1261.1568627451"/>
			<point x="904.431372549" y="1227.1568627451" type="qcurve" smooth="yes"/>
			<point x="558.9607843137" y="-10" type="line"/>
		</contour>
	</outline>
</glyph>
<glyph name="X" format="2">
  <advance width="1296"/>
  <unicode hex="0058"/>
  <outline>
    <contour>
      <point x="25.0" y="0.0" type="line"/>
      <point x="617.1458823529412" y="776.76" type="line"/>
      <point x="630.0360784313726" y="776.76" type="line"/>
      <point x="1122.2039215686275" y="1456.0" type="line"/>
      <point x="1241.6219607843138" y="1456.0" type="line"/>
      <point x="679.2411764705882" y="699.24" type="line"/>
      <point x="666.3509803921569" y="699.24" type="line"/>
      <point x="143.73176470588234" y="0.0" type="line"/>
    </contour>
    <contour>
      <point x="54.025098039215685" y="1456.0" type="line"/>
      <point x="182.6207843137255" y="1456.0" type="line"/>
      <point x="674.0486274509803" y="776.76" type="line"/>
      <point x="679.9811764705883" y="776.76" type="line"/>
      <point x="1269.9607843137255" y="0.0" type="line"/>
      <point x="1141.3650980392156" y="0.0" type="line"/>
      <point x="621.6521568627451" y="699.24" type="line"/>
      <point x="616.4058823529411" y="699.24" type="line"/>
    </contour>
  </outline>
</glyph>
<glyph name="Y" format="2">
  <advance width="1219"/>
  <unicode hex="0059"/>
  <outline>
    <contour>
      <point x="560.8031372549019" y="0.0" type="line"/>
      <point x="560.8031372549019" y="580.0211764705883" type="line"/>
      <point x="15.0" y="1456.0" type="line"/>
      <point x="132.41176470588235" y="1456.0" type="line"/>
      <point x="535.4117647058823" y="777.6274509803922" type="line" smooth="yes"/>
      <point x="553.4705882352941" y="747.6274509803922"/>
      <point x="588.9019607843137" y="680.7647058823529"/>
      <point x="606.2745098039215" y="648.7058823529412" type="qcurve"/>
      <point x="614.9607843137255" y="648.7058823529412" type="line"/>
      <point x="632.0196078431372" y="680.7647058823529"/>
      <point x="664.4509803921569" y="747.6274509803922"/>
      <point x="682.8235294117648" y="777.6274509803922" type="qcurve" smooth="yes"/>
      <point x="1090.7960784313725" y="1456.0" type="line"/>
      <point x="1203.349019607843" y="1456.0" type="line"/>
      <point x="656.8596078431373" y="580.0211764705883" type="line"/>
      <point x="656.8596078431373" y="0.0" type="line"/>
    </contour>
  </outline>
</glyph>
<glyph name="Z" format="2">
  <advance width="1144"/>
  <unicode hex="005A"/>
  <outline>
    <contour>
      <point x="16.098039215686274" y="0.0" type="line"/>
      <point x="16.098039215686274" y="69.30509803921568" type="line"/>
      <point x="954.4007843137255" y="1368.0086274509804" type="line"/>
      <point x="29.950588235294113" y="1368.0086274509804" type="line"/>
      <point x="29.950588235294113" y="1456.0" type="line"/>
      <point x="1092.922745098039" y="1456.0" type="line"/>
      <point x="1092.922745098039" y="1386.6949019607844" type="line"/>
      <point x="154.62" y="87.9913725490196" type="line"/>
      <point x="1128.9478431372547" y="87.9913725490196" type="line"/>
      <point x="1128.9478431372547" y="0.0" type="line"/>
    </contour>
  </outline>
</glyph>
<glyph name="bracketleft" format="2">
	<unicode hex="005B"/>
	<advance width="527"/>
	<outline>
		<contour>
			<point x="144" y="-310" type="line"/>
			<point x="144" y="1456" type="line"/>
			<point x="590.1929411765" y="1456" type="line"/>
			<point x="590.1929411765" y="1368.0549019608" type="line"/>
			<point x="238.9764705882" y="1368.0549019608" type="line"/>
			<point x="238.9764705882" y="-222.0549019608" type="line"/>
			<point x="590.1929411765" y="-222.0549019608" type="line"/>
			<point x="590.1929411765" y="-310" type="line"/>
		</contour>
	</outline>
</glyph>
<glyph name="bracketright" format="2">
  <advance width="527"/>
  <unicode hex="005D"/>
  <outline>
    <contour>
      <point x="382.34901960784316" y="-310.0" type="line"/>
      <point x="-64.53019607843136" y="-310.0" type="line"/>
      <point x="-64.53019607843136" y="-222.05490196078432" type="line"/>
      <point x="286.6862745098039" y="-222.05490196078432" type="line"/>
      <point x="286.6862745098039" y="1368.0549019607843" type="line"/>
      <point x="-64.53019607843136" y="1368.0549019607843" type="line"/>
      <point x="-64.53019607843136" y="1456.0" type="line"/>
      <point x="382.34901960784316" y="1456.0" type="line"/>
    </contour>
  </outline>
</glyph>
<glyph name="asciicircum" format="2">
	<unicode hex="005E"/>
	<advance width="1223"/>
	<outline>
		<contour>
			<point x="25" y="720" type="line"/>
			<point x="570.4392156863" y="1456" type="line"/>
			<point x="652.4745098039" y="1456" type="line"/>
			<point x="1197.9137254902" y="720" type="line"/>
			<point x="1085.8784313725" y="720" type="line"/>
			<point x="611.4568627451" y="1372.1552941176" type="line"/>
			<point x="137.0352941176" y="720" type="line"/>
		</contour>
	</outline>
</glyph>
<glyph name="underscore" format="2">
  <advance width="972"/>
  <unicode hex="005F"/>
  <outline>
    <contour>
      <point x="0.0" y="-86.80392156862744" type="line"/>
      <point x="0.0" y="-1.17647058823529" type="line"/>
      <point x="971.9803921568628" y="-1.17647058823529" type="line"/>
      <point x="971.9803921568628" y="-86.80392156862744" type="line"/>
    </contour>
  </outline>
</glyph>
<glyph name="a" format="2">
	<unicode hex="0061"/>
	<advance width="1090"/>
	<outline>
		<contour>
			<point x="90" y="290" type="qcurve" smooth="yes"/>
			<point x="90" y="446.5490196078"/>
			<point x="337.3137254902" y="615.3725490196"/>
			<point x="529.7647058824" y="615.3725490196" type="qcurve" smooth="yes"/>
			<point x="844.9215686275" y="615.3725490196" type="line"/>
			<point x="844.9215686275" y="720" type="line" smooth="yes"/>
			<point x="844.9215686275" y="844.6274509804"/>
			<point x="713.9607843137" y="998.2549019608"/>
			<point x="553.5098039216" y="998.2549019608" type="qcurve" smooth="yes"/>
			<point x="394.0588235294" y="998.2549019608"/>
			<point x="256.7254901961" y="867.4901960784"/>
			<point x="256.7254901961" y="769.3137254902" type="qcurve" smooth="yes"/>
			<point x="256.7254901961" y="764.3137254902" type="line"/>
			<point x="165.5490196078" y="764.3137254902" type="line"/>
			<point x="165.5490196078" y="769.3137254902" type="line" smooth="yes"/>
			<point x="165.5490196078" y="904.1764705882"/>
			<point x="372.1176470588" y="1082"/>
			<point x="560.1960784314" y="1082" type="qcurve" smooth="yes"/>
			<point x="740.2745098039" y="1082"/>
			<point x="939.7843137255" y="900"/>
			<point x="939.7843137255" y="720" type="qcurve" smooth="yes"/>
			<point x="939.7843137255" y="240" type="line" smooth="yes"/>
			<point x="939.7843137255" y="175"/>
			<point x="962.8431372549" y="60"/>
			<point x="983.9019607843" y="16" type="qcurve"/>
			<point x="983.9019607843" y="0" type="line"/>
			<point x="896.4117647059" y="0" type="line"/>
			<point x="878.0392156863" y="28"/>
			<point x="851.6078431373" y="120"/>
			<point x="847.6078431373" y="165" type="qcurve"/>
			<point x="804.1176470588" y="98.6274509804"/>
			<point x="596.1176470588" y="-20"/>
			<point x="443.0392156863" y="-20" type="qcurve" smooth="yes"/>
			<point x="287.8235294118" y="-20"/>
			<point x="90" y="129.137254902"/>
		</contour>
		<contour>
			<point x="184.1764705882" y="293" type="qcurve" smooth="yes"/>
			<point x="184.1764705882" y="176.5098039216"/>
			<point x="323.1960784314" y="63.7450980392"/>
			<point x="469.9019607843" y="63.7450980392" type="qcurve" smooth="yes"/>
			<point x="614.2352941176" y="63.7450980392"/>
			<point x="844.9215686275" y="241.0588235294"/>
			<point x="844.9215686275" y="343.0588235294" type="qcurve"/>
			<point x="844.9215686275" y="536.6274509804" type="line"/>
			<point x="553.5098039216" y="536.6274509804" type="line" smooth="yes"/>
			<point x="371.6862745098" y="536.6274509804"/>
			<point x="184.1764705882" y="409.1764705882"/>
		</contour>
	</outline>
</glyph>
<glyph name="b" format="2">
  <advance width="1155"/>
  <unicode hex="0062"/>
  <outline>
    <contour>
      <point x="148.0" y="0.0" type="line"/>
      <point x="148.0" y="1536.0" type="line"/>
      <point x="242.4964705882353" y="1536.0" type="line"/>
      <point x="242.4964705882353" y="912.9058823529413" type="line"/>
      <point x="302.74421295903835" y="982.6716725097368"/>
      <point x="492.0115227367543" y="1072.0"/>
      <point x="623.073725490196" y="1072.0" type="qcurve" smooth="yes"/>
      <point x="831.758431372549" y="1072.0"/>
      <point x="1068.9333333333332" y="772.0"/>
      <point x="1068.9333333333332" y="542.0" type="qcurve" smooth="yes"/>
      <point x="1068.9333333333332" y="510.0" type="line" smooth="yes"/>
      <point x="1068.9333333333332" y="280.0"/>
      <point x="831.758431372549" y="-20.0"/>
      <point x="623.073725490196" y="-20.0" type="qcurve" smooth="yes"/>
      <point x="492.0559318306762" y="-20.0"/>
      <point x="289.78773149799156" y="82.41644112865714"/>
      <point x="237.6501960784314" y="152.09411764705882" type="qcurve"/>
      <point x="237.46901960784317" y="152.09411764705882" type="line"/>
      <point x="234.22274509803924" y="0.0" type="line"/>
    </contour>
    <contour>
      <point x="242.4964705882353" y="262.52549019607847" type="line"/>
      <point x="283.3228587225452" y="185.60171621261784"/>
      <point x="465.87174238801214" y="66.75764705882352"/>
      <point x="596.1709803921569" y="66.75764705882352" type="qcurve" smooth="yes"/>
      <point x="792.012907335523" y="66.75764705882352"/>
      <point x="972.7105882352942" y="315.2698039215686"/>
      <point x="972.7105882352942" y="510.0" type="qcurve" smooth="yes"/>
      <point x="972.7105882352942" y="542.0" type="line" smooth="yes"/>
      <point x="972.7105882352942" y="736.7301960784314"/>
      <point x="792.012907335523" y="985.2423529411765"/>
      <point x="596.1709803921569" y="985.2423529411765" type="qcurve" smooth="yes"/>
      <point x="465.87174238801214" y="985.2423529411765"/>
      <point x="283.30833496317683" y="866.373857464808"/>
      <point x="242.4964705882353" y="789.4745098039216" type="qcurve"/>
    </contour>
  </outline>
</glyph>
<glyph name="c" format="2">
	<unicode hex="0063"/>
	<advance width="993"/>
	<outline>
		<contour>
			<point x="85" y="510" type="qcurve" smooth="yes"/>
			<point x="85" y="542" type="line" smooth="yes"/>
			<point x="85" y="780"/>
			<point x="341.6862745098" y="1082"/>
			<point x="564.568627451" y="1082" type="qcurve" smooth="yes"/>
			<point x="772.0784313725" y="1082"/>
			<point x="980.5882352941" y="857.3137254902"/>
			<point x="980.5882352941" y="713.6274509804" type="qcurve" smooth="yes"/>
			<point x="980.5882352941" y="708.6274509804" type="line"/>
			<point x="890.4117647059" y="708.6274509804" type="line"/>
			<point x="890.4117647059" y="713.6274509804" type="line" smooth="yes"/>
			<point x="890.4117647059" y="831.8039215686"/>
			<point x="735.0196078431" y="995.568627451"/>
			<point x="564.568627451" y="995.568627451" type="qcurve" smooth="yes"/>
			<point x="368.6862745098" y="995.568627451"/>
			<point x="180.1764705882" y="739.4901960784"/>
			<point x="180.1764705882" y="542" type="qcurve" smooth="yes"/>
			<point x="180.1764705882" y="510" type="line" smooth="yes"/>
			<point x="180.1764705882" y="311.5098039216"/>
			<point x="371.6862745098" y="56.431372549"/>
			<point x="564.568627451" y="56.431372549" type="qcurve" smooth="yes"/>
			<point x="735.0196078431" y="56.431372549"/>
			<point x="890.4117647059" y="220.1960784314"/>
			<point x="890.4117647059" y="338.3725490196" type="qcurve" smooth="yes"/>
			<point x="890.4117647059" y="343.3725490196" type="line"/>
			<point x="980.5882352941" y="343.3725490196" type="line"/>
			<point x="980.5882352941" y="338.3725490196" type="line" smooth="yes"/>
			<point x="980.5882352941" y="194.6862745098"/>
			<point x="772.0784313725" y="-30"/>
			<point x="564.568627451" y="-30" type="qcurve" smooth="yes"/>
			<point x="341.6862745098" y="-30"/>
			<point x="85" y="272"/>
		</contour>
	</outline>
</glyph>
<glyph name="d" format="2">
	<unicode hex="0064"/>
	<advance width="1155"/>
	<outline>
		<contour>
			<point x="85" y="510" type="qcurve" smooth="yes"/>
			<point x="85" y="542" type="line" smooth="yes"/>
			<point x="85" y="772"/>
			<point x="322.1749019608" y="1072"/>
			<point x="530.8596078431" y="1072" type="qcurve" smooth="yes"/>
			<point x="662.6466666667" y="1072"/>
			<point x="851.9290196078" y="982.7435294118"/>
			<point x="911.4368627451" y="912.9058823529" type="qcurve"/>
			<point x="911.4368627451" y="1536" type="line"/>
			<point x="1006.6196078431" y="1536" type="line"/>
			<point x="1006.6196078431" y="0" type="line"/>
			<point x="920.3968627451" y="0" type="line"/>
			<point x="916.4643137255" y="152.0941176471" type="line"/>
			<point x="915.5968627451" y="152.0941176471" type="line"/>
			<point x="864.1015686275" y="82.4164705882"/>
			<point x="662.4866666667" y="-20"/>
			<point x="530.8596078431" y="-20" type="qcurve" smooth="yes"/>
			<point x="322.1749019608" y="-20"/>
			<point x="85" y="280"/>
		</contour>
		<contour>
			<point x="180.5364705882" y="510" type="line" smooth="yes"/>
			<point x="180.5364705882" y="315.2698039216"/>
			<point x="362.64" y="66.7576470588"/>
			<point x="557.0760784314" y="66.7576470588" type="qcurve" smooth="yes"/>
			<point x="688.1105882353" y="66.7576470588"/>
			<point x="871.2203921569" y="185.6478431373"/>
			<point x="911.4368627451" y="262.5254901961" type="qcurve"/>
			<point x="911.4368627451" y="789.4745098039" type="line"/>
			<point x="871.3803921569" y="866.3521568627"/>
			<point x="688.1105882353" y="985.2423529412"/>
			<point x="557.0760784314" y="985.2423529412" type="qcurve" smooth="yes"/>
			<point x="362.64" y="985.2423529412"/>
			<point x="180.5364705882" y="736.7301960784"/>
			<point x="180.5364705882" y="542" type="qcurve" smooth="yes"/>
		</contour>
	</outline>
</glyph>
<glyph name="e" format="2">
  <advance width="1042"/>
  <unicode hex="0065"/>
  <outline>
    <contour>
      <point x="85.0" y="510.0" type="qcurve" smooth="yes"/>
      <point x="85.0" y="542.0" type="line" smooth="yes"/>
      <point x="85.0" y="780.0"/>
      <point x="341.6862745098039" y="1082.0"/>
      <point x="553.1960784313726" y="1082.0" type="qcurve" smooth="yes"/>
      <point x="761.7058823529412" y="1082.0"/>
      <point x="986.2745098039215" y="812.0"/>
      <point x="986.2745098039215" y="560.0" type="qcurve" smooth="yes"/>
      <point x="986.2745098039215" y="515.9411764705883" type="line"/>
      <point x="131.31372549019608" y="515.9411764705883" type="line"/>
      <point x="131.31372549019608" y="599.3725490196078" type="line"/>
      <point x="891.0980392156863" y="599.3725490196078" type="line"/>
      <point x="891.0980392156863" y="593.5294117647059" type="line" smooth="yes"/>
      <point x="891.0980392156863" y="795.6274509803922"/>
      <point x="726.9411764705883" y="994.8823529411765"/>
      <point x="547.7058823529412" y="994.8823529411765" type="qcurve" smooth="yes"/>
      <point x="369.0" y="994.8823529411765"/>
      <point x="178.80392156862746" y="741.4901960784314"/>
      <point x="178.80392156862746" y="542.0" type="qcurve" smooth="yes"/>
      <point x="178.80392156862746" y="510.0" type="line" smooth="yes"/>
      <point x="178.80392156862746" y="311.5098039215686"/>
      <point x="376.37254901960785" y="57.11764705882353"/>
      <point x="587.6274509803922" y="57.11764705882353" type="qcurve" smooth="yes"/>
      <point x="699.4705882352941" y="57.11764705882353"/>
      <point x="857.2352941176471" y="134.49019607843138"/>
      <point x="912.0980392156863" y="199.1764705882353" type="qcurve"/>
      <point x="976.5294117647059" y="138.0" type="line"/>
      <point x="925.0392156862745" y="73.0"/>
      <point x="729.5294117647059" y="-30.0"/>
      <point x="587.6274509803922" y="-30.0" type="qcurve" smooth="yes"/>
      <point x="344.6862745098039" y="-30.0"/>
      <point x="85.0" y="272.0"/>
    </contour>
  </outline>
</glyph>
<glyph name="f" format="2">
  <advance width="614"/>
  <unicode hex="0066"/>
  <anchor x="307.0" y="0" name="bottom"/>
  <anchor x="307.0" y="1556" name="top"/>
  <outline>
    <contour>
      <point x="244.1411764706" y="0" type="line"/>
      <point x="244.1411764706" y="1177.1294117647" type="line" smooth="yes"/>
      <point x="244.1411764706" y="1361.8065212602"/>
      <point x="418.3773119726" y="1556"/>
      <point x="568.7325490196" y="1556" type="qcurve" smooth="yes"/>
      <point x="603.1239215686" y="1556"/>
      <point x="673.6392156863" y="1546.64"/>
      <point x="704.3905882353" y="1540" type="qcurve"/>
      <point x="693.0643137255" y="1458.6549019608" type="line"/>
      <point x="670.1592156863" y="1463.3349019608"/>
      <point x="608.142745098" y="1472.0549019608"/>
      <point x="577.111372549" y="1472.0549019608" type="qcurve" smooth="yes"/>
      <point x="462.9181176471" y="1472.0549019608"/>
      <point x="337.951372549" y="1324.5921568627"/>
      <point x="337.951372549" y="1177.1294117647" type="qcurve" smooth="yes"/>
      <point x="337.951372549" y="1017.8274509804" type="line"/>
      <point x="337.951372549" y="1003.9874509804" type="line"/>
      <point x="337.951372549" y="0" type="line"/>
    </contour>
    <contour>
      <point x="25" y="968.4423529412" type="line"/>
      <point x="25" y="1052" type="line"/>
      <point x="275.328627451" y="1052" type="line"/>
      <point x="304.751372549" y="1052" type="line"/>
      <point x="624.3152941176" y="1052" type="line"/>
      <point x="624.3152941176" y="968.4423529412" type="line"/>
    </contour>
  </outline>
</glyph>
<glyph name="g" format="2">
	<unicode hex="0067"/>
	<advance width="1155"/>
	<outline>
		<contour>
			<point x="130.142745098" y="-318" type="qcurve"/>
			<point x="178.5725490196" y="-239.8549019608" type="line"/>
			<point x="231.3141176471" y="-286.2274509804"/>
			<point x="423.6952941176" y="-347.4149019608"/>
			<point x="534.7435294118" y="-347.4149019608" type="qcurve" smooth="yes"/>
			<point x="709.1547163068" y="-347.4149019608"/>
			<point x="911.4368627451" y="-153.2949019608"/>
			<point x="911.4368627451" y="22.7450980392" type="qcurve" smooth="yes"/>
			<point x="911.4368627451" y="139.0941176471" type="line"/>
			<point x="851.9290196078" y="69.2564705882"/>
			<point x="662.6466666667" y="-20"/>
			<point x="530.8596078431" y="-20" type="qcurve" smooth="yes"/>
			<point x="322.1749019608" y="-20"/>
			<point x="85" y="280"/>
			<point x="85" y="510" type="qcurve" smooth="yes"/>
			<point x="85" y="542" type="line" smooth="yes"/>
			<point x="85" y="772"/>
			<point x="322.1749019608" y="1072"/>
			<point x="530.8596078431" y="1072" type="qcurve" smooth="yes"/>
			<point x="662.4866666667" y="1072"/>
			<point x="864.1015686275" y="969.5835294118"/>
			<point x="915.5968627451" y="899.9058823529" type="qcurve"/>
			<point x="916.4643137255" y="899.9058823529" type="line"/>
			<point x="920.3968627451" y="1052" type="line"/>
			<point x="1006.6196078431" y="1052" type="line"/>
			<point x="1006.6196078431" y="22.7450980392" type="line" smooth="yes"/>
			<point x="1006.6196078431" y="-198.6274509804"/>
			<point x="747.2270588235" y="-436"/>
			<point x="539.9035294118" y="-436" type="qcurve" smooth="yes"/>
			<point x="414.3003921569" y="-436"/>
			<point x="203.7905882353" y="-370.4"/>
		</contour>
		<contour>
			<point x="180.5364705882" y="510" type="line" smooth="yes"/>
			<point x="180.5364705882" y="315.2698039216"/>
			<point x="362.64" y="66.7576470588"/>
			<point x="557.0760784314" y="66.7576470588" type="qcurve" smooth="yes"/>
			<point x="688.1105882353" y="66.7576470588"/>
			<point x="871.3803921569" y="185.6478431373"/>
			<point x="911.4368627451" y="262.5254901961" type="qcurve"/>
			<point x="911.4368627451" y="789.4745098039" type="line"/>
			<point x="871.2203921569" y="866.3521568627"/>
			<point x="688.1105882353" y="985.2423529412"/>
			<point x="557.0760784314" y="985.2423529412" type="qcurve" smooth="yes"/>
			<point x="362.64" y="985.2423529412"/>
			<point x="180.5364705882" y="736.7301960784"/>
			<point x="180.5364705882" y="542" type="qcurve" smooth="yes"/>
		</contour>
	</outline>
</glyph>
<glyph name="h" format="2">
  <advance width="1110"/>
  <unicode hex="0068"/>
  <anchor x="555.0" y="0" name="bottom"/>
  <anchor x="318.0" y="1304.0" name="center"/>
  <anchor x="194.0" y="1537" name="top"/>
  <outline>
    <contour>
      <point x="148" y="0" type="line"/>
      <point x="148" y="1536" type="line"/>
      <point x="242.4964705882" y="1536" type="line"/>
      <point x="242.4964705882" y="889.6392156863" type="line"/>
      <point x="310.8545098039" y="977.897254902"/>
      <point x="491.4952941176" y="1072"/>
      <point x="611.7447058824" y="1072" type="qcurve" smooth="yes"/>
      <point x="782.0470588235" y="1072"/>
      <point x="971.7992156863" y="897.7631372549"/>
      <point x="971.7992156863" y="693.2549019608" type="qcurve" smooth="yes"/>
      <point x="971.7992156863" y="0" type="line"/>
      <point x="876.6164705882" y="0" type="line"/>
      <point x="876.6164705882" y="695.2549019608" type="line" smooth="yes"/>
      <point x="876.6164705882" y="850.4643137255"/>
      <point x="726.0643137255" y="984.648627451"/>
      <point x="587.0047058824" y="984.648627451" type="qcurve" smooth="yes"/>
      <point x="469.9890196078" y="984.648627451"/>
      <point x="296.4905882353" y="868.6619607843"/>
      <point x="242.4964705882" y="778.3803921569" type="qcurve"/>
      <point x="242.4964705882" y="0" type="line"/>
    </contour>
  </outline>
</glyph>
<glyph name="i" format="2">
  <advance width="408"/>
  <unicode hex="0069"/>
  <anchor x="204.0" y="0" name="bottom"/>
  <anchor x="204.0" y="1052" name="top"/>
  <anchor x="199" y="0" name="ogonek"/>
  <outline>
    <contour>
      <point x="157" y="0" type="line"/>
      <point x="157" y="1052" type="line"/>
      <point x="251.4964705882" y="1052" type="line"/>
      <point x="251.4964705882" y="0" type="line"/>
    </contour>
    <contour>
      <point x="142.7450980392" y="1396.5011764706" type="qcurve" smooth="yes"/>
      <point x="142.7450980392" y="1428.5749019608"/>
      <point x="174.5850980392" y="1472.568627451"/>
      <point x="203.9050980392" y="1472.568627451" type="qcurve" smooth="yes"/>
      <point x="233.2250980392" y="1472.568627451"/>
      <point x="265.0650980392" y="1428.5749019608"/>
      <point x="265.0650980392" y="1396.5011764706" type="qcurve" smooth="yes"/>
      <point x="265.0650980392" y="1363.7411764706"/>
      <point x="233.2250980392" y="1320.4337254902"/>
      <point x="204.591372549" y="1320.4337254902" type="qcurve" smooth="yes"/>
      <point x="175.271372549" y="1320.4337254902"/>
      <point x="142.7450980392" y="1363.7411764706"/>
    </contour>
  </outline>
</glyph>
<glyph name="j" format="2">
  <advance width="408"/>
  <unicode hex="006A"/>
  <anchor x="204.0" y="-436" name="bottom"/>
  <anchor x="204.0" y="1052" name="top"/>
  <outline>
    <contour>
      <point x="-156.5490196078" y="-414" type="qcurve"/>
      <point x="-156.5490196078" y="-330.2549019608" type="line"/>
      <point x="-135.8039215686" y="-336.2549019608"/>
      <point x="-61.1960784314" y="-349.2549019608"/>
      <point x="-31.7647058824" y="-349.2549019608" type="qcurve" smooth="yes"/>
      <point x="57.5882352941" y="-349.2549019608"/>
      <point x="157" y="-245.2549019608"/>
      <point x="157" y="-127.2549019608" type="qcurve" smooth="yes"/>
      <point x="157" y="1052" type="line"/>
      <point x="251.1764705882" y="1052" type="line"/>
      <point x="251.1764705882" y="-90" type="line" smooth="yes"/>
      <point x="251.1764705882" y="-270"/>
      <point x="112.9607843137" y="-436"/>
      <point x="-20.568627451" y="-436" type="qcurve" smooth="yes"/>
      <point x="-58.0588235294" y="-436"/>
      <point x="-134.4901960784" y="-420.3137254902"/>
    </contour>
    <contour>
      <point x="142.7450980392" y="1396.9411764706" type="qcurve" smooth="yes"/>
      <point x="142.7450980392" y="1428.2549019608"/>
      <point x="174.7450980392" y="1472.568627451"/>
      <point x="203.7450980392" y="1472.568627451" type="qcurve" smooth="yes"/>
      <point x="232.7450980392" y="1472.568627451"/>
      <point x="264.7450980392" y="1428.2549019608"/>
      <point x="264.7450980392" y="1396.9411764706" type="qcurve" smooth="yes"/>
      <point x="264.7450980392" y="1363.9411764706"/>
      <point x="232.7450980392" y="1320.3137254902"/>
      <point x="204.431372549" y="1320.3137254902" type="qcurve" smooth="yes"/>
      <point x="175.431372549" y="1320.3137254902"/>
      <point x="142.7450980392" y="1363.9411764706"/>
    </contour>
  </outline>
</glyph>
<glyph name="k" format="2">
	<unicode hex="006B"/>
	<advance width="1029"/>
	<outline>
		<contour>
			<point x="148" y="0" type="line"/>
			<point x="148" y="1536" type="line"/>
			<point x="242.4964705882" y="1536" type="line"/>
			<point x="242.4964705882" y="541.5662745098" type="line"/>
			<point x="839.6078431373" y="1052" type="line"/>
			<point x="985.9878431373" y="1052" type="line"/>
			<point x="242.1764705882" y="433.7450980392" type="line"/>
			<point x="242.1764705882" y="0" type="line"/>
		</contour>
		<contour>
			<point x="908.3960784314" y="0" type="line"/>
			<point x="380.7388235294" y="595.2266666667" type="line"/>
			<point x="458.0168627451" y="658.6078431373" type="line"/>
			<point x="1044.7843137255" y="0" type="line"/>
		</contour>
	</outline>
</glyph>
<glyph name="m" format="2">
	<unicode hex="006D"/>
	<advance width="1798"/>
	<outline>
		<contour>
			<point x="148" y="0" type="line"/>
			<point x="148" y="1052" type="line"/>
			<point x="234.222745098" y="1052" type="line"/>
			<point x="237.4690196078" y="886.8117647059" type="line"/>
			<point x="237.6501960784" y="886.8117647059" type="line"/>
			<point x="306.5882352941" y="976.057254902"/>
			<point x="491.3580392157" y="1072"/>
			<point x="609.98" y="1072" type="qcurve" smooth="yes"/>
			<point x="724.6317647059" y="1072"/>
			<point x="888.5188235294" y="976.217254902"/>
			<point x="922.982745098" y="880.9945098039" type="qcurve"/>
			<point x="923.3239215686" y="880.9945098039" type="line"/>
			<point x="994.5986382389" y="977.7736052233"/>
			<point x="1190.3986928105" y="1072"/>
			<point x="1311.651372549" y="1072" type="qcurve" smooth="yes"/>
			<point x="1470.4942258283" y="1072"/>
			<point x="1660.4156862745" y="897.7631372549"/>
			<point x="1660.4156862745" y="693.2549019608" type="qcurve" smooth="yes"/>
			<point x="1660.4156862745" y="0" type="line"/>
			<point x="1566.6054901961" y="0" type="line"/>
			<point x="1566.6054901961" y="695.2549019608" type="line" smooth="yes"/>
			<point x="1564.7529411765" y="850.4643137255"/>
			<point x="1420.3670588235" y="984.648627451"/>
			<point x="1286.3074509804" y="984.648627451" type="qcurve" smooth="yes"/>
			<point x="1172.2917647059" y="984.648627451"/>
			<point x="1005.6333333333" y="867.1356862745"/>
			<point x="951.7992156863" y="778.3803921569" type="qcurve"/>
			<point x="951.7992156863" y="0" type="line"/>
			<point x="856.6164705882" y="0" type="line"/>
			<point x="856.6164705882" y="695.2549019608" type="line" smooth="yes"/>
			<point x="855.4501960784" y="850.4643137255"/>
			<point x="710.3780392157" y="984.648627451"/>
			<point x="577.0047058824" y="984.648627451" type="qcurve" smooth="yes"/>
			<point x="463.6752941176" y="984.648627451"/>
			<point x="296.3305882353" y="867.1356862745"/>
			<point x="242.4964705882" y="778.3803921569" type="qcurve"/>
			<point x="242.4964705882" y="0" type="line"/>
		</contour>
	</outline>
</glyph>
<glyph name="o" format="2">
	<unicode hex="006F"/>
	<advance width="1154"/>
	<outline>
		<contour>
			<point x="85" y="510" type="qcurve" smooth="yes"/>
			<point x="85" y="542" type="line" smooth="yes"/>
			<point x="85" y="780"/>
			<point x="352.9788235294" y="1082"/>
			<point x="576.9411764706" y="1082" type="qcurve" smooth="yes"/>
			<point x="800.9035294118" y="1082"/>
			<point x="1068.8823529412" y="780"/>
			<point x="1068.8823529412" y="542" type="qcurve" smooth="yes"/>
			<point x="1068.8823529412" y="510" type="line" smooth="yes"/>
			<point x="1068.8823529412" y="272"/>
			<point x="800.9035294118" y="-30"/>
			<point x="576.9411764706" y="-30" type="qcurve" smooth="yes"/>
			<point x="352.9788235294" y="-30"/>
			<point x="85" y="272"/>
		</contour>
		<contour>
			<point x="180.5364705882" y="542" type="qcurve" smooth="yes"/>
			<point x="180.5364705882" y="510" type="line" smooth="yes"/>
			<point x="180.5364705882" y="312.9560784314"/>
			<point x="382.1450980392" y="56.7576470588"/>
			<point x="576.9411764706" y="56.7576470588" type="qcurve" smooth="yes"/>
			<point x="771.737254902" y="56.7576470588"/>
			<point x="973.3458823529" y="312.9560784314"/>
			<point x="973.3458823529" y="510" type="qcurve" smooth="yes"/>
			<point x="973.3458823529" y="542" type="line" smooth="yes"/>
			<point x="973.3458823529" y="739.0439215686"/>
			<point x="771.737254902" y="995.2423529412"/>
			<point x="576.9411764706" y="995.2423529412" type="qcurve" smooth="yes"/>
			<point x="382.1450980392" y="995.2423529412"/>
			<point x="180.5364705882" y="739.0439215686"/>
		</contour>
	</outline>
</glyph>
<glyph name="q" format="2">
  <advance width="1155"/>
  <unicode hex="0071"/>
  <outline>
    <contour>
      <point x="85.0" y="510.0" type="qcurve" smooth="yes"/>
      <point x="85.0" y="542.0" type="line" smooth="yes"/>
      <point x="85.0" y="772.0"/>
      <point x="322.2549019607843" y="1072.0"/>
      <point x="531.0196078431372" y="1072.0" type="qcurve" smooth="yes"/>
      <point x="662.6666666666666" y="1072.0"/>
      <point x="863.9215686274509" y="969.8235294117648"/>
      <point x="915.156862745098" y="899.7058823529412" type="qcurve"/>
      <point x="916.7843137254902" y="899.7058823529412" type="line"/>
      <point x="920.156862745098" y="1052.0" type="line"/>
      <point x="1007.0196078431372" y="1052.0" type="line"/>
      <point x="1007.0196078431372" y="-416.0" type="line"/>
      <point x="911.156862745098" y="-416.0" type="line"/>
      <point x="911.156862745098" y="139.2941176470588" type="line"/>
      <point x="911.156862745098" y="139.2941176470588" type="line"/>
      <point x="851.5490196078431" y="69.17647058823529"/>
      <point x="662.6666666666666" y="-20.0"/>
      <point x="531.0196078431372" y="-20.0" type="qcurve" smooth="yes"/>
      <point x="322.2549019607843" y="-20.0"/>
      <point x="85.0" y="280.0"/>
    </contour>
    <contour>
      <point x="180.53647058823532" y="510.0" type="line" smooth="yes"/>
      <point x="180.53647058823532" y="315.2698039215686"/>
      <point x="362.64" y="66.75764705882352"/>
      <point x="557.0760784313726" y="66.75764705882352" type="qcurve" smooth="yes"/>
      <point x="688.1105882352941" y="66.75764705882352"/>
      <point x="871.3803921568627" y="185.64784313725488"/>
      <point x="911.436862745098" y="262.52549019607847" type="qcurve"/>
      <point x="911.436862745098" y="789.4745098039216" type="line"/>
      <point x="871.2203921568628" y="866.3521568627451"/>
      <point x="688.1105882352941" y="985.2423529411765"/>
      <point x="557.0760784313726" y="985.2423529411765" type="qcurve" smooth="yes"/>
      <point x="362.64" y="985.2423529411765"/>
      <point x="180.53647058823532" y="736.7301960784314"/>
      <point x="180.53647058823532" y="542.0" type="qcurve" smooth="yes"/>
    </contour>
  </outline>
</glyph>
<glyph name="r" format="2">
  <advance width="703"/>
  <unicode hex="0072"/>
  <outline>
    <contour>
      <point x="148.0" y="0.0" type="line"/>
      <point x="148.0" y="1052.0" type="line"/>
      <point x="234.22274509803924" y="1052.0" type="line"/>
      <point x="237.46901960784317" y="896.8745098039216" type="line"/>
      <point x="237.6501960784314" y="896.8745098039216" type="line"/>
      <point x="291.487489054018" y="970.1303441056792"/>
      <point x="460.79781591956896" y="1082.0"/>
      <point x="578.1521568627451" y="1082.0" type="qcurve" smooth="yes"/>
      <point x="604.1772549019607" y="1082.0"/>
      <point x="661.073725490196" y="1072.0"/>
      <point x="673.0862745098038" y="1068.0" type="qcurve"/>
      <point x="673.0862745098038" y="976.2023529411765" type="line"/>
      <point x="649.2211764705883" y="980.2023529411765"/>
      <point x="597.8572549019608" y="986.9223529411764"/>
      <point x="566.9858823529412" y="986.9223529411764" type="qcurve" smooth="yes"/>
      <point x="455.26792156862746" y="986.9223529411764"/>
      <point x="286.3400569908897" y="868.8460807494836"/>
      <point x="242.4964705882353" y="783.756862745098" type="qcurve"/>
      <point x="242.4964705882353" y="0.0" type="line"/>
    </contour>
  </outline>
</glyph>
<glyph name="t" format="2">
  <advance width="667"/>
  <unicode hex="0074"/>
  <outline>
    <contour>
      <point x="0.0" y="968.4423529411764" type="line"/>
      <point x="0.0" y="1052.0" type="line"/>
      <point x="617.1741176470588" y="1052.0" type="line"/>
      <point x="617.1741176470588" y="968.4423529411764" type="line"/>
    </contour>
    <contour>
      <point x="234.28862745098039" y="262.7450980392157" type="qcurve" smooth="yes"/>
      <point x="234.28862745098039" y="1002.7074509803922" type="line"/>
      <point x="234.28862745098039" y="1019.1074509803922" type="line"/>
      <point x="234.28862745098039" y="1312.0" type="line"/>
      <point x="328.78509803921565" y="1312.0" type="line"/>
      <point x="328.78509803921565" y="262.7450980392157" type="line" smooth="yes"/>
      <point x="328.78509803921565" y="152.6250980392157"/>
      <point x="404.42039215686276" y="57.94509803921567"/>
      <point x="484.9019607843137" y="57.94509803921567" type="qcurve" smooth="yes"/>
      <point x="515.6596078431372" y="57.94509803921567"/>
      <point x="571.6360784313725" y="68.58509803921568"/>
      <point x="600.2274509803922" y="78.58509803921568" type="qcurve"/>
      <point x="600.2274509803922" y="-6.800000000000001" type="line"/>
      <point x="576.8784877797043" y="-16.0011907444375"/>
      <point x="504.287976254722" y="-30.0"/>
      <point x="460.47686274509806" y="-30.0" type="qcurve" smooth="yes"/>
      <point x="356.36546955624357" y="-30.0"/>
      <point x="234.28862745098039" y="111.37254901960785"/>
    </contour>
  </outline>
</glyph>
<glyph name="u" format="2">
	<unicode hex="0075"/>
	<advance width="1110"/>
	<outline>
		<contour>
			<point x="138" y="358.7450980392" type="qcurve" smooth="yes"/>
			<point x="138" y="1052" type="line"/>
			<point x="232.4964705882" y="1052" type="line"/>
			<point x="232.4964705882" y="356.7450980392" type="line" smooth="yes"/>
			<point x="232.4964705882" y="201.5356862745"/>
			<point x="383.7349019608" y="67.351372549"/>
			<point x="522.1082352941" y="67.351372549" type="qcurve" smooth="yes"/>
			<point x="639.1239215686" y="67.351372549"/>
			<point x="812.6223529412" y="183.3380392157"/>
			<point x="866.6164705882" y="273.6196078431" type="qcurve"/>
			<point x="866.6164705882" y="1052" type="line"/>
			<point x="961.7992156863" y="1052" type="line"/>
			<point x="961.7992156863" y="0" type="line"/>
			<point x="875.5764705882" y="0" type="line"/>
			<point x="871.6439215686" y="165.1882352941" type="line"/>
			<point x="871.462745098" y="165.1882352941" type="line"/>
			<point x="802.9509803922" y="74.2564705882"/>
			<point x="611.4411764706" y="-20"/>
			<point x="489.8192156863" y="-20" type="qcurve" smooth="yes"/>
			<point x="327.7521568627" y="-20"/>
			<point x="138" y="154.2368627451"/>
		</contour>
	</outline>
</glyph>
<glyph name="v" format="2">
  <advance width="1018"/>
  <unicode hex="0076"/>
  <outline>
    <contour>
      <point x="0" y="1052" type="line"/>
      <point x="106.4117647059" y="1052" type="line"/>
      <point x="458.4117647059" y="223.7450980392" type="line" smooth="yes"/>
      <point x="476.1568627451" y="183.7450980392"/>
      <point x="498.0196078431" y="125.8823529412"/>
      <point x="506.137254902" y="94.1568627451" type="qcurve"/>
      <point x="513.137254902" y="94.1568627451" type="line"/>
      <point x="521.9411764706" y="125.8823529412"/>
      <point x="543.8039215686" y="183.7450980392"/>
      <point x="560.862745098" y="223.7450980392" type="qcurve" smooth="yes"/>
      <point x="913.9215686275" y="1052" type="line"/>
      <point x="1017.5882352941" y="1052" type="line"/>
      <point x="554.0537254902" y="0" type="line"/>
      <point x="464.2745098039" y="0" type="line"/>
    </contour>
  </outline>
</glyph>
<glyph name="x" format="2">
  <advance width="1030"/>
  <unicode hex="0078"/>
  <anchor x="515.0" y="0" name="bottom"/>
  <anchor x="515.0" y="1052" name="top"/>
  <outline>
    <contour>
      <point x="20" y="0" type="line"/>
      <point x="472.7380392157" y="561.6" type="line"/>
      <point x="486.6470588235" y="562" type="line"/>
      <point x="867.8760784314" y="1052" type="line"/>
      <point x="986.7678431373" y="1052" type="line"/>
      <point x="551.0109803922" y="504.4" type="line"/>
      <point x="536.9019607843" y="504" type="line"/>
      <point x="139.0517647059" y="0" type="line"/>
    </contour>
    <contour>
      <point x="44.0250980392" y="1052" type="line"/>
      <point x="168.9819607843" y="1052" type="line"/>
      <point x="548.7058823529" y="568" type="line"/>
      <point x="556.2549019608" y="569" type="line"/>
      <point x="1010.7929411765" y="0" type="line"/>
      <point x="885.1498039216" y="0" type="line"/>
      <point x="487.4509803922" y="504" type="line"/>
      <point x="479.7819607843" y="504.4" type="line"/>
    </contour>
  </outline>
</glyph>
<glyph name="y" format="2">
  <advance width="1120"/>
  <unicode hex="0079"/>
  <outline>
    <contour>
      <point x="136.86274509803923" y="-416.0" type="qcurve"/>
      <point x="136.86274509803923" y="-332.2549019607843" type="line"/>
      <point x="167.98039215686273" y="-340.2549019607843"/>
      <point x="241.2156862745098" y="-352.2549019607843"/>
      <point x="272.6470588235294" y="-352.2549019607843" type="qcurve" smooth="yes"/>
      <point x="353.3137254901961" y="-352.2549019607843"/>
      <point x="452.1764705882353" y="-263.156862745098"/>
      <point x="560.9607843137255" y="5.431372549019608" type="qcurve"/>
      <point x="560.9607843137255" y="5.431372549019608" type="line"/>
      <point x="99.0" y="1052.0" type="line"/>
      <point x="207.41176470588235" y="1052.0" type="line"/>
      <point x="562.2156862745098" y="211.88235294117646" type="line" smooth="yes"/>
      <point x="575.9607843137255" y="182.88235294117646"/>
      <point x="596.4509803921569" y="131.01960784313727"/>
      <point x="607.8235294117648" y="94.15686274509804" type="qcurve"/>
      <point x="614.8235294117648" y="94.15686274509804" type="line"/>
      <point x="626.1960784313726" y="131.01960784313727"/>
      <point x="645.313725490196" y="182.88235294117646"/>
      <point x="658.3725490196078" y="211.88235294117646" type="qcurve" smooth="yes"/>
      <point x="1016.6666666666666" y="1052.0" type="line"/>
      <point x="1118.3333333333333" y="1052.0" type="line"/>
      <point x="616.7058823529412" y="-79.0" type="line" smooth="yes"/>
      <point x="532.4705882352941" y="-275.62745098039215"/>
      <point x="399.05882352941177" y="-436.0"/>
      <point x="277.70588235294116" y="-436.0" type="qcurve" smooth="yes"/>
      <point x="233.2156862745098" y="-436.0"/>
      <point x="167.98039215686273" y="-425.0"/>
    </contour>
  </outline>
</glyph>
<glyph name="braceleft" format="2">
	<unicode hex="007B"/>
	<advance width="609"/>
	<outline>
		<contour>
			<point x="627.911372549" y="-312" type="line"/>
			<point x="404.0501960784" y="-312"/>
			<point x="169.2533333333" y="-45.12"/>
			<point x="222.2949019608" y="143.1254901961" type="qcurve" smooth="yes"/>
			<point x="274.6274509804" y="332.6274509804" type="line" smooth="yes"/>
			<point x="307.0862745098" y="455.2674509804"/>
			<point x="162.3921568627" y="533.8274509804"/>
			<point x="37.6768627451" y="533.8274509804" type="qcurve"/>
			<point x="37.6768627451" y="614.1725490196" type="line"/>
			<point x="162.3921568627" y="614.1725490196"/>
			<point x="307.0862745098" y="692.7325490196"/>
			<point x="274.6274509804" y="815.3725490196" type="qcurve" smooth="yes"/>
			<point x="222.2949019608" y="1004.8745098039" type="line" smooth="yes"/>
			<point x="169.2533333333" y="1193.12"/>
			<point x="404.0501960784" y="1460"/>
			<point x="627.911372549" y="1460" type="qcurve"/>
			<point x="627.911372549" y="1376.5349019608" type="line"/>
			<point x="432.4564705882" y="1376.5349019608"/>
			<point x="272.388627451" y="1166.6023529412"/>
			<point x="318.271372549" y="1003.5019607843" type="qcurve" smooth="yes"/>
			<point x="371.2901960784" y="814" type="line" smooth="yes"/>
			<point x="394.4690196078" y="731.0062745098"/>
			<point x="321.622745098" y="594.968627451"/>
			<point x="225.4752941176" y="574" type="qcurve"/>
			<point x="321.622745098" y="553.031372549"/>
			<point x="393.462745098" y="417.84"/>
			<point x="371.2901960784" y="334" type="qcurve" smooth="yes"/>
			<point x="318.271372549" y="144.4980392157" type="line" smooth="yes"/>
			<point x="272.388627451" y="-18.6023529412"/>
			<point x="432.4564705882" y="-228.5349019608"/>
			<point x="627.911372549" y="-228.5349019608" type="qcurve"/>
		</contour>
	</outline>
</glyph>
<glyph name="bar" format="2">
  <advance width="506"/>
  <unicode hex="007C"/>
  <outline>
    <contour>
      <point x="210.0" y="-416.0" type="line"/>
      <point x="210.0" y="1401.0980392156862" type="line"/>
      <point x="295.83764705882356" y="1401.0980392156862" type="line"/>
      <point x="295.83764705882356" y="-416.0" type="line"/>
    </contour>
  </outline>
</glyph>
<glyph name="braceright" format="2">
  <advance width="609"/>
  <unicode hex="007D"/>
  <outline>
    <contour>
      <point x="-19.307450980392147" y="-312.0" type="qcurve"/>
      <point x="-19.307450980392147" y="-228.5349019607843" type="line"/>
      <point x="176.14745098039216" y="-228.5349019607843"/>
      <point x="336.901568627451" y="-18.602352941176473"/>
      <point x="290.3325490196078" y="144.49803921568628" type="qcurve" smooth="yes"/>
      <point x="238.0" y="334.0" type="line" smooth="yes"/>
      <point x="215.82745098039214" y="417.84"/>
      <point x="286.98117647058825" y="553.0313725490196"/>
      <point x="383.8149019607843" y="574.0" type="qcurve"/>
      <point x="286.98117647058825" y="594.9686274509804"/>
      <point x="215.82745098039214" y="730.16"/>
      <point x="238.0" y="814.0" type="qcurve" smooth="yes"/>
      <point x="290.3325490196078" y="1003.5019607843137" type="line" smooth="yes"/>
      <point x="336.901568627451" y="1166.6023529411766"/>
      <point x="176.14745098039216" y="1376.5349019607843"/>
      <point x="-19.307450980392147" y="1376.5349019607843" type="qcurve"/>
      <point x="-19.307450980392147" y="1460.0" type="line"/>
      <point x="204.5537254901961" y="1460.0"/>
      <point x="440.036862745098" y="1193.12"/>
      <point x="386.99529411764706" y="1004.8745098039216" type="qcurve" smooth="yes"/>
      <point x="333.9764705882353" y="815.3725490196078" type="line" smooth="yes"/>
      <point x="301.5176470588235" y="692.7325490196079"/>
      <point x="446.2117647058824" y="614.1725490196078"/>
      <point x="571.6133333333333" y="614.1725490196078" type="qcurve"/>
      <point x="571.6133333333333" y="533.8274509803922" type="line"/>
      <point x="446.2117647058824" y="533.8274509803922"/>
      <point x="301.5176470588235" y="455.26745098039214"/>
      <point x="333.9764705882353" y="332.62745098039215" type="qcurve" smooth="yes"/>
      <point x="386.99529411764706" y="143.12549019607843" type="line" smooth="yes"/>
      <point x="440.036862745098" y="-45.120000000000005"/>
      <point x="204.5537254901961" y="-312.0"/>
    </contour>
  </outline>
</glyph>
<glyph name="asciitilde" format="2">
  <advance width="1413"/>
  <unicode hex="007E"/>
  <outline>
    <contour>
      <point x="240.68627450980392" y="594.0" type="qcurve"/>
      <point x="240.68627450980392" y="692.0" type="line"/>
      <point x="287.4313725490196" y="731.0"/>
      <point x="419.3529411764706" y="773.0"/>
      <point x="484.47058823529414" y="774.0" type="qcurve" smooth="yes"/>
      <point x="509.0" y="775.0"/>
      <point x="646.4509803921569" y="740.2549019607843"/>
      <point x="707.8823529411765" y="722.3137254901961" type="qcurve" smooth="yes"/>
      <point x="768.6274509803922" y="705.7450980392157"/>
      <point x="908.3921568627451" y="668.0"/>
      <point x="935.2941176470588" y="668.0" type="qcurve" smooth="yes"/>
      <point x="1000.4117647058823" y="668.0"/>
      <point x="1125.6470588235295" y="719.0"/>
      <point x="1172.3921568627452" y="764.0" type="qcurve"/>
      <point x="1172.3921568627452" y="664.0" type="line"/>
      <point x="1125.6470588235295" y="626.0"/>
      <point x="1001.4117647058823" y="582.0"/>
      <point x="936.2941176470588" y="582.0" type="qcurve" smooth="yes"/>
      <point x="914.7058823529412" y="582.0"/>
      <point x="794.2549019607843" y="609.7450980392157"/>
      <point x="740.8235294117648" y="623.3137254901961" type="qcurve" smooth="yes"/>
      <point x="672.0784313725491" y="644.2549019607843"/>
      <point x="514.313725490196" y="689.0"/>
      <point x="484.47058823529414" y="689.0" type="qcurve" smooth="yes"/>
      <point x="419.3529411764706" y="689.0"/>
      <point x="287.4313725490196" y="639.0"/>
    </contour>
  </outline>
</glyph>
<glyph name="copyright" format="2">
	<unicode hex="00A9"/>
	<advance width="1654"/>
	<outline>
		<contour>
			<point x="1115" y="523" type="qcurve"/>
			<point x="1199" y="523" type="line"/>
			<point x="1199" y="399"/>
			<point x="1020" y="205"/>
			<point x="842" y="205" type="qcurve" smooth="yes"/>
			<point x="650" y="205"/>
			<point x="429" y="467"/>
			<point x="429" y="673" type="qcurve" smooth="yes"/>
			<point x="429" y="701" type="line" smooth="yes"/>
			<point x="429" y="907"/>
			<point x="650" y="1168"/>
			<point x="842" y="1168" type="qcurve" smooth="yes"/>
			<point x="1020" y="1168"/>
			<point x="1199" y="974"/>
			<point x="1199" y="850" type="qcurve"/>
			<point x="1115" y="850" type="line"/>
			<point x="1115" y="947"/>
			<point x="985" y="1096"/>
			<point x="842" y="1096" type="qcurve" smooth="yes"/>
			<point x="677" y="1096"/>
			<point x="518" y="867"/>
			<point x="518" y="701" type="qcurve" smooth="yes"/>
			<point x="518" y="673" type="line" smooth="yes"/>
			<point x="518" y="506"/>
			<point x="680" y="277"/>
			<point x="842" y="277" type="qcurve" smooth="yes"/>
			<point x="985" y="277"/>
			<point x="1115" y="426"/>
		</contour>
		<contour>
			<point x="137" y="687" type="qcurve" smooth="yes"/>
			<point x="137" y="364"/>
			<point x="526" y="-53"/>
			<point x="828" y="-53" type="qcurve" smooth="yes"/>
			<point x="1129" y="-53"/>
			<point x="1517" y="364"/>
			<point x="1517" y="687" type="qcurve" smooth="yes"/>
			<point x="1517" y="1009"/>
			<point x="1129" y="1425"/>
			<point x="828" y="1425" type="qcurve" smooth="yes"/>
			<point x="526" y="1425"/>
			<point x="137" y="1009"/>
		</contour>
		<contour>
			<point x="48" y="687" type="qcurve" smooth="yes"/>
			<point x="48" y="1039"/>
			<point x="501" y="1509"/>
			<point x="827" y="1509" type="qcurve" smooth="yes"/>
			<point x="1152" y="1509"/>
			<point x="1606" y="1039"/>
			<point x="1606" y="687" type="qcurve" smooth="yes"/>
			<point x="1606" y="337"/>
			<point x="1152" y="-137"/>
			<point x="827" y="-137" type="qcurve" smooth="yes"/>
			<point x="501" y="-137"/>
			<point x="48" y="337"/>
		</contour>
	</outline>
	<guideline x="0" y="901" angle="0" identifier="0Pjz0qKr8z"/>
	<guideline x="0" y="555" angle="0" identifier="sJo8BlDiJ7"/>
</glyph>
<glyph name="ordfeminine" format="2">
  <advance width="916"/>
  <unicode hex="00AA"/>
  <guideline x="0" y="1681.0" angle="0" identifier="3CJlALCfkl"/>
  <guideline x="0" y="909.0" angle="0" identifier="Zdl6NZVQAy"/>
  <outline>
    <contour>
      <point x="634.0" y="862.0" type="line"/>
      <point x="634.0" y="821.0"/>
      <point x="654.0" y="736.0"/>
      <point x="677.0" y="706.0" type="qcurve"/>
      <point x="744.0" y="706.0" type="line"/>
      <point x="730.0" y="749.0"/>
      <point x="718.0" y="838.0"/>
      <point x="718.0" y="887.0" type="qcurve" smooth="yes"/>
      <point x="718.0" y="1201.0" type="line" smooth="yes"/>
      <point x="718.0" y="1334.0"/>
      <point x="586.0" y="1477.0"/>
      <point x="464.0" y="1477.0" type="qcurve" smooth="yes"/>
      <point x="351.0" y="1477.0"/>
      <point x="205.0" y="1350.0"/>
      <point x="205.0" y="1251.0" type="qcurve" smooth="yes"/>
      <point x="205.0" y="1234.0" type="line"/>
      <point x="282.0" y="1234.0" type="line"/>
      <point x="282.0" y="1247.0" type="line" smooth="yes"/>
      <point x="282.0" y="1319.0"/>
      <point x="377.0" y="1401.0"/>
      <point x="466.0" y="1401.0" type="qcurve" smooth="yes"/>
      <point x="547.0" y="1401.0"/>
      <point x="634.0" y="1296.0"/>
      <point x="634.0" y="1202.0" type="qcurve" smooth="yes"/>
    </contour>
    <contour>
      <point x="675.0" y="1139.0" type="line"/>
      <point x="477.0" y="1139.0" type="line" smooth="yes"/>
      <point x="334.0" y="1139.0"/>
      <point x="181.0" y="1024.0"/>
      <point x="181.0" y="918.0" type="qcurve" smooth="yes"/>
      <point x="181.0" y="819.0"/>
      <point x="313.0" y="692.0"/>
      <point x="417.0" y="692.0" type="qcurve" smooth="yes"/>
      <point x="507.0" y="692.0"/>
      <point x="641.0" y="791.0"/>
      <point x="675.0" y="867.0" type="qcurve"/>
      <point x="657.0" y="969.0" type="line"/>
      <point x="657.0" y="900.0"/>
      <point x="526.0" y="767.0"/>
      <point x="426.0" y="767.0" type="qcurve" smooth="yes"/>
      <point x="356.0" y="767.0"/>
      <point x="263.0" y="857.0"/>
      <point x="263.0" y="922.0" type="qcurve" smooth="yes"/>
      <point x="263.0" y="990.0"/>
      <point x="377.0" y="1067.0"/>
      <point x="478.0" y="1062.0" type="qcurve" smooth="yes"/>
      <point x="675.0" y="1062.0" type="line"/>
    </contour>
  </outline>
</glyph>
<glyph name="logicalnot" format="2">
  <advance width="1024"/>
  <unicode hex="00AC"/>
  <outline>
    <contour>
      <point x="908.0" y="781.0" type="line"/>
      <point x="908.0" y="376.0" type="line"/>
      <point x="824.0" y="376.0" type="line"/>
      <point x="824.0" y="694.0" type="line"/>
      <point x="58.0" y="694.0" type="line"/>
      <point x="58.0" y="781.0" type="line"/>
    </contour>
  </outline>
</glyph>
<glyph name="registered" format="2">
  <advance width="1654"/>
  <unicode hex="00AE"/>
  <outline>
    <contour>
      <point x="48.0" y="687.0" type="qcurve" smooth="yes"/>
      <point x="48.0" y="1039.0"/>
      <point x="501.0" y="1509.0"/>
      <point x="827.0" y="1509.0" type="qcurve" smooth="yes"/>
      <point x="1152.0" y="1509.0"/>
      <point x="1606.0" y="1039.0"/>
      <point x="1606.0" y="687.0" type="qcurve" smooth="yes"/>
      <point x="1606.0" y="337.0"/>
      <point x="1152.0" y="-137.0"/>
      <point x="827.0" y="-137.0" type="qcurve" smooth="yes"/>
      <point x="501.0" y="-137.0"/>
      <point x="48.0" y="337.0"/>
    </contour>
    <contour>
      <point x="137.0" y="687.0" type="qcurve" smooth="yes"/>
      <point x="137.0" y="364.0"/>
      <point x="526.0" y="-53.0"/>
      <point x="828.0" y="-53.0" type="qcurve" smooth="yes"/>
      <point x="1129.0" y="-53.0"/>
      <point x="1517.0" y="364.0"/>
      <point x="1517.0" y="687.0" type="qcurve" smooth="yes"/>
      <point x="1517.0" y="1009.0"/>
      <point x="1129.0" y="1425.0"/>
      <point x="828.0" y="1425.0" type="qcurve" smooth="yes"/>
      <point x="526.0" y="1425.0"/>
      <point x="137.0" y="1009.0"/>
    </contour>
    <contour>
      <point x="899.0" y="608.0" type="line"/>
      <point x="606.0" y="608.0" type="line"/>
      <point x="606.0" y="225.0" type="line"/>
      <point x="519.0" y="225.0" type="line"/>
      <point x="519.0" y="1158.0" type="line"/>
      <point x="821.0" y="1158.0" type="line" smooth="yes"/>
      <point x="993.0" y="1158.0"/>
      <point x="1177.0" y="1018.0"/>
      <point x="1177.0" y="888.0" type="qcurve" smooth="yes"/>
      <point x="1177.0" y="780.0"/>
      <point x="1063.0" y="651.0"/>
      <point x="967.0" y="629.0" type="qcurve"/>
      <point x="985.0" y="606.0"/>
      <point x="1021.0" y="551.0"/>
      <point x="1037.0" y="520.0" type="qcurve" smooth="yes"/>
      <point x="1183.0" y="243.0" type="line"/>
      <point x="1183.0" y="225.0" type="line"/>
      <point x="1097.0" y="225.0" type="line"/>
    </contour>
    <contour>
      <point x="822.0" y="1074.0" type="qcurve" smooth="yes"/>
      <point x="606.0" y="1074.0" type="line"/>
      <point x="606.0" y="690.0" type="line"/>
      <point x="847.0" y="690.0" type="line" smooth="yes"/>
      <point x="979.0" y="690.0"/>
      <point x="1089.0" y="792.0"/>
      <point x="1089.0" y="881.0" type="qcurve" smooth="yes"/>
      <point x="1089.0" y="975.0"/>
      <point x="951.0" y="1074.0"/>
    </contour>
  </outline>
</glyph>
<glyph name="degree" format="2">
	<unicode hex="00B0"/>
	<advance width="765"/>
	<outline>
		<contour>
			<point x="151" y="1239" type="qcurve"/>
			<point x="151" y="1336"/>
			<point x="290.1843722564" y="1477"/>
			<point x="385" y="1477" type="qcurve" smooth="yes"/>
			<point x="478.9897570969" y="1477"/>
			<point x="615" y="1336"/>
			<point x="615" y="1239" type="qcurve" smooth="yes"/>
			<point x="615" y="1141"/>
			<point x="479" y="1004"/>
			<point x="385" y="1004" type="qcurve" smooth="yes"/>
			<point x="290" y="1004"/>
			<point x="151" y="1141"/>
		</contour>
		<contour>
			<point x="235" y="1239" type="qcurve"/>
			<point x="235" y="1176.153643547"/>
			<point x="323.8156277436" y="1091"/>
			<point x="385" y="1091" type="qcurve" smooth="yes"/>
			<point x="447.1843722564" y="1091"/>
			<point x="531" y="1176.153643547"/>
			<point x="531" y="1239" type="qcurve" smooth="yes"/>
			<point x="531" y="1303.0204858063"/>
			<point x="447.1843722564" y="1390"/>
			<point x="385" y="1390" type="qcurve" smooth="yes"/>
			<point x="323.8156277436" y="1390"/>
			<point x="235" y="1303.0204858063"/>
		</contour>
	</outline>
</glyph>
<glyph name="plusminus" format="2">
  <advance width="1024"/>
  <unicode hex="00B1"/>
  <outline>
    <contour>
      <point x="57.0" y="651.0" type="line"/>
      <point x="57.0" y="737.0" type="line"/>
      <point x="967.0" y="737.0" type="line"/>
      <point x="967.0" y="651.0" type="line"/>
    </contour>
    <contour>
      <point x="471.0" y="248.0" type="line"/>
      <point x="471.0" y="1160.0" type="line"/>
      <point x="557.0" y="1160.0" type="line"/>
      <point x="557.0" y="248.0" type="line"/>
    </contour>
    <contour>
      <point x="57.0" y="1.0" type="line"/>
      <point x="57.0" y="87.0" type="line"/>
      <point x="967.0" y="87.0" type="line"/>
      <point x="967.0" y="1.0" type="line"/>
    </contour>
  </outline>
</glyph>
<glyph name="acute" format="2">
	<unicode hex="00B4"/>
	<advance width="1024"/>
	<outline>
		<contour>
			<point x="357" y="1234" type="line"/>
			<point x="612" y="1538" type="line"/>
			<point x="696" y="1480" type="line"/>
			<point x="398" y="1204" type="line"/>
		</contour>
	</outline>
</glyph>
<glyph name="micro" format="2">
	<unicode hex="00B5"/>
	<advance width="1198"/>
	<outline>
		<contour>
			<point x="292" y="1052" type="line"/>
			<point x="378" y="1052" type="line"/>
			<point x="246" y="371" type="line" smooth="yes"/>
			<point x="218" y="223"/>
			<point x="311" y="63"/>
			<point x="425" y="63" type="qcurve" smooth="yes"/>
			<point x="530" y="63"/>
			<point x="732" y="190"/>
			<point x="814" y="308" type="qcurve"/>
			<point x="958" y="1052" type="line"/>
			<point x="1044" y="1052" type="line"/>
			<point x="840" y="0" type="line"/>
			<point x="772" y="0" type="line"/>
			<point x="804" y="190" type="line"/>
			<point x="798" y="190" type="line"/>
			<point x="687" y="75"/>
			<point x="482" y="-20"/>
			<point x="397" y="-20" type="qcurve" smooth="yes"/>
			<point x="321" y="-20"/>
			<point x="215" y="60"/>
			<point x="201" y="136" type="qcurve"/>
			<point x="94" y="-416" type="line"/>
			<point x="8" y="-416" type="line"/>
		</contour>
	</outline>
</glyph>
<glyph name="guillemotright" format="2">
	<unicode hex="00BB"/>
	<advance width="1092"/>
	<outline>
		<contour>
			<point x="128" y="153" type="line"/>
			<point x="430" y="551" type="line"/>
			<point x="128" y="949" type="line"/>
			<point x="229" y="949" type="line"/>
			<point x="524" y="571" type="line"/>
			<point x="524" y="532" type="line"/>
			<point x="229" y="153" type="line"/>
		</contour>
		<contour>
			<point x="568" y="153" type="line"/>
			<point x="870" y="551" type="line"/>
			<point x="568" y="949" type="line"/>
			<point x="669" y="949" type="line"/>
			<point x="964" y="571" type="line"/>
			<point x="964" y="532" type="line"/>
			<point x="669" y="153" type="line"/>
		</contour>
	</outline>
	<guideline x="0" y="98" angle="0" identifier="MTEldNnfdj"/>
	<guideline x="0" y="443" angle="0" identifier="G9bQni2n1K"/>
</glyph>
<glyph name="multiply" format="2">
  <advance width="1024"/>
  <unicode hex="00D7"/>
  <outline>
    <contour>
      <point x="205.0" y="305.0" type="line"/>
      <point x="144.0" y="366.0" type="line"/>
      <point x="809.0" y="1031.0" type="line"/>
      <point x="870.0" y="970.0" type="line"/>
    </contour>
    <contour>
      <point x="824.0" y="290.0" type="line"/>
      <point x="129.0" y="985.0" type="line"/>
      <point x="191.0" y="1046.0" type="line"/>
      <point x="885.0" y="352.0" type="line"/>
    </contour>
  </outline>
</glyph>
<glyph name="Thorn" format="2">
  <advance width="1036"/>
  <unicode hex="00DE"/>
  <guideline x="0" y="901.0" angle="0" identifier="i9jYwjBDP4"/>
  <guideline x="0" y="555.0" angle="0" identifier="T8KKW8oxop"/>
  <outline>
    <contour>
      <point x="170.0" y="1456.0" type="line"/>
      <point x="260.0" y="1456.0" type="line"/>
      <point x="260.0" y="1166.0" type="line"/>
      <point x="569.0" y="1166.0" type="line" smooth="yes"/>
      <point x="780.0" y="1166.0"/>
      <point x="986.0" y="928.0"/>
      <point x="986.0" y="741.0" type="qcurve" smooth="yes"/>
      <point x="986.0" y="553.0"/>
      <point x="779.0" y="314.0"/>
      <point x="569.0" y="314.0" type="qcurve" smooth="yes"/>
      <point x="260.0" y="314.0" type="line"/>
      <point x="260.0" y="0.0" type="line"/>
      <point x="170.0" y="0.0" type="line"/>
    </contour>
    <contour>
      <point x="569.0" y="1081.0" type="qcurve" smooth="yes"/>
      <point x="260.0" y="1081.0" type="line"/>
      <point x="260.0" y="399.0" type="line"/>
      <point x="569.0" y="399.0" type="line" smooth="yes"/>
      <point x="750.0" y="399.0"/>
      <point x="895.0" y="595.0"/>
      <point x="895.0" y="741.0" type="qcurve" smooth="yes"/>
      <point x="895.0" y="886.0"/>
      <point x="750.0" y="1081.0"/>
    </contour>
  </outline>
</glyph>
<glyph name="germandbls" format="2">
  <advance width="1186"/>
  <unicode hex="00DF"/>
  <outline>
    <contour>
      <point x="312.0" y="1092.0" type="qcurve" name="hr00"/>
      <point x="312.0" y="0.0" type="line"/>
      <point x="223.0" y="0.0" type="line"/>
      <point x="223.0" y="1092.0" type="line" smooth="yes"/>
      <point x="223.0" y="1305.0"/>
      <point x="405.0" y="1534.0"/>
      <point x="575.0" y="1534.0" type="qcurve" smooth="yes"/>
      <point x="726.0" y="1534.0"/>
      <point x="889.0" y="1369.0"/>
      <point x="889.0" y="1215.0" type="qcurve" smooth="yes"/>
      <point x="889.0" y="1155.0"/>
      <point x="842.0" y="1031.0"/>
      <point x="799.0" y="977.0" type="qcurve" smooth="yes"/>
      <point x="768.0" y="939.0"/>
      <point x="700.0" y="844.0"/>
      <point x="700.0" y="811.0" type="qcurve" smooth="yes"/>
      <point x="700.0" y="766.0"/>
      <point x="825.0" y="651.0"/>
      <point x="907.0" y="590.0" type="qcurve" smooth="yes"/>
      <point x="1003.0" y="518.0"/>
      <point x="1100.0" y="385.0"/>
      <point x="1100.0" y="282.0" type="qcurve" smooth="yes"/>
      <point x="1100.0" y="157.0"/>
      <point x="920.0" y="-20.0"/>
      <point x="753.0" y="-20.0" type="qcurve" smooth="yes"/>
      <point x="603.0" y="-20.0"/>
      <point x="432.0" y="142.0"/>
      <point x="432.0" y="286.0" type="qcurve" smooth="yes"/>
      <point x="432.0" y="304.0" type="line"/>
      <point x="525.0" y="304.0" type="line"/>
      <point x="525.0" y="287.0" type="line" smooth="yes"/>
      <point x="525.0" y="179.0"/>
      <point x="649.0" y="62.0"/>
      <point x="755.0" y="62.0" type="qcurve" smooth="yes"/>
      <point x="879.0" y="62.0"/>
      <point x="1013.0" y="186.0"/>
      <point x="1013.0" y="302.0" type="qcurve" smooth="yes"/>
      <point x="1013.0" y="349.0"/>
      <point x="937.0" y="457.0"/>
      <point x="851.0" y="522.0" type="qcurve" smooth="yes"/>
      <point x="778.0" y="577.0"/>
      <point x="613.0" y="711.0"/>
      <point x="613.0" y="799.0" type="qcurve" smooth="yes"/>
      <point x="613.0" y="868.0"/>
      <point x="686.0" y="967.0"/>
      <point x="718.0" y="1011.0" type="qcurve" smooth="yes"/>
      <point x="758.0" y="1066.0"/>
      <point x="802.0" y="1166.0"/>
      <point x="802.0" y="1210.0" type="qcurve" smooth="yes"/>
      <point x="802.0" y="1323.0"/>
      <point x="682.0" y="1452.0"/>
      <point x="571.0" y="1452.0" type="qcurve" smooth="yes"/>
      <point x="446.0" y="1452.0"/>
      <point x="312.0" y="1265.0"/>
    </contour>
  </outline>
</glyph>
<glyph name="eth" format="2">
	<unicode hex="00F0"/>
	<advance width="968"/>
	<outline>
		<contour>
			<point x="174" y="1503" type="qcurve"/>
			<point x="201" y="1581" type="line"/>
			<point x="530" y="1496"/>
			<point x="883" y="1005"/>
			<point x="883" y="633" type="qcurve"/>
			<point x="883" y="535" type="line"/>
			<point x="883" y="293"/>
			<point x="660" y="-20"/>
			<point x="488" y="-20" type="qcurve" smooth="yes"/>
			<point x="312" y="-20"/>
			<point x="85" y="255"/>
			<point x="85" y="468" type="qcurve" smooth="yes"/>
			<point x="85" y="691"/>
			<point x="300" y="978"/>
			<point x="464" y="978" type="qcurve" smooth="yes"/>
			<point x="633" y="978"/>
			<point x="860" y="748"/>
			<point x="860" y="613" type="qcurve"/>
			<point x="793" y="614" type="line"/>
			<point x="793" y="725"/>
			<point x="601" y="895"/>
			<point x="475" y="895" type="qcurve" smooth="yes"/>
			<point x="345" y="895"/>
			<point x="174" y="654"/>
			<point x="174" y="468" type="qcurve" smooth="yes"/>
			<point x="174" y="291"/>
			<point x="353" y="62"/>
			<point x="492" y="62" type="qcurve" smooth="yes"/>
			<point x="623" y="62"/>
			<point x="793" y="329"/>
			<point x="793" y="535" type="qcurve" smooth="yes"/>
			<point x="793" y="635" type="line" smooth="yes"/>
			<point x="793" y="991"/>
			<point x="472" y="1424"/>
		</contour>
		<contour>
			<point x="780" y="1427" type="line"/>
			<point x="302" y="1101" type="line"/>
			<point x="256" y="1168" type="line"/>
			<point x="735" y="1494" type="line"/>
		</contour>
	</outline>
</glyph>
<glyph name="divide" format="2">
	<unicode hex="00F7"/>
	<advance width="1024"/>
	<outline>
		<contour>
			<point x="433" y="1021" type="qcurve" smooth="yes"/>
			<point x="433" y="1053"/>
			<point x="473" y="1098"/>
			<point x="511" y="1098" type="qcurve" smooth="yes"/>
			<point x="550" y="1098"/>
			<point x="590" y="1053"/>
			<point x="590" y="1021" type="qcurve" smooth="yes"/>
			<point x="590" y="989"/>
			<point x="550" y="945"/>
			<point x="511" y="945" type="qcurve" smooth="yes"/>
			<point x="473" y="945"/>
			<point x="433" y="989"/>
		</contour>
		<contour>
			<point x="433" y="334" type="qcurve" smooth="yes"/>
			<point x="433" y="366"/>
			<point x="473" y="411"/>
			<point x="511" y="411" type="qcurve" smooth="yes"/>
			<point x="550" y="411"/>
			<point x="590" y="366"/>
			<point x="590" y="334" type="qcurve" smooth="yes"/>
			<point x="590" y="302"/>
			<point x="550" y="258"/>
			<point x="511" y="258" type="qcurve" smooth="yes"/>
			<point x="473" y="258"/>
			<point x="433" y="302"/>
		</contour>
		<contour>
			<point x="57" y="638" type="line"/>
			<point x="57" y="724" type="line"/>
			<point x="967" y="724" type="line"/>
			<point x="967" y="638" type="line"/>
		</contour>
	</outline>
</glyph>
<glyph name="thorn" format="2">
  <advance width="1034"/>
  <unicode hex="00FE"/>
  <outline>
    <contour>
      <point x="156.0" y="-416.0" type="line"/>
      <point x="156.0" y="1536.0" type="line"/>
      <point x="238.0" y="1536.0" type="line"/>
      <point x="238.0" y="910.0" type="line"/>
      <point x="281.0" y="976.0"/>
      <point x="453.0" y="1072.0"/>
      <point x="562.0" y="1072.0" type="qcurve" smooth="yes"/>
      <point x="744.0" y="1072.0"/>
      <point x="949.0" y="772.0"/>
      <point x="949.0" y="542.0" type="qcurve" smooth="yes"/>
      <point x="949.0" y="510.0" type="line" smooth="yes"/>
      <point x="949.0" y="280.0"/>
      <point x="744.0" y="-20.0"/>
      <point x="562.0" y="-20.0" type="qcurve" smooth="yes"/>
      <point x="453.0" y="-20.0"/>
      <point x="294.0" y="63.0"/>
      <point x="244.0" y="129.0" type="qcurve"/>
      <point x="244.0" y="129.0" type="line"/>
      <point x="244.0" y="-416.0" type="line"/>
    </contour>
    <contour>
      <point x="244.0" y="249.0" type="line"/>
      <point x="278.0" y="176.0"/>
      <point x="432.0" y="63.0"/>
      <point x="542.0" y="63.0" type="qcurve" smooth="yes"/>
      <point x="706.0" y="63.0"/>
      <point x="859.0" y="321.0"/>
      <point x="859.0" y="510.0" type="qcurve" smooth="yes"/>
      <point x="859.0" y="542.0" type="line" smooth="yes"/>
      <point x="859.0" y="731.0"/>
      <point x="706.0" y="989.0"/>
      <point x="542.0" y="989.0" type="qcurve" smooth="yes"/>
      <point x="432.0" y="989.0"/>
      <point x="278.0" y="876.0"/>
      <point x="244.0" y="803.0" type="qcurve"/>
    </contour>
  </outline>
</glyph>
<glyph name="kgreenlandic" format="2">
	<unicode hex="0138"/>
	<advance width="908"/>
	<outline>
		<contour>
			<point x="236" y="1052" type="line"/>
			<point x="236" y="0" type="line"/>
			<point x="148" y="0" type="line"/>
			<point x="148" y="1052" type="line"/>
		</contour>
		<contour>
			<point x="862" y="1052" type="line"/>
			<point x="391" y="506" type="line"/>
			<point x="201" y="506" type="line"/>
			<point x="201" y="586" type="line"/>
			<point x="355" y="586" type="line"/>
			<point x="758" y="1052" type="line"/>
		</contour>
		<contour>
			<point x="810" y="0" type="line"/>
			<point x="354" y="518" type="line"/>
			<point x="407" y="591" type="line"/>
			<point x="924" y="0" type="line"/>
		</contour>
	</outline>
</glyph>
<glyph name="OE" format="2">
  <advance width="1758"/>
  <unicode hex="0152"/>
  <outline>
    <contour>
      <point x="652.0" y="1486.0" type="qcurve" smooth="yes"/>
      <point x="735.0" y="1486.0"/>
      <point x="893.0" y="1466.0"/>
      <point x="954.0" y="1456.0" type="qcurve"/>
      <point x="1681.0" y="1456.0" type="line"/>
      <point x="1681.0" y="1371.0" type="line"/>
      <point x="1004.0" y="1371.0" type="line"/>
      <point x="1004.0" y="793.0" type="line"/>
      <point x="1585.0" y="793.0" type="line"/>
      <point x="1585.0" y="709.0" type="line"/>
      <point x="1004.0" y="709.0" type="line"/>
      <point x="1004.0" y="85.0" type="line"/>
      <point x="1691.0" y="85.0" type="line"/>
      <point x="1691.0" y="0.0" type="line"/>
      <point x="924.0" y="0.0" type="line"/>
      <point x="865.0" y="-12.0"/>
      <point x="731.0" y="-30.0"/>
      <point x="652.0" y="-30.0" type="qcurve" smooth="yes"/>
      <point x="415.0" y="-30.0"/>
      <point x="115.0" y="349.0"/>
      <point x="115.0" y="687.0" type="qcurve" smooth="yes"/>
      <point x="115.0" y="769.0" type="line" smooth="yes"/>
      <point x="115.0" y="1107.0"/>
      <point x="415.0" y="1486.0"/>
    </contour>
    <contour>
      <point x="206.0" y="687.0" type="line" smooth="yes"/>
      <point x="206.0" y="388.0"/>
      <point x="452.0" y="56.0"/>
      <point x="652.0" y="56.0" type="qcurve" smooth="yes"/>
      <point x="720.0" y="56.0"/>
      <point x="830.0" y="70.0"/>
      <point x="914.0" y="83.0" type="qcurve"/>
      <point x="914.0" y="1375.0" type="line"/>
      <point x="839.0" y="1388.0"/>
      <point x="716.0" y="1400.0"/>
      <point x="652.0" y="1400.0" type="qcurve" smooth="yes"/>
      <point x="452.0" y="1400.0"/>
      <point x="206.0" y="1068.0"/>
      <point x="206.0" y="769.0" type="qcurve" smooth="yes"/>
    </contour>
  </outline>
</glyph>
<glyph name="Schwa" format="2">
	<unicode hex="018F"/>
	<advance width="1446"/>
	<outline>
		<contour>
			<point x="105" y="1176" type="line"/>
			<point x="200" y="1341"/>
			<point x="492" y="1519"/>
			<point x="669" y="1519" type="qcurve" smooth="yes"/>
			<point x="980" y="1519"/>
			<point x="1317" y="1108"/>
			<point x="1317" y="789" type="qcurve" smooth="yes"/>
			<point x="1317" y="432"/>
			<point x="966" y="-30"/>
			<point x="694" y="-30" type="qcurve" smooth="yes"/>
			<point x="439" y="-30"/>
			<point x="148" y="281"/>
			<point x="148" y="578" type="qcurve" smooth="yes"/>
			<point x="148" y="666" type="line"/>
			<point x="1228" y="666" type="line"/>
			<point x="1228" y="585" type="line"/>
			<point x="665" y="593" type="line"/>
			<point x="236" y="581" type="line"/>
			<point x="236" y="503" type="line" smooth="yes"/>
			<point x="236" y="315"/>
			<point x="479" y="54"/>
			<point x="701" y="54" type="qcurve" smooth="yes"/>
			<point x="932" y="54"/>
			<point x="1233" y="451"/>
			<point x="1231" y="759" type="qcurve" smooth="yes"/>
			<point x="1230" y="1085"/>
			<point x="912" y="1435"/>
			<point x="657" y="1435" type="qcurve" smooth="yes"/>
			<point x="500" y="1435"/>
			<point x="241" y="1280"/>
			<point x="157" y="1135" type="qcurve"/>
		</contour>
	</outline>
</glyph>
<glyph name="florin" format="2">
  <advance width="702"/>
  <unicode hex="0192"/>
  <outline>
    <contour>
      <point x="546.0" y="882.0" type="line"/>
      <point x="546.0" y="803.0" type="line"/>
      <point x="300.0" y="803.0" type="line"/>
      <point x="300.0" y="111.0" type="line" smooth="yes"/>
      <point x="300.0" y="-178.0"/>
      <point x="132.0" y="-437.0"/>
      <point x="-56.0" y="-437.0" type="qcurve" smooth="yes"/>
      <point x="-87.0" y="-437.0"/>
      <point x="-140.0" y="-430.0"/>
      <point x="-168.0" y="-420.0" type="qcurve"/>
      <point x="-154.0" y="-341.0" type="line"/>
      <point x="-139.0" y="-347.0"/>
      <point x="-70.0" y="-354.0"/>
      <point x="-56.0" y="-354.0" type="qcurve" smooth="yes"/>
      <point x="85.0" y="-354.0"/>
      <point x="211.0" y="-134.0"/>
      <point x="211.0" y="111.0" type="qcurve" smooth="yes"/>
      <point x="211.0" y="803.0" type="line"/>
      <point x="25.0" y="803.0" type="line"/>
      <point x="25.0" y="882.0" type="line"/>
      <point x="211.0" y="882.0" type="line"/>
      <point x="211.0" y="1125.0" type="line" smooth="yes"/>
      <point x="211.0" y="1302.0"/>
      <point x="365.0" y="1487.0"/>
      <point x="497.0" y="1487.0" type="qcurve" smooth="yes"/>
      <point x="528.0" y="1487.0"/>
      <point x="591.0" y="1478.0"/>
      <point x="618.0" y="1471.0" type="qcurve"/>
      <point x="607.0" y="1392.0" type="line"/>
      <point x="587.0" y="1397.0"/>
      <point x="531.0" y="1406.0"/>
      <point x="504.0" y="1406.0" type="qcurve" smooth="yes"/>
      <point x="406.0" y="1406.0"/>
      <point x="300.0" y="1265.0"/>
      <point x="300.0" y="1125.0" type="qcurve" smooth="yes"/>
      <point x="300.0" y="882.0" type="line"/>
    </contour>
  </outline>
</glyph>
<glyph name="schwa" format="2">
	<unicode hex="0259"/>
	<advance width="913"/>
	<outline>
		<contour>
			<point x="828" y="542" type="qcurve" smooth="yes"/>
			<point x="828" y="510" type="line" smooth="yes"/>
			<point x="828" y="272"/>
			<point x="607" y="-30"/>
			<point x="425" y="-30" type="qcurve" smooth="yes"/>
			<point x="246" y="-30"/>
			<point x="53" y="240"/>
			<point x="53" y="492" type="qcurve" smooth="yes"/>
			<point x="53" y="534" type="line"/>
			<point x="781" y="534" type="line"/>
			<point x="781" y="454" type="line"/>
			<point x="142" y="454" type="line"/>
			<point x="142" y="442" type="line"/>
			<point x="142" y="255"/>
			<point x="289" y="53"/>
			<point x="425" y="53" type="qcurve" smooth="yes"/>
			<point x="579" y="53"/>
			<point x="739" y="316"/>
			<point x="739" y="510" type="qcurve" smooth="yes"/>
			<point x="739" y="542" type="line" smooth="yes"/>
			<point x="739" y="735"/>
			<point x="573" y="999"/>
			<point x="394" y="999" type="qcurve" smooth="yes"/>
			<point x="300" y="999"/>
			<point x="169" y="923"/>
			<point x="121" y="859" type="qcurve"/>
			<point x="60" y="914" type="line"/>
			<point x="106" y="979"/>
			<point x="272" y="1082"/>
			<point x="394" y="1082" type="qcurve" smooth="yes"/>
			<point x="604" y="1082"/>
			<point x="828" y="780"/>
		</contour>
	</outline>
</glyph>
<glyph name="doubleprimemod" format="2">
  <advance width="788"/>
  <unicode hex="02BA"/>
  <outline>
    <contour>
      <point x="264.0" y="1502.0" type="line"/>
      <point x="373.0" y="1502.0" type="line"/>
      <point x="255.0" y="1004.0" type="line"/>
      <point x="213.0" y="1009.0" type="line"/>
    </contour>
    <contour>
      <point x="564.0" y="1502.0" type="line"/>
      <point x="673.0" y="1502.0" type="line"/>
      <point x="555.0" y="1004.0" type="line"/>
      <point x="513.0" y="1009.0" type="line"/>
    </contour>
  </outline>
</glyph>
<glyph name="breve" format="2">
  <advance width="1024"/>
  <unicode hex="02D8"/>
  <outline>
    <contour>
      <point x="770.0" y="1523.0" type="qcurve"/>
      <point x="824.0" y="1494.0" type="line"/>
      <point x="790.0" y="1379.0"/>
      <point x="627.0" y="1220.0"/>
      <point x="514.0" y="1220.0" type="qcurve" smooth="yes"/>
      <point x="399.0" y="1220.0"/>
      <point x="236.0" y="1379.0"/>
      <point x="202.0" y="1494.0" type="qcurve"/>
      <point x="256.0" y="1523.0" type="line"/>
      <point x="296.0" y="1421.0"/>
      <point x="429.0" y="1305.0"/>
      <point x="513.0" y="1305.0" type="qcurve" smooth="yes"/>
      <point x="597.0" y="1305.0"/>
      <point x="730.0" y="1421.0"/>
    </contour>
  </outline>
</glyph>
<glyph name="tilde" format="2">
	<unicode hex="02DC"/>
	<advance width="1024"/>
	<outline>
		<contour>
			<point x="186" y="1259" type="line"/>
			<point x="219" y="1322"/>
			<point x="327" y="1386"/>
			<point x="394" y="1386" type="qcurve" smooth="yes"/>
			<point x="435" y="1386"/>
			<point x="510" y="1351"/>
			<point x="547" y="1327" type="qcurve" smooth="yes"/>
			<point x="581" y="1305"/>
			<point x="659" y="1273"/>
			<point x="697" y="1273" type="qcurve" smooth="yes"/>
			<point x="737" y="1273"/>
			<point x="809" y="1328"/>
			<point x="832" y="1364" type="qcurve"/>
			<point x="881" y="1313" type="line"/>
			<point x="854" y="1253"/>
			<point x="757" y="1190"/>
			<point x="695" y="1190" type="qcurve" smooth="yes"/>
			<point x="634" y="1190"/>
			<point x="540" y="1233"/>
			<point x="509" y="1250" type="qcurve" smooth="yes"/>
			<point x="475" y="1269"/>
			<point x="407" y="1303"/>
			<point x="378" y="1303" type="qcurve" smooth="yes"/>
			<point x="331" y="1303"/>
			<point x="250" y="1234"/>
			<point x="232" y="1204" type="qcurve"/>
		</contour>
	</outline>
</glyph>
<glyph name="hungarumlaut" format="2">
	<unicode hex="02DD"/>
	<advance width="1024"/>
	<outline>
		<contour>
			<point x="286.2352941176" y="1240" type="line"/>
			<point x="554.7647058824" y="1538" type="line"/>
			<point x="649.7450980392" y="1480" type="line"/>
			<point x="328.4117647059" y="1204" type="line"/>
		</contour>
		<contour>
			<point x="620.2549019608" y="1240" type="line"/>
			<point x="888.7843137255" y="1538" type="line"/>
			<point x="983.7647058824" y="1480" type="line"/>
			<point x="662.431372549" y="1204" type="line"/>
		</contour>
	</outline>
</glyph>
<glyph name="hookabovecomb" format="2">
	<unicode hex="0309"/>
	<advance width="1024"/>
	<outline>
		<contour>
			<point x="469" y="1147" type="line"/>
			<point x="469" y="1186" type="line" smooth="yes"/>
			<point x="469" y="1228"/>
			<point x="516" y="1260"/>
			<point x="603" y="1274" type="qcurve" smooth="yes"/>
			<point x="664" y="1284"/>
			<point x="728" y="1347"/>
			<point x="728" y="1396" type="qcurve" smooth="yes"/>
			<point x="728" y="1454"/>
			<point x="653" y="1516"/>
			<point x="584" y="1516" type="qcurve" smooth="yes"/>
			<point x="514" y="1516"/>
			<point x="405" y="1478"/>
			<point x="385" y="1467" type="qcurve"/>
			<point x="355" y="1531" type="line"/>
			<point x="387" y="1550"/>
			<point x="507" y="1589"/>
			<point x="592" y="1589" type="qcurve" smooth="yes"/>
			<point x="700" y="1589"/>
			<point x="817" y="1484"/>
			<point x="817" y="1399" type="qcurve" smooth="yes"/>
			<point x="817" y="1315"/>
			<point x="677" y="1210"/>
			<point x="552" y="1198" type="qcurve"/>
			<point x="552" y="1147" type="line"/>
		</contour>
	</outline>
</glyph>
<glyph name="dotbelowcomb" format="2">
	<unicode hex="0323"/>
	<advance width="1024"/>
	<outline>
		<contour>
			<point x="434" y="-241" type="qcurve" smooth="yes"/>
			<point x="434" y="-209"/>
			<point x="474" y="-164"/>
			<point x="512" y="-164" type="qcurve" smooth="yes"/>
			<point x="551" y="-164"/>
			<point x="591" y="-209"/>
			<point x="591" y="-241" type="qcurve" smooth="yes"/>
			<point x="591" y="-273"/>
			<point x="551" y="-317"/>
			<point x="512" y="-317" type="qcurve" smooth="yes"/>
			<point x="474" y="-317"/>
			<point x="434" y="-273"/>
		</contour>
	</outline>
</glyph>
<glyph name="commaaccentcomb" format="2">
	<unicode hex="0326"/>
	<advance width="1024"/>
	<outline>
		<contour>
			<point x="427" y="-527" type="line"/>
			<point x="456" y="-423"/>
			<point x="480" y="-295"/>
			<point x="512" y="-156" type="qcurve"/>
			<point x="616" y="-154" type="line"/>
			<point x="492" y="-530" type="line"/>
		</contour>
	</outline>
</glyph>
<glyph name="numeralsign" format="2">
  <advance width="544"/>
  <unicode hex="0374"/>
  <outline>
    <contour>
      <point x="203" y="1073" type="line"/>
      <point x="153" y="1086" type="line"/>
      <point x="254" y="1550" type="line"/>
      <point x="355" y="1537" type="line"/>
    </contour>
  </outline>
</glyph>
<glyph name="tonos" format="2">
  <advance width="875"/>
  <unicode hex="0384"/>
  <outline>
    <contour>
      <point x="406" y="1215" type="line"/>
      <point x="356" y="1228" type="line"/>
      <point x="445" y="1614" type="line"/>
      <point x="546" y="1601" type="line"/>
    </contour>
  </outline>
</glyph>
<glyph name="Sigma" format="2">
  <advance width="1144"/>
  <unicode hex="03A3"/>
  <outline>
    <contour>
      <point x="16" y="0" type="line"/>
      <point x="16" y="71" type="line"/>
      <point x="527" y="759" type="line"/>
      <point x="527" y="711" type="line"/>
      <point x="29" y="1387" type="line"/>
      <point x="29" y="1456" type="line"/>
      <point x="1094" y="1456" type="line"/>
      <point x="1094" y="1368" type="line"/>
      <point x="158" y="1368" type="line"/>
      <point x="150" y="1392" type="line"/>
      <point x="626" y="753" type="line"/>
      <point x="626" y="726" type="line"/>
      <point x="133" y="64" type="line"/>
      <point x="121" y="88" type="line"/>
      <point x="1129" y="88" type="line"/>
      <point x="1129" y="0" type="line"/>
    </contour>
  </outline>
</glyph>
<glyph name="Psi" format="2">
  <advance width="1606"/>
  <unicode hex="03A8"/>
  <outline>
    <contour>
      <point x="755" y="0" type="line"/>
      <point x="755" y="1456" type="line"/>
      <point x="851" y="1456" type="line"/>
      <point x="851" y="0" type="line"/>
    </contour>
    <contour>
      <point x="787" y="361" type="line"/>
      <point x="769" y="361" type="line" smooth="yes"/>
      <point x="443" y="361"/>
      <point x="155" y="635.0"/>
      <point x="155" y="928" type="qcurve" smooth="yes"/>
      <point x="155" y="1456" type="line"/>
      <point x="252" y="1456" type="line"/>
      <point x="252" y="926" type="line" smooth="yes"/>
      <point x="252" y="681.0"/>
      <point x="470" y="451.0"/>
      <point x="769" y="451" type="qcurve" smooth="yes"/>
      <point x="787" y="451" type="line"/>
    </contour>
    <contour>
      <point x="819" y="361" type="line"/>
      <point x="819" y="451" type="line"/>
      <point x="837" y="451" type="line" smooth="yes"/>
      <point x="1136" y="451"/>
      <point x="1354.0" y="681.0"/>
      <point x="1354" y="926" type="qcurve" smooth="yes"/>
      <point x="1354" y="1456" type="line"/>
      <point x="1451" y="1456" type="line"/>
      <point x="1451" y="928" type="line" smooth="yes"/>
      <point x="1451.0" y="635.0"/>
      <point x="1163.0" y="361.0"/>
      <point x="837" y="361" type="qcurve" smooth="yes"/>
    </contour>
  </outline>
</glyph>
<glyph name="alpha" format="2">
  <advance width="1219"/>
  <unicode hex="03B1"/>
  <anchor x="553" y="1052" name="GRK_top"/>
  <outline>
    <contour>
      <point x="529" y="-20.0" type="qcurve"/>
      <point x="322" y="-20.0"/>
      <point x="85" y="280.0"/>
      <point x="85" y="510.0" type="qcurve" smooth="yes"/>
      <point x="85" y="542.0" type="line" smooth="yes"/>
      <point x="85" y="773.0"/>
      <point x="322" y="1072.0"/>
      <point x="534" y="1072.0" type="qcurve" smooth="yes"/>
      <point x="660" y="1072"/>
      <point x="858" y="975.0"/>
      <point x="915" y="900.0" type="qcurve"/>
      <point x="917" y="900.0" type="line"/>
      <point x="920" y="1052.0" type="line"/>
      <point x="1007" y="1052.0" type="line"/>
      <point x="1007" y="190.0" type="line" smooth="yes"/>
      <point x="1007.0" y="115.0"/>
      <point x="1052" y="58.0"/>
      <point x="1101" y="58.0" type="qcurve" smooth="yes"/>
      <point x="1116.0" y="58.0"/>
      <point x="1153" y="66.0"/>
      <point x="1169" y="73.0" type="qcurve"/>
      <point x="1169" y="-13.0" type="line"/>
      <point x="1151" y="-21.0"/>
      <point x="1100" y="-30"/>
      <point x="1077" y="-30.0" type="qcurve"/>
      <point x="999" y="-30.0"/>
      <point x="919" y="52.0"/>
      <point x="914" y="139.0" type="qcurve"/>
      <point x="911" y="139.0" type="line"/>
      <point x="851" y="69.0"/>
      <point x="664.0" y="-20.0"/>
    </contour>
    <contour>
      <point x="556" y="67.0" type="qcurve"/>
      <point x="690" y="67"/>
      <point x="872.0" y="187.0"/>
      <point x="911" y="262.0" type="qcurve"/>
      <point x="911" y="789.0" type="line"/>
      <point x="879.0" y="855.0"/>
      <point x="697" y="985"/>
      <point x="547" y="985.0" type="qcurve" smooth="yes"/>
      <point x="365.0" y="985.0"/>
      <point x="181" y="740"/>
      <point x="181" y="548.0" type="qcurve" smooth="yes"/>
      <point x="181" y="511.0" type="line" smooth="yes"/>
      <point x="181" y="315.0"/>
      <point x="362.0" y="67"/>
    </contour>
  </outline>
</glyph>
<glyph name="beta" format="2">
  <advance width="1175"/>
  <unicode hex="03B2"/>
  <outline>
    <contour>
      <point x="148" y="-416" type="line"/>
      <point x="148" y="1058" type="line" smooth="yes"/>
      <point x="148" y="1311"/>
      <point x="393" y="1556"/>
      <point x="588" y="1556" type="qcurve" smooth="yes"/>
      <point x="780" y="1556"/>
      <point x="1003" y="1353"/>
      <point x="1003" y="1177" type="qcurve"/>
      <point x="1003" y="1049"/>
      <point x="851" y="860"/>
      <point x="720" y="831" type="qcurve"/>
      <point x="720" y="837" type="line"/>
      <point x="898" y="817"/>
      <point x="1089" y="606"/>
      <point x="1089" y="443" type="qcurve"/>
      <point x="1089" y="233"/>
      <point x="823" y="-20"/>
      <point x="628" y="-20" type="qcurve" smooth="yes"/>
      <point x="499" y="-20"/>
      <point x="310" y="63"/>
      <point x="243" y="139" type="qcurve"/>
      <point x="243" y="-416" type="line"/>
    </contour>
    <contour>
      <point x="628" y="67" type="qcurve" smooth="yes"/>
      <point x="805" y="67"/>
      <point x="992" y="274"/>
      <point x="992" y="442" type="qcurve"/>
      <point x="992" y="615"/>
      <point x="788" y="787"/>
      <point x="583" y="787" type="qcurve"/>
      <point x="453" y="787" type="line"/>
      <point x="453" y="876" type="line"/>
      <point x="584" y="876" type="line"/>
      <point x="735" y="876"/>
      <point x="913" y="1026"/>
      <point x="913" y="1176" type="qcurve"/>
      <point x="913" y="1313"/>
      <point x="754" y="1469"/>
      <point x="588" y="1469" type="qcurve" smooth="yes"/>
      <point x="416" y="1469"/>
      <point x="243" y="1262"/>
      <point x="243" y="1065" type="qcurve" smooth="yes"/>
      <point x="243" y="262" type="line"/>
      <point x="275" y="200"/>
      <point x="462" y="67"/>
    </contour>
  </outline>
</glyph>
<glyph name="delta" format="2">
	<unicode hex="03B4"/>
	<advance width="1137"/>
	<outline>
		<contour>
			<point x="564" y="-30" type="qcurve" smooth="yes"/>
			<point x="345" y="-30"/>
			<point x="85" y="256"/>
			<point x="85" y="460" type="qcurve" smooth="yes"/>
			<point x="85" y="490" type="line" smooth="yes"/>
			<point x="85" y="722"/>
			<point x="353" y="1017"/>
			<point x="583" y="1035" type="qcurve"/>
			<point x="680" y="989" type="line"/>
			<point x="425" y="961"/>
			<point x="181" y="697"/>
			<point x="181" y="486" type="qcurve"/>
			<point x="181" y="466" type="line"/>
			<point x="181" y="290"/>
			<point x="380" y="57"/>
			<point x="569" y="57" type="qcurve" smooth="yes"/>
			<point x="752" y="57"/>
			<point x="956" y="276"/>
			<point x="956" y="471" type="qcurve" smooth="yes"/>
			<point x="956" y="483" type="line" smooth="yes"/>
			<point x="956" y="653"/>
			<point x="793" y="897"/>
			<point x="589" y="988" type="qcurve" smooth="yes"/>
			<point x="434" y="1057"/>
			<point x="291" y="1202"/>
			<point x="291" y="1291" type="qcurve"/>
			<point x="291" y="1412"/>
			<point x="485" y="1556"/>
			<point x="652" y="1556" type="qcurve" smooth="yes"/>
			<point x="758" y="1556"/>
			<point x="907" y="1518"/>
			<point x="952" y="1492" type="qcurve"/>
			<point x="925" y="1410" type="line"/>
			<point x="867" y="1439"/>
			<point x="726" y="1472"/>
			<point x="646" y="1472" type="qcurve" smooth="yes"/>
			<point x="516" y="1472"/>
			<point x="387" y="1378"/>
			<point x="387" y="1300" type="qcurve" smooth="yes"/>
			<point x="387" y="1235"/>
			<point x="484" y="1144"/>
			<point x="670" y="1046" type="qcurve" smooth="yes"/>
			<point x="890" y="930"/>
			<point x="1052" y="645"/>
			<point x="1052" y="492" type="qcurve" smooth="yes"/>
			<point x="1052" y="473" type="line" smooth="yes"/>
			<point x="1052" y="244"/>
			<point x="785" y="-30"/>
		</contour>
	</outline>
</glyph>
<glyph name="epsilon" format="2">
  <advance width="993"/>
  <unicode hex="03B5"/>
  <guideline x="194" y="911" angle="90" identifier="x7XgZIfthT"/>
  <anchor x="552" y="1052" name="GRK_top"/>
  <outline>
    <contour>
      <point x="511" y="-30" type="qcurve"/>
      <point x="304" y="-30"/>
      <point x="85" y="137"/>
      <point x="85" y="273" type="qcurve"/>
      <point x="85" y="387"/>
      <point x="217" y="524"/>
      <point x="358" y="536" type="qcurve"/>
      <point x="358" y="514" type="line"/>
      <point x="246" y="531"/>
      <point x="123" y="662"/>
      <point x="123" y="760" type="qcurve"/>
      <point x="123" y="898"/>
      <point x="337" y="1081"/>
      <point x="550" y="1081" type="qcurve" smooth="yes"/>
      <point x="767" y="1081"/>
      <point x="981" y="857"/>
      <point x="981" y="709" type="qcurve"/>
      <point x="890" y="709" type="line"/>
      <point x="894" y="815"/>
      <point x="749" y="995"/>
      <point x="550" y="995" type="qcurve" smooth="yes"/>
      <point x="378" y="995"/>
      <point x="218" y="869"/>
      <point x="218" y="765" type="qcurve"/>
      <point x="218" y="674"/>
      <point x="334" y="574"/>
      <point x="418" y="574" type="qcurve"/>
      <point x="694" y="574" type="line"/>
      <point x="694" y="485" type="line"/>
      <point x="418" y="485" type="line" smooth="yes"/>
      <point x="303" y="485"/>
      <point x="181" y="380"/>
      <point x="181" y="276" type="qcurve"/>
      <point x="181" y="173"/>
      <point x="339" y="56"/>
      <point x="511" y="56" type="qcurve"/>
      <point x="693" y="56"/>
      <point x="885" y="192"/>
      <point x="891" y="343" type="qcurve"/>
      <point x="981" y="343" type="line"/>
      <point x="981" y="179"/>
      <point x="744" y="-30"/>
    </contour>
  </outline>
</glyph>
<glyph name="zeta" format="2">
  <advance width="848"/>
  <unicode hex="03B6"/>
  <guideline x="840" y="472" angle="90" identifier="XErZHXGM5q"/>
  <outline>
    <contour>
      <point x="663" y="-348" type="line"/>
      <point x="692" y="-279"/>
      <point x="706" y="-204"/>
      <point x="706" y="-164" type="qcurve"/>
      <point x="706" y="-107"/>
      <point x="635" y="-33"/>
      <point x="498" y="2" type="qcurve" smooth="yes"/>
      <point x="424" y="21" type="line" smooth="yes"/>
      <point x="237" y="69"/>
      <point x="85" y="221"/>
      <point x="85" y="335" type="qcurve" smooth="yes"/>
      <point x="85" y="475"/>
      <point x="267" y="775"/>
      <point x="398" y="958" type="qcurve" smooth="yes"/>
      <point x="793" y="1509" type="line"/>
      <point x="794" y="1447" type="line"/>
      <point x="128" y="1447" type="line"/>
      <point x="128" y="1536" type="line"/>
      <point x="860" y="1536" type="line"/>
      <point x="860" y="1462" type="line"/>
      <point x="477" y="924" type="line" smooth="yes"/>
      <point x="334" y="724"/>
      <point x="181" y="456"/>
      <point x="181" y="347" type="qcurve" smooth="yes"/>
      <point x="181" y="251"/>
      <point x="303" y="146"/>
      <point x="444" y="111" type="qcurve" smooth="yes"/>
      <point x="528" y="90" type="line" smooth="yes"/>
      <point x="694" y="48"/>
      <point x="798" y="-64"/>
      <point x="798" y="-147" type="qcurve"/>
      <point x="798" y="-203"/>
      <point x="768" y="-308"/>
      <point x="745" y="-348" type="qcurve"/>
    </contour>
  </outline>
</glyph>
<glyph name="theta" format="2">
  <advance width="1143"/>
  <unicode hex="03B8"/>
  <outline>
    <contour>
      <point x="569" y="-30.0" type="qcurve" smooth="yes"/>
      <point x="352" y="-30.0"/>
      <point x="95" y="284.0"/>
      <point x="95" y="654.0" type="qcurve"/>
      <point x="95" y="882.0" type="line"/>
      <point x="95" y="1242.0"/>
      <point x="350" y="1556.0"/>
      <point x="567" y="1556.0" type="qcurve" smooth="yes"/>
      <point x="787" y="1556.0"/>
      <point x="1041" y="1242.0"/>
      <point x="1041" y="882.0" type="qcurve"/>
      <point x="1041" y="654.0" type="line"/>
      <point x="1041" y="284.0"/>
      <point x="789" y="-30.0"/>
    </contour>
    <contour>
      <point x="569" y="57.0" type="qcurve" smooth="yes"/>
      <point x="748.0" y="57.0"/>
      <point x="945.0" y="320"/>
      <point x="945" y="644.0" type="qcurve"/>
      <point x="945" y="896.0" type="line" smooth="yes"/>
      <point x="945.0" y="1222.0"/>
      <point x="741" y="1469"/>
      <point x="567" y="1469.0" type="qcurve" smooth="yes"/>
      <point x="377.0" y="1469.0"/>
      <point x="192" y="1197.0"/>
      <point x="192" y="896.0" type="qcurve" smooth="yes"/>
      <point x="192" y="644.0" type="line" smooth="yes"/>
      <point x="192" y="331"/>
      <point x="390" y="57"/>
    </contour>
    <contour>
      <point x="141" y="745.0" type="line"/>
      <point x="141" y="829.0" type="line"/>
      <point x="997" y="829.0" type="line"/>
      <point x="997" y="745.0" type="line"/>
    </contour>
  </outline>
</glyph>
<glyph name="lambda" format="2">
  <advance width="1029"/>
  <unicode hex="03BB"/>
  <outline>
    <contour>
      <point x="0" y="0" type="line"/>
      <point x="476" y="1077" type="line"/>
      <point x="431" y="1183" type="line" smooth="yes"/>
      <point x="347" y="1381"/>
      <point x="251" y="1472"/>
      <point x="164" y="1472" type="qcurve" smooth="yes"/>
      <point x="127.0" y="1472.0"/>
      <point x="52" y="1455"/>
      <point x="38" y="1450" type="qcurve"/>
      <point x="38" y="1534" type="line"/>
      <point x="73" y="1546"/>
      <point x="139" y="1556"/>
      <point x="171" y="1556" type="qcurve" smooth="yes"/>
      <point x="267" y="1556"/>
      <point x="408" y="1447"/>
      <point x="492" y="1252" type="qcurve" smooth="yes"/>
      <point x="1029" y="0" type="line"/>
      <point x="917" y="0" type="line"/>
      <point x="585" y="796" type="line" smooth="yes"/>
      <point x="564" y="846"/>
      <point x="540" y="902"/>
      <point x="522" y="954" type="qcurve"/>
      <point x="515" y="954" type="line"/>
      <point x="495" y="902"/>
      <point x="468" y="838"/>
      <point x="450" y="796" type="qcurve" smooth="yes"/>
      <point x="109" y="0" type="line"/>
    </contour>
  </outline>
</glyph>
<glyph name="mu" format="2">
  <advance width="1184"/>
  <unicode hex="03BC"/>
  <outline>
    <contour>
      <point x="148" y="-416" type="line"/>
      <point x="148" y="1052" type="line"/>
      <point x="243" y="1052" type="line"/>
      <point x="243" y="217" type="line"/>
      <point x="266" y="168"/>
      <point x="407" y="67"/>
      <point x="545" y="67" type="qcurve" smooth="yes"/>
      <point x="679" y="67"/>
      <point x="877" y="244"/>
      <point x="877" y="352" type="qcurve"/>
      <point x="877" y="1052" type="line"/>
      <point x="973" y="1052" type="line"/>
      <point x="973" y="190" type="line" smooth="yes"/>
      <point x="973" y="115"/>
      <point x="1017" y="58"/>
      <point x="1067" y="58" type="qcurve" smooth="yes"/>
      <point x="1080" y="58"/>
      <point x="1118" y="66"/>
      <point x="1134" y="73" type="qcurve"/>
      <point x="1134" y="-13" type="line"/>
      <point x="1116" y="-21"/>
      <point x="1065" y="-30"/>
      <point x="1040" y="-30" type="qcurve"/>
      <point x="961" y="-30"/>
      <point x="880" y="59"/>
      <point x="878" y="155" type="qcurve"/>
      <point x="875" y="155" type="line"/>
      <point x="833" y="90"/>
      <point x="657" y="-20"/>
      <point x="535" y="-20" type="qcurve" smooth="yes"/>
      <point x="424" y="-20"/>
      <point x="277" y="49"/>
      <point x="243" y="98" type="qcurve"/>
      <point x="243" y="-416" type="line"/>
    </contour>
  </outline>
</glyph>
<glyph name="xi" format="2">
	<unicode hex="03BE"/>
	<advance width="858"/>
	<outline>
		<contour>
			<point x="663" y="-348" type="line"/>
			<point x="691" y="-282"/>
			<point x="706" y="-204"/>
			<point x="706" y="-169" type="qcurve"/>
			<point x="706" y="-103"/>
			<point x="629" y="-32"/>
			<point x="514" y="-2" type="qcurve" smooth="yes"/>
			<point x="430" y="20" type="line" smooth="yes"/>
			<point x="242" y="69"/>
			<point x="85" y="252"/>
			<point x="85" y="396" type="qcurve" smooth="yes"/>
			<point x="85" y="547"/>
			<point x="243" y="751"/>
			<point x="388" y="783" type="qcurve"/>
			<point x="388" y="765" type="line"/>
			<point x="266" y="796"/>
			<point x="133" y="952"/>
			<point x="133" y="1081" type="qcurve" smooth="yes"/>
			<point x="133" y="1219"/>
			<point x="307" y="1429"/>
			<point x="475" y="1458" type="qcurve"/>
			<point x="475" y="1447" type="line"/>
			<point x="91" y="1447" type="line"/>
			<point x="91" y="1536" type="line"/>
			<point x="846" y="1536" type="line"/>
			<point x="846" y="1454" type="line"/>
			<point x="475" y="1437"/>
			<point x="218" y="1248"/>
			<point x="218" y="1082" type="qcurve"/>
			<point x="218" y="961"/>
			<point x="373" y="825"/>
			<point x="550" y="825" type="qcurve"/>
			<point x="784" y="825" type="line"/>
			<point x="784" y="736" type="line"/>
			<point x="550" y="736" type="line"/>
			<point x="351" y="736"/>
			<point x="181" y="551"/>
			<point x="181" y="399" type="qcurve" smooth="yes"/>
			<point x="181" y="277"/>
			<point x="307" y="145"/>
			<point x="463" y="106" type="qcurve" smooth="yes"/>
			<point x="531" y="89" type="line" smooth="yes"/>
			<point x="696" y="48"/>
			<point x="798" y="-66"/>
			<point x="798" y="-143" type="qcurve" smooth="yes"/>
			<point x="798" y="-199"/>
			<point x="771" y="-301"/>
			<point x="745" y="-348" type="qcurve"/>
		</contour>
	</outline>
</glyph>
<glyph name="finalsigma" format="2">
	<unicode hex="03C2"/>
	<advance width="993"/>
	<outline>
		<contour>
			<point x="746" y="-348" type="line"/>
			<point x="766" y="-304"/>
			<point x="789" y="-217"/>
			<point x="789" y="-166" type="qcurve"/>
			<point x="789" y="-97"/>
			<point x="682" y="-23"/>
			<point x="549" y="8" type="qcurve" smooth="yes"/>
			<point x="489" y="22" type="line" smooth="yes"/>
			<point x="275" y="72"/>
			<point x="85" y="305"/>
			<point x="85" y="509" type="qcurve"/>
			<point x="85" y="552" type="line"/>
			<point x="85" y="784"/>
			<point x="344" y="1082"/>
			<point x="560" y="1082" type="qcurve" smooth="yes"/>
			<point x="774" y="1082"/>
			<point x="981" y="858"/>
			<point x="981" y="715" type="qcurve" smooth="yes"/>
			<point x="981" y="709" type="line"/>
			<point x="891" y="709" type="line"/>
			<point x="891" y="715" type="line" smooth="yes"/>
			<point x="891" y="832"/>
			<point x="735" y="996"/>
			<point x="560" y="996" type="qcurve" smooth="yes"/>
			<point x="376" y="996"/>
			<point x="180" y="747"/>
			<point x="180" y="562" type="qcurve"/>
			<point x="180" y="513" type="line"/>
			<point x="180" y="338"/>
			<point x="318" y="158"/>
			<point x="511" y="112" type="qcurve" smooth="yes"/>
			<point x="565" y="99" type="line" smooth="yes"/>
			<point x="758" y="53"/>
			<point x="881" y="-61"/>
			<point x="881" y="-144" type="qcurve" smooth="yes"/>
			<point x="881" y="-201"/>
			<point x="851" y="-309"/>
			<point x="828" y="-348" type="qcurve"/>
		</contour>
	</outline>
</glyph>
<glyph name="upsilon" format="2">
  <advance width="1090"/>
  <unicode hex="03C5"/>
  <anchor x="545.0" y="1052" name="GRK_top"/>
  <outline>
    <contour>
      <point x="545.0" y="-20" type="qcurve" smooth="yes"/>
      <point x="350.0" y="-20"/>
      <point x="138.0" y="172"/>
      <point x="138.0" y="403" type="qcurve" smooth="yes"/>
      <point x="138.0" y="1052" type="line"/>
      <point x="233.0" y="1052" type="line"/>
      <point x="233.0" y="401" type="line" smooth="yes"/>
      <point x="233.0" y="222"/>
      <point x="378.0" y="67"/>
      <point x="545.0" y="67" type="qcurve" smooth="yes"/>
      <point x="712.0" y="67"/>
      <point x="857.0" y="222"/>
      <point x="857.0" y="401" type="qcurve" smooth="yes"/>
      <point x="857.0" y="1052" type="line"/>
      <point x="952.0" y="1052" type="line"/>
      <point x="952.0" y="403" type="line" smooth="yes"/>
      <point x="952.0" y="172"/>
      <point x="740.0" y="-20"/>
    </contour>
  </outline>
</glyph>
<glyph name="chi" format="2">
  <advance width="923"/>
  <unicode hex="03C7"/>
  <outline>
    <contour>
      <point x="776" y="-416" type="line"/>
      <point x="440" y="296" type="line"/>
      <point x="433" y="296" type="line"/>
      <point x="42" y="1052" type="line"/>
      <point x="154" y="1052" type="line"/>
      <point x="492" y="364" type="line"/>
      <point x="498" y="364" type="line"/>
      <point x="888" y="-416" type="line"/>
    </contour>
    <contour>
      <point x="40" y="-416" type="line"/>
      <point x="450" y="376" type="line"/>
      <point x="457" y="376" type="line"/>
      <point x="795" y="1052" type="line"/>
      <point x="904" y="1052" type="line"/>
      <point x="506" y="283" type="line"/>
      <point x="499" y="283" type="line"/>
      <point x="149" y="-416" type="line"/>
    </contour>
  </outline>
</glyph>
<glyph name="omega" format="2">
  <advance width="1564"/>
  <unicode hex="03C9"/>
  <anchor x="782.0" y="1052" name="GRK_top"/>
  <outline>
    <contour>
      <point x="481.0" y="-30" type="qcurve" smooth="yes"/>
      <point x="302.0" y="-30"/>
      <point x="95.0" y="237"/>
      <point x="95.0" y="463" type="qcurve"/>
      <point x="95.0" y="655"/>
      <point x="218.0" y="957"/>
      <point x="303.0" y="1052" type="qcurve"/>
      <point x="411.0" y="1052" type="line"/>
      <point x="330.0" y="964"/>
      <point x="192.0" y="665"/>
      <point x="192.0" y="461" type="qcurve"/>
      <point x="192.0" y="279"/>
      <point x="339.0" y="56"/>
      <point x="479.0" y="56" type="qcurve"/>
      <point x="612.0" y="56"/>
      <point x="734.0" y="234"/>
      <point x="734.0" y="408" type="qcurve" smooth="yes"/>
      <point x="734.0" y="722" type="line"/>
      <point x="830.0" y="722" type="line"/>
      <point x="830.0" y="408" type="line" smooth="yes"/>
      <point x="830.0" y="234"/>
      <point x="952.0" y="56"/>
      <point x="1085.0" y="56" type="qcurve"/>
      <point x="1225.0" y="56"/>
      <point x="1372.0" y="279"/>
      <point x="1372.0" y="461" type="qcurve"/>
      <point x="1372.0" y="665"/>
      <point x="1234.0" y="964"/>
      <point x="1153.0" y="1052" type="qcurve"/>
      <point x="1261.0" y="1052" type="line"/>
      <point x="1346.0" y="957"/>
      <point x="1469.0" y="655"/>
      <point x="1469.0" y="463" type="qcurve"/>
      <point x="1469.0" y="237"/>
      <point x="1262.0" y="-30"/>
      <point x="1083.0" y="-30" type="qcurve" smooth="yes"/>
      <point x="960.0" y="-30"/>
      <point x="805.0" y="100"/>
      <point x="776.0" y="241" type="qcurve"/>
      <point x="788.0" y="241" type="line"/>
      <point x="759.0" y="100"/>
      <point x="604.0" y="-30"/>
    </contour>
  </outline>
</glyph>
<glyph name="kaisymbol" format="2">
  <advance width="946"/>
  <unicode hex="03D7"/>
  <outline>
    <contour>
      <point x="347" y="-521" type="line"/>
      <point x="289" y="-454" type="line"/>
      <point x="830" y="0" type="line"/>
      <point x="419" y="494" type="line"/>
      <point x="242" y="494" type="line"/>
      <point x="242" y="0" type="line"/>
      <point x="148" y="0" type="line"/>
      <point x="148" y="1052" type="line"/>
      <point x="242" y="1052" type="line"/>
      <point x="242" y="577" type="line"/>
      <point x="420" y="577" type="line"/>
      <point x="805" y="1052" type="line"/>
      <point x="917" y="1052" type="line"/>
      <point x="502" y="540" type="line"/>
      <point x="951" y="0" type="line"/>
    </contour>
  </outline>
</glyph>
<glyph name="Dje" format="2">
	<unicode hex="0402"/>
	<advance width="1626"/>
	<outline>
		<contour>
			<point x="508" y="0" type="line"/>
			<point x="508" y="1368" type="line"/>
			<point x="24" y="1368" type="line"/>
			<point x="24" y="1456" type="line"/>
			<point x="1128" y="1456" type="line"/>
			<point x="1128" y="1368" type="line"/>
			<point x="604" y="1368" type="line"/>
			<point x="604" y="0" type="line"/>
		</contour>
		<contour>
			<point x="1107" y="0" type="line"/>
			<point x="1107" y="88" type="line"/>
			<point x="1115" y="88" type="line" smooth="yes"/>
			<point x="1249" y="88"/>
			<point x="1389" y="242.884244373"/>
			<point x="1389" y="407" type="qcurve" smooth="yes"/>
			<point x="1389" y="425" type="line" smooth="yes"/>
			<point x="1389" y="606"/>
			<point x="1179" y="762"/>
			<point x="971" y="762" type="qcurve" smooth="yes"/>
			<point x="837" y="762"/>
			<point x="656" y="735"/>
			<point x="556" y="708" type="qcurve"/>
			<point x="556" y="797" type="line"/>
			<point x="657" y="822"/>
			<point x="827" y="850"/>
			<point x="972" y="850" type="qcurve" smooth="yes"/>
			<point x="1225" y="850"/>
			<point x="1486" y="650"/>
			<point x="1486" y="425" type="qcurve" smooth="yes"/>
			<point x="1486" y="408" type="line" smooth="yes"/>
			<point x="1486" y="201"/>
			<point x="1292" y="0"/>
			<point x="1115" y="0" type="qcurve" smooth="yes"/>
		</contour>
	</outline>
	<guideline x="568" y="625" angle="90" identifier="YDADns81zF"/>
</glyph>
<glyph name="Ieukran" format="2">
	<unicode hex="0404"/>
	<advance width="1257"/>
	<outline>
		<contour>
			<point x="164" y="795" type="line"/>
			<point x="859" y="795" type="line"/>
			<point x="859" y="707" type="line"/>
			<point x="164" y="707" type="line"/>
		</contour>
		<contour>
			<point x="115" y="697" type="qcurve" smooth="yes"/>
			<point x="115" y="759" type="line" smooth="yes"/>
			<point x="115" y="1112"/>
			<point x="448" y="1486"/>
			<point x="700" y="1486" type="qcurve" smooth="yes"/>
			<point x="948" y="1486"/>
			<point x="1230" y="1224"/>
			<point x="1230" y="1019" type="qcurve" smooth="yes"/>
			<point x="1230" y="1009" type="line"/>
			<point x="1133" y="1009" type="line"/>
			<point x="1133" y="1019" type="line" smooth="yes"/>
			<point x="1133" y="1159"/>
			<point x="914" y="1396"/>
			<point x="700" y="1396" type="qcurve" smooth="yes"/>
			<point x="486" y="1396"/>
			<point x="213" y="1052"/>
			<point x="213" y="759" type="qcurve" smooth="yes"/>
			<point x="213" y="697" type="line" smooth="yes"/>
			<point x="213" y="382"/>
			<point x="486" y="60"/>
			<point x="700" y="60" type="qcurve" smooth="yes"/>
			<point x="921" y="60"/>
			<point x="1133" y="298"/>
			<point x="1133" y="437" type="qcurve" smooth="yes"/>
			<point x="1133" y="447" type="line"/>
			<point x="1230" y="447" type="line"/>
			<point x="1230" y="437" type="line" smooth="yes"/>
			<point x="1230" y="233"/>
			<point x="948" y="-30"/>
			<point x="700" y="-30" type="qcurve" smooth="yes"/>
			<point x="448" y="-30"/>
			<point x="115" y="337"/>
		</contour>
	</outline>
	<guideline x="211" y="787" angle="90" identifier="mFTeE97JTj"/>
</glyph>
<glyph name="Nje" format="2">
	<unicode hex="040A"/>
	<advance width="2005"/>
	<outline>
		<contour>
			<point x="170" y="0" type="line"/>
			<point x="170" y="1456" type="line"/>
			<point x="267" y="1456" type="line"/>
			<point x="267" y="866" type="line"/>
			<point x="1042" y="866" type="line"/>
			<point x="1042" y="1456" type="line"/>
			<point x="1139" y="1456" type="line"/>
			<point x="1139" y="866" type="line"/>
			<point x="1489" y="866" type="line" smooth="yes"/>
			<point x="1722" y="866"/>
			<point x="1955" y="630"/>
			<point x="1955" y="432" type="qcurve" smooth="yes"/>
			<point x="1955" y="234"/>
			<point x="1722" y="0"/>
			<point x="1489" y="0" type="qcurve" smooth="yes"/>
			<point x="1042" y="0" type="line"/>
			<point x="1042" y="778" type="line"/>
			<point x="267" y="778" type="line"/>
			<point x="267" y="0" type="line"/>
		</contour>
		<contour>
			<point x="1139" y="778" type="line"/>
			<point x="1139" y="88" type="line"/>
			<point x="1489" y="88" type="line" smooth="yes"/>
			<point x="1694" y="88"/>
			<point x="1858" y="278"/>
			<point x="1858" y="432" type="qcurve" smooth="yes"/>
			<point x="1858" y="587"/>
			<point x="1694" y="778"/>
			<point x="1489" y="778" type="qcurve" smooth="yes"/>
		</contour>
	</outline>
</glyph>
<glyph name="Tshe" format="2">
	<unicode hex="040B"/>
	<advance width="1616"/>
	<outline>
		<contour>
			<point x="1369" y="0" type="line"/>
			<point x="1369" y="375" type="line" smooth="yes"/>
			<point x="1369" y="606"/>
			<point x="1179" y="762"/>
			<point x="971" y="762" type="qcurve" smooth="yes"/>
			<point x="837" y="762"/>
			<point x="656" y="735"/>
			<point x="556" y="708" type="qcurve"/>
			<point x="556" y="797" type="line"/>
			<point x="657" y="822"/>
			<point x="827" y="850"/>
			<point x="972" y="850" type="qcurve" smooth="yes"/>
			<point x="1225" y="850"/>
			<point x="1466" y="649"/>
			<point x="1466" y="372" type="qcurve" smooth="yes"/>
			<point x="1466" y="0" type="line"/>
		</contour>
		<contour>
			<point x="24" y="1368" type="line"/>
			<point x="24" y="1456" type="line"/>
			<point x="1128" y="1456" type="line"/>
			<point x="1128" y="1368" type="line"/>
			<point x="604" y="1368" type="line"/>
			<point x="604" y="0" type="line"/>
			<point x="508" y="0" type="line"/>
			<point x="508" y="1368" type="line"/>
		</contour>
	</outline>
</glyph>
<glyph name="De" format="2">
	<unicode hex="0414"/>
	<advance width="1417"/>
	<outline>
		<contour>
			<point x="1315" y="-290" type="line"/>
			<point x="1315" y="0" type="line"/>
			<point x="92" y="0" type="line"/>
			<point x="92" y="-290" type="line"/>
			<point x="10" y="-290" type="line"/>
			<point x="10" y="88" type="line"/>
			<point x="1397" y="88" type="line"/>
			<point x="1397" y="-290" type="line"/>
		</contour>
		<contour>
			<point x="303" y="1456" type="line"/>
			<point x="1207" y="1456" type="line"/>
			<point x="1207" y="0" type="line"/>
			<point x="1110" y="0" type="line"/>
			<point x="1110" y="1368" type="line"/>
			<point x="389" y="1368" type="line"/>
			<point x="349" y="562" type="line" smooth="yes"/>
			<point x="340" y="374"/>
			<point x="290" y="131"/>
			<point x="242" y="40" type="qcurve"/>
			<point x="129" y="40" type="line"/>
			<point x="202" y="137"/>
			<point x="247" y="386"/>
			<point x="259" y="575" type="qcurve" smooth="yes"/>
		</contour>
	</outline>
</glyph>
<glyph name="Zhe" format="2">
	<unicode hex="0416"/>
	<advance width="1769"/>
	<outline>
		<contour>
			<point x="836" y="0" type="line"/>
			<point x="836" y="1456" type="line"/>
			<point x="933" y="1456" type="line"/>
			<point x="933" y="0" type="line"/>
		</contour>
		<contour>
			<point x="1656" y="0" type="line"/>
			<point x="1064" y="760" type="line"/>
			<point x="1177" y="772" type="line"/>
			<point x="1779" y="0" type="line"/>
		</contour>
		<contour>
			<point x="885" y="795" type="line"/>
			<point x="1106" y="795" type="line"/>
			<point x="1601" y="1456" type="line"/>
			<point x="1714" y="1456" type="line"/>
			<point x="1148" y="707" type="line"/>
			<point x="885" y="707" type="line"/>
		</contour>
		<contour>
			<point x="-10" y="0" type="line"/>
			<point x="592" y="772" type="line"/>
			<point x="705" y="760" type="line"/>
			<point x="113" y="0" type="line"/>
		</contour>
		<contour>
			<point x="885" y="795" type="line"/>
			<point x="885" y="707" type="line"/>
			<point x="621" y="707" type="line"/>
			<point x="55" y="1456" type="line"/>
			<point x="168" y="1456" type="line"/>
			<point x="663" y="795" type="line"/>
		</contour>
	</outline>
	<guideline x="480" y="796" angle="90" identifier="VJskpFBITb"/>
	<guideline x="218" y="838" angle="90" identifier="sDhLXOW9WT"/>
</glyph>
<glyph name="Ze" format="2">
	<unicode hex="0417"/>
	<advance width="1149"/>
	<outline>
		<contour>
			<point x="557" y="60" type="qcurve" smooth="yes"/>
			<point x="766" y="60"/>
			<point x="962" y="239"/>
			<point x="962" y="402" type="qcurve" smooth="yes"/>
			<point x="962" y="545"/>
			<point x="793" y="715"/>
			<point x="568" y="715" type="qcurve" smooth="yes"/>
			<point x="376" y="715" type="line"/>
			<point x="376" y="801" type="line"/>
			<point x="578" y="801" type="line" smooth="yes"/>
			<point x="762" y="801"/>
			<point x="924" y="952"/>
			<point x="924" y="1086" type="qcurve" smooth="yes"/>
			<point x="924" y="1239"/>
			<point x="748" y="1396"/>
			<point x="564" y="1396" type="qcurve" smooth="yes"/>
			<point x="365" y="1396"/>
			<point x="171" y="1196"/>
			<point x="171" y="1019" type="qcurve" smooth="yes"/>
			<point x="171" y="1009" type="line"/>
			<point x="74" y="1009" type="line"/>
			<point x="74" y="1019" type="line" smooth="yes"/>
			<point x="74" y="1224"/>
			<point x="330" y="1486"/>
			<point x="564" y="1486" type="qcurve" smooth="yes"/>
			<point x="791" y="1486"/>
			<point x="1021" y="1279"/>
			<point x="1021" y="1086" type="qcurve" smooth="yes"/>
			<point x="1021" y="959"/>
			<point x="888" y="796"/>
			<point x="788" y="765" type="qcurve"/>
			<point x="788" y="761" type="line"/>
			<point x="909" y="730"/>
			<point x="1059" y="548"/>
			<point x="1059" y="401" type="qcurve" smooth="yes"/>
			<point x="1059" y="189"/>
			<point x="788" y="-30"/>
			<point x="557" y="-30" type="qcurve" smooth="yes"/>
			<point x="309" y="-30"/>
			<point x="27" y="233"/>
			<point x="27" y="437" type="qcurve" smooth="yes"/>
			<point x="27" y="447" type="line"/>
			<point x="124" y="447" type="line"/>
			<point x="124" y="437" type="line" smooth="yes"/>
			<point x="124" y="298"/>
			<point x="336" y="60"/>
		</contour>
	</outline>
	<guideline x="1147" y="753" angle="90" identifier="ZzoGr9IEv9"/>
</glyph>
<glyph name="Icyr" format="2">
	<unicode hex="0418"/>
	<advance width="1416"/>
	<outline>
		<contour>
			<point x="1246" y="0" type="line"/>
			<point x="1149" y="0" type="line"/>
			<point x="1149" y="1209" type="line" smooth="yes"/>
			<point x="1149" y="1239"/>
			<point x="1153" y="1318"/>
			<point x="1158" y="1350" type="qcurve"/>
			<point x="1149" y="1350" type="line"/>
			<point x="1138" y="1326"/>
			<point x="1097" y="1260"/>
			<point x="1077" y="1229" type="qcurve" smooth="yes"/>
			<point x="285" y="0" type="line"/>
			<point x="170" y="0" type="line"/>
			<point x="170" y="1456" type="line"/>
			<point x="267" y="1456" type="line"/>
			<point x="267" y="220" type="line" smooth="yes"/>
			<point x="267" y="190"/>
			<point x="264" y="136"/>
			<point x="262" y="106" type="qcurve"/>
			<point x="270" y="106" type="line"/>
			<point x="286" y="137"/>
			<point x="319" y="196"/>
			<point x="340" y="228" type="qcurve" smooth="yes"/>
			<point x="1131" y="1456" type="line"/>
			<point x="1246" y="1456" type="line"/>
		</contour>
	</outline>
	<guideline x="739" y="930" angle="90" identifier="jpSOnFR6u4"/>
</glyph>
<glyph name="Ka" format="2">
	<unicode hex="041A"/>
	<advance width="1243"/>
	<outline>
		<contour>
			<point x="1130" y="0" type="line"/>
			<point x="448" y="760" type="line"/>
			<point x="559" y="771" type="line"/>
			<point x="1253" y="0" type="line"/>
		</contour>
		<contour>
			<point x="218" y="795" type="line"/>
			<point x="490" y="795" type="line"/>
			<point x="1075" y="1456" type="line"/>
			<point x="1188" y="1456" type="line"/>
			<point x="522" y="707" type="line"/>
			<point x="218" y="707" type="line"/>
		</contour>
		<contour>
			<point x="170" y="0" type="line"/>
			<point x="170" y="1456" type="line"/>
			<point x="267" y="1456" type="line"/>
			<point x="267" y="0" type="line"/>
		</contour>
	</outline>
	<guideline x="480" y="796" angle="90" identifier="LxfLwWU0sJ"/>
	<guideline x="218" y="838" angle="90" identifier="uXZo4z4k4u"/>
</glyph>
<glyph name="El" format="2">
	<unicode hex="041B"/>
	<advance width="1388"/>
	<outline>
		<contour>
			<point x="334" y="1456" type="line"/>
			<point x="1218" y="1456" type="line"/>
			<point x="1218" y="0" type="line"/>
			<point x="1121" y="0" type="line"/>
			<point x="1121" y="1368" type="line"/>
			<point x="420" y="1368" type="line"/>
			<point x="380" y="562" type="line" smooth="yes"/>
			<point x="366" y="285"/>
			<point x="258" y="-25"/>
			<point x="110" y="-20" type="qcurve" smooth="yes"/>
			<point x="80" y="-19"/>
			<point x="38" y="-9"/>
			<point x="10" y="0" type="qcurve"/>
			<point x="10" y="96" type="line"/>
			<point x="31" y="88"/>
			<point x="71" y="78"/>
			<point x="109" y="78" type="qcurve" smooth="yes"/>
			<point x="202" y="78"/>
			<point x="278" y="337"/>
			<point x="290" y="575" type="qcurve" smooth="yes"/>
		</contour>
	</outline>
</glyph>
<glyph name="Pe" format="2">
  <advance width="1398"/>
  <unicode hex="041F"/>
  <outline>
    <contour>
      <point x="170" y="0" type="line"/>
      <point x="170" y="1456" type="line"/>
      <point x="1228" y="1456" type="line"/>
      <point x="1228" y="0" type="line"/>
      <point x="1131" y="0" type="line"/>
      <point x="1131" y="1368" type="line"/>
      <point x="267" y="1368" type="line"/>
      <point x="267" y="0" type="line"/>
    </contour>
  </outline>
</glyph>
<glyph name="Tse" format="2">
	<unicode hex="0426"/>
	<advance width="1438"/>
	<outline>
		<contour>
			<point x="1336" y="-290" type="line"/>
			<point x="1336" y="0" type="line"/>
			<point x="170" y="0" type="line"/>
			<point x="170" y="1456" type="line"/>
			<point x="267" y="1456" type="line"/>
			<point x="267" y="88" type="line"/>
			<point x="1131" y="88" type="line"/>
			<point x="1131" y="1456" type="line"/>
			<point x="1228" y="1456" type="line"/>
			<point x="1228" y="88" type="line"/>
			<point x="1418" y="88" type="line"/>
			<point x="1418" y="-290" type="line"/>
		</contour>
	</outline>
</glyph>
<glyph name="Che" format="2">
	<unicode hex="0427"/>
	<advance width="1338"/>
	<outline>
		<contour>
			<point x="247" y="1051" type="line" smooth="yes"/>
			<point x="247" y="820"/>
			<point x="467" y="664"/>
			<point x="675" y="664" type="qcurve" smooth="yes"/>
			<point x="809" y="664"/>
			<point x="1020" y="691"/>
			<point x="1120" y="718" type="qcurve"/>
			<point x="1120" y="629" type="line"/>
			<point x="1019" y="604"/>
			<point x="819" y="576"/>
			<point x="674" y="576" type="qcurve" smooth="yes"/>
			<point x="421" y="576"/>
			<point x="150" y="777"/>
			<point x="150" y="1054" type="qcurve" smooth="yes"/>
			<point x="150" y="1456" type="line"/>
			<point x="247" y="1456" type="line"/>
		</contour>
		<contour>
			<point x="1168" y="1456" type="line"/>
			<point x="1168" y="0" type="line"/>
			<point x="1072" y="0" type="line"/>
			<point x="1072" y="1456" type="line"/>
		</contour>
	</outline>
	<guideline x="1123" y="741" angle="90" identifier="nfCxFSb4p1"/>
	<guideline x="1140" y="868" angle="90" identifier="thIzYQWq43"/>
</glyph>
<glyph name="Sha" format="2">
	<unicode hex="0428"/>
	<advance width="2079"/>
	<outline>
		<contour>
			<point x="170" y="1456" type="line"/>
			<point x="267" y="1456" type="line"/>
			<point x="267" y="88" type="line"/>
			<point x="991" y="88" type="line"/>
			<point x="991" y="1456" type="line"/>
			<point x="1088" y="1456" type="line"/>
			<point x="1088" y="88" type="line"/>
			<point x="1812" y="88" type="line"/>
			<point x="1812" y="1456" type="line"/>
			<point x="1909" y="1456" type="line"/>
			<point x="1909" y="0" type="line"/>
			<point x="170" y="0" type="line"/>
		</contour>
	</outline>
</glyph>
<glyph name="Yu" format="2">
	<unicode hex="042E"/>
	<advance width="1923"/>
	<outline>
		<contour>
			<point x="170" y="0" type="line"/>
			<point x="170" y="1456" type="line"/>
			<point x="267" y="1456" type="line"/>
			<point x="267" y="795" type="line"/>
			<point x="664" y="795" type="line"/>
			<point x="664" y="707" type="line"/>
			<point x="267" y="707" type="line"/>
			<point x="267" y="0" type="line"/>
		</contour>
		<contour>
			<point x="615" y="697" type="qcurve" smooth="yes"/>
			<point x="615" y="759" type="line" smooth="yes"/>
			<point x="615" y="1112"/>
			<point x="948" y="1486"/>
			<point x="1211" y="1486" type="qcurve" smooth="yes"/>
			<point x="1474" y="1486"/>
			<point x="1808" y="1112"/>
			<point x="1808" y="759" type="qcurve" smooth="yes"/>
			<point x="1808" y="697" type="line" smooth="yes"/>
			<point x="1808" y="344"/>
			<point x="1474" y="-30"/>
			<point x="1211" y="-30" type="qcurve" smooth="yes"/>
			<point x="949" y="-30"/>
			<point x="615" y="344"/>
		</contour>
		<contour>
			<point x="713" y="697" type="line" smooth="yes"/>
			<point x="713" y="384"/>
			<point x="988" y="60"/>
			<point x="1211" y="60" type="qcurve" smooth="yes"/>
			<point x="1435" y="60"/>
			<point x="1710" y="384"/>
			<point x="1710" y="697" type="qcurve" smooth="yes"/>
			<point x="1710" y="759" type="line" smooth="yes"/>
			<point x="1710" y="1072"/>
			<point x="1435" y="1396"/>
			<point x="1211" y="1396" type="qcurve" smooth="yes"/>
			<point x="988" y="1396"/>
			<point x="713" y="1072"/>
			<point x="713" y="759" type="qcurve" smooth="yes"/>
		</contour>
	</outline>
	<guideline x="732" y="785" angle="90" identifier="6nH5tb4DEh"/>
	<guideline x="664" y="735" angle="90" identifier="S832oC35uu"/>
</glyph>
<glyph name="Ya" format="2">
	<unicode hex="042F"/>
	<advance width="1178"/>
	<outline>
		<contour>
			<point x="1008" y="0" type="line"/>
			<point x="1008" y="1456" type="line"/>
			<point x="570" y="1456" type="line" smooth="yes"/>
			<point x="344" y="1456"/>
			<point x="115" y="1235"/>
			<point x="115" y="1043" type="qcurve" smooth="yes"/>
			<point x="115" y="871"/>
			<point x="298" y="656"/>
			<point x="479" y="634" type="qcurve"/>
			<point x="500" y="629" type="line"/>
			<point x="911" y="629" type="line"/>
			<point x="911" y="0" type="line"/>
		</contour>
		<contour>
			<point x="911" y="716" type="line"/>
			<point x="570" y="716" type="line" smooth="yes"/>
			<point x="370" y="716"/>
			<point x="212" y="897"/>
			<point x="212" y="1043" type="qcurve" smooth="yes"/>
			<point x="212" y="1189"/>
			<point x="370" y="1369"/>
			<point x="570" y="1369" type="qcurve" smooth="yes"/>
			<point x="911" y="1369" type="line"/>
		</contour>
		<contour>
			<point x="151" y="0" type="line"/>
			<point x="553" y="672" type="line"/>
			<point x="448" y="672" type="line"/>
			<point x="41" y="0" type="line"/>
		</contour>
	</outline>
</glyph>
<glyph name="be" format="2">
	<unicode hex="0431"/>
	<advance width="1164"/>
	<outline>
		<contour>
			<point x="191" y="542" type="qcurve" smooth="yes"/>
			<point x="191" y="510" type="line" smooth="yes"/>
			<point x="191" y="313"/>
			<point x="392" y="57"/>
			<point x="587" y="57" type="qcurve" smooth="yes"/>
			<point x="782" y="57"/>
			<point x="983" y="313"/>
			<point x="983" y="510" type="qcurve" smooth="yes"/>
			<point x="983" y="542" type="line" smooth="yes"/>
			<point x="983" y="739"/>
			<point x="782" y="995"/>
			<point x="587" y="995" type="qcurve" smooth="yes"/>
			<point x="392" y="995"/>
			<point x="191" y="739"/>
		</contour>
		<contour>
			<point x="587" y="1082" type="qcurve" smooth="yes"/>
			<point x="811" y="1082"/>
			<point x="1079" y="780"/>
			<point x="1079" y="542" type="qcurve" smooth="yes"/>
			<point x="1079" y="510" type="line" smooth="yes"/>
			<point x="1079" y="272"/>
			<point x="811" y="-30"/>
			<point x="587" y="-30" type="qcurve" smooth="yes"/>
			<point x="374" y="-30"/>
			<point x="95" y="258"/>
			<point x="95" y="567" type="qcurve" smooth="yes"/>
			<point x="95" y="609" type="line" smooth="yes"/>
			<point x="95" y="1026"/>
			<point x="346.3282252177" y="1405.3058424893"/>
			<point x="687" y="1447" type="qcurve" smooth="yes"/>
			<point x="856" y="1468"/>
			<point x="912" y="1509"/>
			<point x="917" y="1536" type="qcurve"/>
			<point x="1009" y="1536" type="line"/>
			<point x="1001" y="1458"/>
			<point x="875" y="1374"/>
			<point x="698" y="1356" type="qcurve" smooth="yes"/>
			<point x="398.3053013079" y="1325.4189082967"/>
			<point x="196.0021221767" y="1053.0281467642"/>
			<point x="177" y="801" type="qcurve"/>
			<point x="188" y="801" type="line"/>
			<point x="246" y="953"/>
			<point x="442" y="1082"/>
		</contour>
	</outline>
	<guideline x="1020" y="1327" angle="90" identifier="1IemZ97HBj"/>
</glyph>
<glyph name="ve" format="2">
	<unicode hex="0432"/>
	<advance width="1055"/>
	<outline>
		<contour>
			<point x="148" y="0" type="line"/>
			<point x="148" y="1052" type="line"/>
			<point x="606" y="1052" type="line" smooth="yes"/>
			<point x="747" y="1052"/>
			<point x="912" y="910"/>
			<point x="912" y="774" type="qcurve" smooth="yes"/>
			<point x="912" y="681"/>
			<point x="813" y="559"/>
			<point x="746" y="544" type="qcurve"/>
			<point x="746" y="541" type="line"/>
			<point x="839" y="527"/>
			<point x="955" y="397"/>
			<point x="955" y="306" type="qcurve" smooth="yes"/>
			<point x="955" y="161"/>
			<point x="785" y="0"/>
			<point x="642" y="0" type="qcurve" smooth="yes"/>
		</contour>
		<contour>
			<point x="242" y="83" type="line"/>
			<point x="642" y="83" type="line" smooth="yes"/>
			<point x="752" y="83"/>
			<point x="858" y="203"/>
			<point x="858" y="306" type="qcurve" smooth="yes"/>
			<point x="858" y="390"/>
			<point x="748" y="494"/>
			<point x="642" y="494" type="qcurve" smooth="yes"/>
			<point x="242" y="494" type="line"/>
		</contour>
		<contour>
			<point x="242" y="576" type="line"/>
			<point x="606" y="576" type="line" smooth="yes"/>
			<point x="717" y="576"/>
			<point x="814" y="678"/>
			<point x="814" y="774" type="qcurve" smooth="yes"/>
			<point x="814" y="863"/>
			<point x="717" y="969"/>
			<point x="604" y="969" type="qcurve" smooth="yes"/>
			<point x="242" y="969" type="line"/>
		</contour>
	</outline>
</glyph>
<glyph name="ghe" format="2">
	<unicode hex="0433"/>
	<advance width="874"/>
	<outline>
		<contour>
			<point x="148" y="1052" type="line"/>
			<point x="824" y="1052" type="line"/>
			<point x="824" y="969" type="line"/>
			<point x="242" y="969" type="line"/>
			<point x="242" y="0" type="line"/>
			<point x="148" y="0" type="line"/>
		</contour>
	</outline>
</glyph>
<glyph name="ze" format="2">
	<unicode hex="0437"/>
	<advance width="985"/>
	<outline>
		<contour>
			<point x="476" y="-30" type="qcurve" smooth="yes"/>
			<point x="282.4567307692" y="-30"/>
			<point x="50" y="168"/>
			<point x="50" y="328" type="qcurve" smooth="yes"/>
			<point x="50" y="333" type="line"/>
			<point x="141" y="333" type="line"/>
			<point x="141" y="328" type="line" smooth="yes"/>
			<point x="141" y="214"/>
			<point x="307.9846153846" y="56"/>
			<point x="476" y="56" type="qcurve" smooth="yes"/>
			<point x="639.0641025641" y="56"/>
			<point x="798" y="190"/>
			<point x="798" y="290" type="qcurve" smooth="yes"/>
			<point x="798" y="390"/>
			<point x="679" y="494"/>
			<point x="532" y="494" type="qcurve" smooth="yes"/>
			<point x="352" y="494" type="line"/>
			<point x="352" y="576" type="line"/>
			<point x="528" y="576" type="line" smooth="yes"/>
			<point x="652" y="576"/>
			<point x="760" y="678"/>
			<point x="760" y="774" type="qcurve" smooth="yes"/>
			<point x="760" y="874"/>
			<point x="635.3488372093" y="996"/>
			<point x="492" y="996" type="qcurve" smooth="yes"/>
			<point x="338.1779935275" y="996"/>
			<point x="173" y="852.3643923896"/>
			<point x="173" y="724" type="qcurve" smooth="yes"/>
			<point x="173" y="719" type="line"/>
			<point x="82" y="719" type="line"/>
			<point x="82" y="724" type="line" smooth="yes"/>
			<point x="82" y="896"/>
			<point x="311.6" y="1082"/>
			<point x="492" y="1082" type="qcurve" smooth="yes"/>
			<point x="657.5224719101" y="1082"/>
			<point x="858" y="921"/>
			<point x="858" y="774" type="qcurve" smooth="yes"/>
			<point x="858" y="681"/>
			<point x="750" y="561"/>
			<point x="678" y="544" type="qcurve"/>
			<point x="678" y="541" type="line"/>
			<point x="764" y="528"/>
			<point x="895" y="410"/>
			<point x="895" y="291" type="qcurve" smooth="yes"/>
			<point x="895" y="147"/>
			<point x="666.5476772616" y="-30"/>
		</contour>
	</outline>
</glyph>
<glyph name="icyr" format="2">
	<unicode hex="0438"/>
	<advance width="1120"/>
	<outline>
		<contour>
			<point x="148" y="0" type="line"/>
			<point x="148" y="1052" type="line"/>
			<point x="242" y="1052" type="line"/>
			<point x="242" y="253" type="line" smooth="yes"/>
			<point x="242" y="223"/>
			<point x="241" y="148"/>
			<point x="240" y="118" type="qcurve"/>
			<point x="247" y="118" type="line"/>
			<point x="261" y="143"/>
			<point x="295" y="204"/>
			<point x="315" y="233" type="qcurve" smooth="yes"/>
			<point x="866" y="1052" type="line"/>
			<point x="972" y="1052" type="line"/>
			<point x="972" y="0" type="line"/>
			<point x="878" y="0" type="line"/>
			<point x="878" y="799" type="line" smooth="yes"/>
			<point x="878" y="829"/>
			<point x="879" y="904"/>
			<point x="880" y="934" type="qcurve"/>
			<point x="873" y="934" type="line"/>
			<point x="859" y="909"/>
			<point x="826" y="850"/>
			<point x="805" y="819" type="qcurve" smooth="yes"/>
			<point x="254" y="0" type="line"/>
		</contour>
	</outline>
</glyph>
<glyph name="en" format="2">
  <advance width="1110"/>
  <unicode hex="043D"/>
  <outline>
    <contour>
      <point x="148" y="1052" type="line"/>
      <point x="242" y="1052" type="line"/>
      <point x="242" y="577" type="line"/>
      <point x="868" y="577" type="line"/>
      <point x="868" y="1052" type="line"/>
      <point x="962" y="1052" type="line"/>
      <point x="962" y="0" type="line"/>
      <point x="868" y="0" type="line"/>
      <point x="868" y="494" type="line"/>
      <point x="242" y="494" type="line"/>
      <point x="242" y="0" type="line"/>
      <point x="148" y="0" type="line"/>
    </contour>
  </outline>
</glyph>
<glyph name="pe" format="2">
  <advance width="1100"/>
  <unicode hex="043F"/>
  <outline>
    <contour>
      <point x="148" y="1052" type="line"/>
      <point x="952" y="1052" type="line"/>
      <point x="952" y="0" type="line"/>
      <point x="858" y="0" type="line"/>
      <point x="858" y="969" type="line"/>
      <point x="242" y="969" type="line"/>
      <point x="242" y="0" type="line"/>
      <point x="148" y="0" type="line"/>
    </contour>
  </outline>
</glyph>
<glyph name="te" format="2">
	<unicode hex="0442"/>
	<advance width="958"/>
	<outline>
		<contour>
			<point x="50" y="969" type="line"/>
			<point x="50" y="1052" type="line"/>
			<point x="908" y="1052" type="line"/>
			<point x="908" y="969" type="line"/>
			<point x="526" y="969" type="line"/>
			<point x="526" y="0" type="line"/>
			<point x="432" y="0" type="line"/>
			<point x="432" y="969" type="line"/>
		</contour>
	</outline>
</glyph>
<glyph name="ef" format="2">
	<unicode hex="0444"/>
	<advance width="1368"/>
	<outline>
		<contour>
			<point x="181" y="510" type="line" smooth="yes"/>
			<point x="181" y="313"/>
			<point x="412" y="67"/>
			<point x="637" y="57" type="qcurve"/>
			<point x="637" y="995" type="line"/>
			<point x="412" y="985"/>
			<point x="181" y="739"/>
			<point x="181" y="542" type="qcurve" smooth="yes"/>
		</contour>
		<contour>
			<point x="1187" y="542" type="line" smooth="yes"/>
			<point x="1187" y="739"/>
			<point x="956" y="985"/>
			<point x="731" y="995" type="qcurve"/>
			<point x="731" y="57" type="line"/>
			<point x="956" y="67"/>
			<point x="1187" y="313"/>
			<point x="1187" y="510" type="qcurve" smooth="yes"/>
		</contour>
		<contour>
			<point x="637" y="-30" type="line"/>
			<point x="386" y="-20"/>
			<point x="85" y="272"/>
			<point x="85" y="510" type="qcurve" smooth="yes"/>
			<point x="85" y="542" type="line" smooth="yes"/>
			<point x="85" y="780"/>
			<point x="386" y="1072"/>
			<point x="637" y="1082" type="qcurve"/>
			<point x="637" y="1536" type="line"/>
			<point x="731" y="1536" type="line"/>
			<point x="731" y="1082" type="line"/>
			<point x="982" y="1072"/>
			<point x="1283" y="780"/>
			<point x="1283" y="542" type="qcurve" smooth="yes"/>
			<point x="1283" y="510" type="line" smooth="yes"/>
			<point x="1283" y="272"/>
			<point x="982" y="-20"/>
			<point x="731" y="-30" type="qcurve"/>
			<point x="731" y="-416" type="line"/>
			<point x="637" y="-416" type="line"/>
		</contour>
	</outline>
</glyph>
<glyph name="tse" format="2">
	<unicode hex="0446"/>
	<advance width="1120"/>
	<outline>
		<contour>
			<point x="997" y="-270" type="line"/>
			<point x="997" y="0" type="line"/>
			<point x="148" y="0" type="line"/>
			<point x="148" y="1052" type="line"/>
			<point x="242" y="1052" type="line"/>
			<point x="242" y="83" type="line"/>
			<point x="858" y="83" type="line"/>
			<point x="858" y="1052" type="line"/>
			<point x="952" y="1052" type="line"/>
			<point x="952" y="83" type="line"/>
			<point x="1085" y="83" type="line"/>
			<point x="1085" y="-270" type="line"/>
		</contour>
	</outline>
</glyph>
<glyph name="sha" format="2">
	<unicode hex="0448"/>
	<advance width="1610"/>
	<outline>
		<contour>
			<point x="148" y="0" type="line"/>
			<point x="148" y="1052" type="line"/>
			<point x="242" y="1052" type="line"/>
			<point x="242" y="83" type="line"/>
			<point x="758" y="83" type="line"/>
			<point x="758" y="1052" type="line"/>
			<point x="852" y="1052" type="line"/>
			<point x="852" y="83" type="line"/>
			<point x="1368" y="83" type="line"/>
			<point x="1368" y="1052" type="line"/>
			<point x="1462" y="1052" type="line"/>
			<point x="1462" y="0" type="line"/>
		</contour>
	</outline>
</glyph>
<glyph name="shcha" format="2">
  <advance width="1630"/>
  <unicode hex="0449"/>
  <outline>
    <contour>
      <point x="148" y="0" type="line"/>
      <point x="148" y="1052" type="line"/>
      <point x="242" y="1052" type="line"/>
      <point x="242" y="83" type="line"/>
      <point x="758" y="83" type="line"/>
      <point x="758" y="1052" type="line"/>
      <point x="852" y="1052" type="line"/>
      <point x="852" y="83" type="line"/>
      <point x="1368" y="83" type="line"/>
      <point x="1368" y="1052" type="line"/>
      <point x="1462" y="1052" type="line"/>
      <point x="1462" y="83" type="line"/>
      <point x="1595" y="83" type="line"/>
      <point x="1595" y="-270" type="line"/>
      <point x="1507" y="-270" type="line"/>
      <point x="1507" y="0" type="line"/>
    </contour>
  </outline>
</glyph>
<glyph name="ecyr" format="2">
	<unicode hex="044D"/>
	<advance width="1031"/>
	<outline>
		<contour>
			<point x="946" y="520" type="line" smooth="yes"/>
			<point x="946" y="274"/>
			<point x="689" y="-30"/>
			<point x="466" y="-30" type="qcurve" smooth="yes"/>
			<point x="259" y="-30"/>
			<point x="50" y="189"/>
			<point x="50" y="328" type="qcurve" smooth="yes"/>
			<point x="50" y="333" type="line"/>
			<point x="141" y="333" type="line"/>
			<point x="141" y="328" type="line" smooth="yes"/>
			<point x="141" y="214"/>
			<point x="303" y="56"/>
			<point x="466" y="56" type="qcurve" smooth="yes"/>
			<point x="659" y="56"/>
			<point x="851" y="314"/>
			<point x="851" y="520" type="qcurve" smooth="yes"/>
			<point x="851" y="552" type="line" smooth="yes"/>
			<point x="851" y="745"/>
			<point x="667" y="996"/>
			<point x="476" y="996" type="qcurve" smooth="yes"/>
			<point x="324" y="996"/>
			<point x="161" y="852"/>
			<point x="161" y="724" type="qcurve" smooth="yes"/>
			<point x="161" y="719" type="line"/>
			<point x="70" y="719" type="line"/>
			<point x="70" y="724" type="line" smooth="yes"/>
			<point x="70" y="883"/>
			<point x="294" y="1082"/>
			<point x="476" y="1082" type="qcurve" smooth="yes"/>
			<point x="694" y="1082"/>
			<point x="946" y="786"/>
			<point x="946" y="552" type="qcurve" smooth="yes"/>
		</contour>
		<contour>
			<point x="898" y="577" type="line"/>
			<point x="898" y="494" type="line"/>
			<point x="340" y="494" type="line"/>
			<point x="340" y="577" type="line"/>
		</contour>
	</outline>
	<guideline x="889" y="493" angle="90" identifier="9ss4WcbEUf"/>
</glyph>
<glyph name="yu" format="2">
  <advance width="1574"/>
  <unicode hex="044E"/>
  <guideline x="645" y="487" angle="90" identifier="5WLHpa9SA0"/>
  <guideline x="633" y="590" angle="90" identifier="Ry91aIIcjN"/>
  <outline>
    <contour>
      <point x="515" y="510" type="qcurve" smooth="yes"/>
      <point x="515" y="542" type="line" smooth="yes"/>
      <point x="515" y="780"/>
      <point x="780" y="1082"/>
      <point x="1002" y="1082" type="qcurve" smooth="yes"/>
      <point x="1224" y="1082"/>
      <point x="1489" y="780"/>
      <point x="1489" y="542" type="qcurve" smooth="yes"/>
      <point x="1489" y="510" type="line" smooth="yes"/>
      <point x="1489" y="272"/>
      <point x="1224" y="-30"/>
      <point x="1002" y="-30" type="qcurve" smooth="yes"/>
      <point x="780" y="-30"/>
      <point x="515" y="272"/>
    </contour>
    <contour>
      <point x="611" y="542" type="qcurve" smooth="yes"/>
      <point x="611" y="510" type="line" smooth="yes"/>
      <point x="611" y="313"/>
      <point x="809" y="57"/>
      <point x="1002" y="57" type="qcurve" smooth="yes"/>
      <point x="1195" y="57"/>
      <point x="1393" y="313"/>
      <point x="1393" y="510" type="qcurve" smooth="yes"/>
      <point x="1393" y="542" type="line" smooth="yes"/>
      <point x="1393" y="739"/>
      <point x="1195" y="995"/>
      <point x="1002" y="995" type="qcurve" smooth="yes"/>
      <point x="809" y="995"/>
      <point x="611" y="739"/>
    </contour>
    <contour>
      <point x="148" y="1052" type="line"/>
      <point x="242" y="1052" type="line"/>
      <point x="242" y="577" type="line"/>
      <point x="563" y="577" type="line"/>
      <point x="563" y="494" type="line"/>
      <point x="242" y="494" type="line"/>
      <point x="242" y="0" type="line"/>
      <point x="148" y="0" type="line"/>
    </contour>
  </outline>
</glyph>
<glyph name="dje" format="2">
	<unicode hex="0452"/>
	<advance width="1110"/>
	<outline>
		<contour>
			<point x="295" y="1261" type="line"/>
			<point x="13" y="1261" type="line"/>
			<point x="24" y="1341" type="line"/>
			<point x="335" y="1341" type="line"/>
			<point x="620" y="1341" type="line"/>
			<point x="620" y="1261" type="line"/>
		</contour>
		<contour>
			<point x="972" y="-90" type="line" smooth="yes"/>
			<point x="972" y="-270"/>
			<point x="833" y="-436"/>
			<point x="699" y="-436" type="qcurve" smooth="yes"/>
			<point x="662" y="-436"/>
			<point x="586" y="-420"/>
			<point x="563" y="-414" type="qcurve"/>
			<point x="563" y="-330" type="line"/>
			<point x="584" y="-336"/>
			<point x="659" y="-349"/>
			<point x="688" y="-349" type="qcurve" smooth="yes"/>
			<point x="778" y="-349"/>
			<point x="877" y="-245"/>
			<point x="877" y="-127" type="qcurve" smooth="yes"/>
			<point x="877" y="695" type="line" smooth="yes"/>
			<point x="877" y="850"/>
			<point x="726" y="985"/>
			<point x="587" y="985" type="qcurve" smooth="yes"/>
			<point x="470" y="985"/>
			<point x="296" y="869"/>
			<point x="242" y="778" type="qcurve"/>
			<point x="242" y="0" type="line"/>
			<point x="148" y="0" type="line"/>
			<point x="148" y="1536" type="line"/>
			<point x="242" y="1536" type="line"/>
			<point x="242" y="890" type="line"/>
			<point x="311" y="978"/>
			<point x="491" y="1072"/>
			<point x="612" y="1072" type="qcurve" smooth="yes"/>
			<point x="782" y="1072"/>
			<point x="972" y="898"/>
			<point x="972" y="693" type="qcurve" smooth="yes"/>
		</contour>
	</outline>
</glyph>
<glyph name="yi" format="2">
  <advance width="408"/>
  <unicode hex="0457"/>
  <outline>
    <contour>
      <point x="157" y="0" type="line"/>
      <point x="157" y="1052" type="line"/>
      <point x="251" y="1052" type="line"/>
      <point x="251" y="0" type="line"/>
    </contour>
    <contour>
      <point x="43" y="1397" type="qcurve" smooth="yes"/>
      <point x="43" y="1429"/>
      <point x="75" y="1473"/>
      <point x="104" y="1473" type="qcurve" smooth="yes"/>
      <point x="133" y="1473"/>
      <point x="165" y="1429"/>
      <point x="165" y="1397" type="qcurve" smooth="yes"/>
      <point x="165" y="1364"/>
      <point x="133" y="1320"/>
      <point x="105" y="1320" type="qcurve" smooth="yes"/>
      <point x="75" y="1320"/>
      <point x="43" y="1364"/>
    </contour>
    <contour>
      <point x="243" y="1397" type="qcurve" smooth="yes"/>
      <point x="243" y="1429"/>
      <point x="275" y="1473"/>
      <point x="304" y="1473" type="qcurve" smooth="yes"/>
      <point x="333" y="1473"/>
      <point x="365" y="1429"/>
      <point x="365" y="1397" type="qcurve" smooth="yes"/>
      <point x="365" y="1364"/>
      <point x="333" y="1320"/>
      <point x="305" y="1320" type="qcurve" smooth="yes"/>
      <point x="275" y="1320"/>
      <point x="243" y="1364"/>
    </contour>
  </outline>
</glyph>
<glyph name="lje" format="2">
	<unicode hex="0459"/>
	<advance width="1678"/>
	<outline>
		<contour>
			<point x="902" y="1052" type="line"/>
			<point x="902" y="672" type="line"/>
			<point x="1206" y="672" type="line" smooth="yes"/>
			<point x="1394" y="672"/>
			<point x="1598" y="491"/>
			<point x="1598" y="338" type="qcurve" smooth="yes"/>
			<point x="1598" y="185"/>
			<point x="1394" y="0"/>
			<point x="1206" y="0" type="qcurve" smooth="yes"/>
			<point x="808" y="0" type="line"/>
			<point x="808" y="969" type="line"/>
			<point x="340" y="969" type="line"/>
			<point x="314" y="447" type="line" smooth="yes"/>
			<point x="302" y="211"/>
			<point x="216" y="-18"/>
			<point x="94" y="-18" type="qcurve" smooth="yes"/>
			<point x="67" y="-18"/>
			<point x="29" y="-9"/>
			<point x="10" y="0" type="qcurve"/>
			<point x="10" y="88" type="line"/>
			<point x="28" y="82"/>
			<point x="59" y="73"/>
			<point x="85" y="73" type="qcurve" smooth="yes"/>
			<point x="169" y="73"/>
			<point x="216" y="281"/>
			<point x="225" y="451" type="qcurve" smooth="yes"/>
			<point x="255" y="1052" type="line"/>
		</contour>
		<contour>
			<point x="1206" y="589" type="qcurve" smooth="yes"/>
			<point x="902" y="589" type="line"/>
			<point x="902" y="83" type="line"/>
			<point x="1206" y="83" type="line" smooth="yes"/>
			<point x="1366" y="83"/>
			<point x="1500" y="227"/>
			<point x="1500" y="338" type="qcurve" smooth="yes"/>
			<point x="1500" y="448"/>
			<point x="1366" y="589"/>
		</contour>
	</outline>
</glyph>
<glyph name="nje" format="2">
	<unicode hex="045A"/>
	<advance width="1688"/>
	<outline>
		<contour>
			<point x="148" y="1052" type="line"/>
			<point x="242" y="1052" type="line"/>
			<point x="242" y="627" type="line"/>
			<point x="818" y="627" type="line"/>
			<point x="818" y="1052" type="line"/>
			<point x="912" y="1052" type="line"/>
			<point x="912" y="627" type="line"/>
			<point x="1216" y="627" type="line" smooth="yes"/>
			<point x="1404" y="627"/>
			<point x="1608" y="458"/>
			<point x="1608" y="315" type="qcurve" smooth="yes"/>
			<point x="1608" y="172"/>
			<point x="1404" y="0"/>
			<point x="1216" y="0" type="qcurve" smooth="yes"/>
			<point x="818" y="0" type="line"/>
			<point x="818" y="544" type="line"/>
			<point x="242" y="544" type="line"/>
			<point x="242" y="0" type="line"/>
			<point x="148" y="0" type="line"/>
		</contour>
		<contour>
			<point x="1216" y="544" type="qcurve" smooth="yes"/>
			<point x="912" y="544" type="line"/>
			<point x="912" y="83" type="line"/>
			<point x="1216" y="83" type="line" smooth="yes"/>
			<point x="1376" y="83"/>
			<point x="1510" y="214"/>
			<point x="1510" y="315" type="qcurve" smooth="yes"/>
			<point x="1510" y="415"/>
			<point x="1376" y="543"/>
		</contour>
	</outline>
</glyph>
<glyph name="zhedescender" format="2">
	<unicode hex="0497"/>
	<advance width="1430"/>
	<outline>
		<contour>
			<point x="1319" y="0" type="line"/>
			<point x="928" y="494" type="line"/>
			<point x="996" y="558" type="line"/>
			<point x="1415" y="32" type="line"/>
			<point x="1415" y="0" type="line"/>
		</contour>
		<contour>
			<point x="761" y="1052" type="line"/>
			<point x="761" y="0" type="line"/>
			<point x="667" y="0" type="line"/>
			<point x="667" y="1052" type="line"/>
		</contour>
		<contour>
			<point x="714" y="577" type="line"/>
			<point x="929" y="577" type="line"/>
			<point x="1294" y="1052" type="line"/>
			<point x="1406" y="1052" type="line"/>
			<point x="975" y="494" type="line"/>
			<point x="714" y="494" type="line"/>
		</contour>
		<contour>
			<point x="1319" y="83" type="line"/>
			<point x="1490" y="83" type="line"/>
			<point x="1490" y="-270" type="line"/>
			<point x="1402" y="-270" type="line"/>
			<point x="1402" y="0" type="line"/>
			<point x="1319" y="0" type="line"/>
		</contour>
		<contour>
			<point x="109" y="0" type="line"/>
			<point x="-10" y="0" type="line"/>
			<point x="434" y="558" type="line"/>
			<point x="500" y="494" type="line"/>
		</contour>
		<contour>
			<point x="714" y="577" type="line"/>
			<point x="714" y="494" type="line"/>
			<point x="453" y="494" type="line"/>
			<point x="22" y="1052" type="line"/>
			<point x="134" y="1052" type="line"/>
			<point x="499" y="577" type="line"/>
		</contour>
	</outline>
	<guideline x="241" y="553" angle="90" identifier="xemQ0hjD6E"/>
	<guideline x="195" y="516" angle="90" identifier="8S4RFXbsro"/>
</glyph>
<glyph name="Kaverticalstrokecyr" format="2">
	<unicode hex="049C"/>
	<advance width="1377"/>
	<outline>
		<contour>
			<point x="170" y="0" type="line"/>
			<point x="170" y="1456" type="line"/>
			<point x="267" y="1456" type="line"/>
			<point x="267" y="0" type="line"/>
		</contour>
		<contour>
			<point x="1270" y="0" type="line"/>
			<point x="708" y="760" type="line"/>
			<point x="815" y="771" type="line"/>
			<point x="1387" y="0" type="line"/>
		</contour>
		<contour>
			<point x="566" y="795" type="line"/>
			<point x="750" y="795" type="line"/>
			<point x="1215" y="1456" type="line"/>
			<point x="1322" y="1456" type="line"/>
			<point x="792" y="707" type="line"/>
			<point x="566" y="707" type="line"/>
		</contour>
		<contour>
			<point x="525" y="300" type="line"/>
			<point x="525" y="1156" type="line"/>
			<point x="607" y="1156" type="line"/>
			<point x="607" y="300" type="line"/>
		</contour>
	</outline>
	<guideline x="637" y="675" angle="90" identifier="5CJVZV5P4J"/>
	<guideline x="480" y="796" angle="90" identifier="nqbVtOPGan"/>
	<guideline x="218" y="838" angle="90" identifier="NdxvR2M4lI"/>
</glyph>
<glyph name="endescender" format="2">
	<unicode hex="04A3"/>
	<advance width="1130"/>
	<outline>
		<contour>
			<point x="1007" y="-270" type="line"/>
			<point x="1007" y="0" type="line"/>
			<point x="868" y="0" type="line"/>
			<point x="868" y="494" type="line"/>
			<point x="242" y="494" type="line"/>
			<point x="242" y="0" type="line"/>
			<point x="148" y="0" type="line"/>
			<point x="148" y="1052" type="line"/>
			<point x="242" y="1052" type="line"/>
			<point x="242" y="577" type="line"/>
			<point x="868" y="577" type="line"/>
			<point x="868" y="1052" type="line"/>
			<point x="962" y="1052" type="line"/>
			<point x="962" y="83" type="line"/>
			<point x="1095" y="83" type="line"/>
			<point x="1095" y="-270" type="line"/>
		</contour>
	</outline>
</glyph>
<glyph name="Tedescender-cy" format="2">
	<unicode hex="04AC"/>
	<advance width="1152"/>
	<outline>
		<contour>
			<point x="24" y="1368" type="line"/>
			<point x="24" y="1456" type="line"/>
			<point x="1128" y="1456" type="line"/>
			<point x="1128" y="1368" type="line"/>
			<point x="624" y="1368" type="line"/>
			<point x="624" y="88" type="line"/>
			<point x="816" y="88" type="line"/>
			<point x="816" y="-290" type="line"/>
			<point x="734" y="-290" type="line"/>
			<point x="734" y="0" type="line"/>
			<point x="528" y="0" type="line"/>
			<point x="528" y="1368" type="line"/>
		</contour>
	</outline>
</glyph>
<glyph name="ustraight" format="2">
  <advance width="1018"/>
  <unicode hex="04AF"/>
  <outline>
    <contour>
      <point x="461" y="-416" type="line"/>
      <point x="461" y="0" type="line"/>
      <point x="0" y="1052" type="line"/>
      <point x="106" y="1052" type="line"/>
      <point x="457" y="220" type="line" smooth="yes"/>
      <point x="474" y="180"/>
      <point x="497" y="122"/>
      <point x="505" y="90" type="qcurve"/>
      <point x="512" y="90" type="line"/>
      <point x="521" y="122"/>
      <point x="543" y="180"/>
      <point x="560" y="220" type="qcurve" smooth="yes"/>
      <point x="914" y="1052" type="line"/>
      <point x="1018" y="1052" type="line"/>
      <point x="555" y="0" type="line"/>
      <point x="555" y="-416" type="line"/>
    </contour>
  </outline>
</glyph>
